<?xml version="1.0" encoding="UTF-8" standalone="no"?>
<svg width="55px" height="55px" viewBox="0 0 55 55" version="1.1" xmlns="http://www.w3.org/2000/svg" xmlns:xlink="http://www.w3.org/1999/xlink">
    <!-- Generator: Sketch 48.1 (47250) - http://www.bohemiancoding.com/sketch -->
    <title>体检预约</title>
    <desc>Created with Sketch.</desc>
    <defs>
        <path d="M19.4668004,0.147644401 C23.117633,0.0492148004 25.7953662,2.11739684e-16 27.5,0 C29.2016566,0 31.8730165,0.0490430404 35.5140796,0.147129121 L35.5140796,0.14712955 C46.0560424,0.431117983 54.5380204,8.90457968 54.8325987,19.4462518 C54.9441996,23.4399605 55,26.1245432 55,27.5 C55,28.8729935 54.9443992,31.5504282 54.8331977,35.532304 L54.8331972,35.5323039 C54.5390245,46.0659656 46.0694078,54.5362213 35.5357684,54.8311888 C31.516801,54.9437296 28.8382115,55 27.5,55 C26.1596858,55 23.4747783,54.9435526 19.4452775,54.8306579 L19.4452774,54.8306583 C8.90442322,54.5353346 0.431911765,46.0539538 0.147616919,35.5127964 C0.0492056398,31.8638776 0,29.1929455 0,27.5 C1.03867567e-16,25.8037139 0.0494000219,23.1255777 0.148200066,19.4655915 L0.14820115,19.4655915 C0.432969148,8.91653794 8.91773727,0.432056261 19.4668004,0.147644401 Z" id="path-1"></path>
    </defs>
    <g id="Symbols" stroke="none" stroke-width="1" fill="none" fill-rule="evenodd">
        <g id="体检预约">
            <g id="Group-3">
                <g id="Oval">
                    <mask id="mask-2" fill="white">
                        <use xlink:href="#path-1"></use>
                    </mask>
                    <use id="Mask" fill="#FF5252" xlink:href="#path-1"></use>
                </g>
                <circle id="Oval-5" fill-opacity="0.850000024" fill="#FFFFFF" cx="27.8055556" cy="27.8055556" r="16.8055556"></circle>
                <path d="M25.3846154,25.3846154 L34.7954621,25.3846154 C36.0611147,25.3846154 37.0871288,26.4106295 37.0871288,27.6762821 L37.0871288,27.6762821 C37.0871288,28.9419346 36.0611147,29.9679487 34.7954621,29.9679487 L25.3846154,29.9679487 L25.3846154,25.3846154 Z" id="Rectangle-5" fill="#FF5252"></path>
                <path d="M27.6762821,14.3846154 L27.6762821,14.3846154 C28.9419346,14.3846154 29.9679487,15.4106295 29.9679487,16.6762821 L29.9679487,29.7916667 L25.3846154,29.7916667 L25.3846154,16.6762821 C25.3846154,15.4106295 26.4106295,14.3846154 27.6762821,14.3846154 Z" id="Rectangle-6" fill="#FF5252"></path>
            </g>
        </g>
    </g>
</svg>