<?xml version="1.0" encoding="UTF-8" standalone="no"?>
<svg width="55px" height="55px" viewBox="0 0 55 55" version="1.1" xmlns="http://www.w3.org/2000/svg" xmlns:xlink="http://www.w3.org/1999/xlink">
    <!-- Generator: Sketch 48.1 (47250) - http://www.bohemiancoding.com/sketch -->
    <title>我的订单</title>
    <desc>Created with Sketch.</desc>
    <defs>
        <path d="M0,16.2962963 L16.2634409,22 L32.5268817,16.2962963 L31.9697617,26.3447158 C31.8261114,28.9356455 29.6832786,30.962963 27.0883697,30.962963 L5.43851201,30.962963 C2.84360308,30.962963 0.70077037,28.9356455 0.557120031,26.3447158 L0,16.2962963 Z" id="path-1"></path>
        <linearGradient x1="4.01706631%" y1="9.2392143%" x2="65.4470631%" y2="82.2687326%" id="linearGradient-3">
            <stop stop-color="#C3D9FF" offset="0%"></stop>
            <stop stop-color="#9FC2FF" offset="100%"></stop>
        </linearGradient>
    </defs>
    <g id="Symbols" stroke="none" stroke-width="1" fill="none" fill-rule="evenodd">
        <g id="我的订单">
            <path d="M19.4668004,0.147644401 C23.117633,0.0492148004 25.7953662,2.11739684e-16 27.5,0 C29.2016566,0 31.8730165,0.0490430404 35.5140796,0.147129121 L35.5140796,0.14712955 C46.0560424,0.431117983 54.5380204,8.90457968 54.8325987,19.4462518 C54.9441996,23.4399605 55,26.1245432 55,27.5 C55,28.8729935 54.9443992,31.5504282 54.8331977,35.532304 L54.8331972,35.5323039 C54.5390245,46.0659656 46.0694078,54.5362213 35.5357684,54.8311888 C31.516801,54.9437296 28.8382115,55 27.5,55 C26.1596858,55 23.4747783,54.9435526 19.4452775,54.8306579 L19.4452774,54.8306583 C8.90442322,54.5353346 0.431911765,46.0539538 0.147616919,35.5127964 C0.0492056398,31.8638776 0,29.1929455 0,27.5 C1.03867567e-16,25.8037139 0.0494000219,23.1255777 0.148200066,19.4655915 L0.14820115,19.4655915 C0.432969148,8.91653794 8.91773727,0.432056261 19.4668004,0.147644401 Z" id="Mask" fill="#5292FF"></path>
            <g id="Rectangle-13" transform="translate(12.986111, 27.500000)"></g>
            <g id="Group-5" transform="translate(11.000000, 12.000000)">
                <polygon id="Rectangle-12" fill="#B4D0FF" points="16.2634409 10.5925926 32.5268817 16.2962963 16.2634409 22.8148148 0 16.2962963"></polygon>
                <path d="M7.90624523,0 L26.2469806,1.33226763e-15 C27.9537995,-4.97229631e-16 29.3715377,1.3168009 29.4973705,3.01897506 L30.9005376,22 L3.25268817,22 L4.65585534,3.01897506 C4.78168811,1.3168009 6.19942632,2.08989439e-15 7.90624523,1.77635684e-15 Z" id="Rectangle-11" fill="#D5E6FF"></path>
                <path d="M6.27990114,1.62962963 L24.6206365,1.62962963 C26.3274554,1.62962963 27.7451936,2.94643053 27.8710264,4.64860469 L29.2741935,23.6296296 L1.62634409,23.6296296 L3.02951125,4.64860469 C3.15534402,2.94643053 4.57308224,1.62962963 6.27990114,1.62962963 Z" id="Rectangle-11" fill="#F5F9FF"></path>
                <g id="Group-6" transform="translate(8.131720, 4.074074)" fill="#5292FF">
                    <path d="M5.19617874,4.65343314 L5.19617874,4.65343314 C6.5434863,4.65343314 7.63569487,5.74564172 7.63569487,7.09294927 L7.63569487,12.9195124 L2.75666261,12.9195124 L2.75666261,7.09294927 C2.75666261,5.74564172 3.84887119,4.65343314 5.19617874,4.65343314 Z" id="Rectangle-10" transform="translate(5.196179, 8.786473) rotate(-45.000000) translate(-5.196179, -8.786473) "></path>
                    <path d="M10.9658538,0.29656084 L10.9658538,0.29656084 C12.3131614,0.29656084 13.4053699,1.38876941 13.4053699,2.73607697 L13.4053699,14.9632275 L8.52633768,14.9632275 L8.52633768,2.73607697 C8.52633768,1.38876941 9.61854625,0.29656084 10.9658538,0.29656084 Z" id="Rectangle-10" transform="translate(10.965854, 7.629894) scale(-1, 1) rotate(-45.000000) translate(-10.965854, -7.629894) "></path>
                </g>
                <mask id="mask-2" fill="white">
                    <use xlink:href="#path-1"></use>
                </mask>
                <use id="Mask" fill="#D9E7FF" xlink:href="#path-1"></use>
                <polygon id="Rectangle-13" fill="url(#linearGradient-3)" opacity="0.400000006" mask="url(#mask-2)" points="3.25268817 17.1111111 16.3935318 22.0002989 -1.47744499 28.7089153 -1.74600794 15.0329521"></polygon>
            </g>
        </g>
    </g>
</svg>