<?xml version="1.0" encoding="UTF-8" standalone="no"?>
<svg width="55px" height="55px" viewBox="0 0 55 55" version="1.1" xmlns="http://www.w3.org/2000/svg" xmlns:xlink="http://www.w3.org/1999/xlink">
    <!-- Generator: Sketch 48.1 (47250) - http://www.bohemiancoding.com/sketch -->
    <title>我的报告</title>
    <desc>Created with Sketch.</desc>
    <defs>
        <path d="M19.4668004,0.147644401 C23.117633,0.0492148004 25.7953662,2.11739684e-16 27.5,0 C29.2016566,0 31.8730165,0.0490430404 35.5140796,0.147129121 L35.5140796,0.14712955 C46.0560424,0.431117983 54.5380204,8.90457968 54.8325987,19.4462518 C54.9441996,23.4399605 55,26.1245432 55,27.5 C55,28.8729935 54.9443992,31.5504282 54.8331977,35.532304 L54.8331972,35.5323039 C54.5390245,46.0659656 46.0694078,54.5362213 35.5357684,54.8311888 C31.516801,54.9437296 28.8382115,55 27.5,55 C26.1596858,55 23.4747783,54.9435526 19.4452775,54.8306579 L19.4452774,54.8306583 C8.90442322,54.5353346 0.431911765,46.0539538 0.147616919,35.5127964 C0.0492056398,31.8638776 0,29.1929455 0,27.5 C1.03867567e-16,25.8037139 0.0494000219,23.1255777 0.148200066,19.4655915 L0.14820115,19.4655915 C0.432969148,8.91653794 8.91773727,0.432056261 19.4668004,0.147644401 Z" id="path-1"></path>
        <path d="M3.94580038,0 L28.5810813,6.66133815e-16 C29.4314605,-1.00065511e-15 30.1388835,0.653878742 30.2056764,1.50163071 L32.2499209,27.4477059 C32.3913046,29.242184 31.0512068,30.8115101 29.2567287,30.9528938 C29.1715611,30.959604 29.0861625,30.962963 29.0007309,30.962963 L3.52615084,30.962963 C1.72611165,30.962963 0.266891578,29.5037429 0.266891578,27.7037037 C0.266891578,27.6182721 0.270250573,27.5328735 0.27696078,27.4477059 L2.32120535,1.50163071 C2.3879982,0.653878742 3.09542123,8.22345929e-16 3.94580038,6.66133815e-16 Z" id="path-3"></path>
        <linearGradient x1="3.061617e-15%" y1="50%" x2="126.382193%" y2="50%" id="linearGradient-5">
            <stop stop-color="#FFB532" offset="0%"></stop>
            <stop stop-color="#FFD481" offset="100%"></stop>
        </linearGradient>
    </defs>
    <g id="Symbols" stroke="none" stroke-width="1" fill="none" fill-rule="evenodd">
        <g id="我的报告">
            <g id="Group-3-Copy">
                <g id="Oval">
                    <g id="Group-4">
                        <mask id="mask-2" fill="white">
                            <use xlink:href="#path-1"></use>
                        </mask>
                        <use id="Mask" fill="#FFB532" xlink:href="#path-1"></use>
                        <g id="Group-7" mask="url(#mask-2)">
                            <g transform="translate(11.000000, 12.000000)">
                                <mask id="mask-4" fill="white">
                                    <use xlink:href="#path-3"></use>
                                </mask>
                                <use id="Mask" stroke="none" fill="#F5F9FF" fill-rule="evenodd" xlink:href="#path-3"></use>
                                <rect id="Rectangle-7" stroke="none" fill="url(#linearGradient-5)" fill-rule="evenodd" mask="url(#mask-4)" x="5.6922043" y="22" width="21.1424731" height="4.07407407" rx="2.03703704"></rect>
                                <rect id="Rectangle-9" stroke="none" fill="#FFECE0" fill-rule="evenodd" mask="url(#mask-4)" x="1.62634409" y="-0.814814815" width="29.2741935" height="7.33333333"></rect>
                                <polyline id="Path-2" stroke="#FFB532" stroke-width="3.25925926" fill="none" stroke-linecap="round" mask="url(#mask-4)" points="7.31854839 16.9502623 10.6322348 13.9696449 14.124744 17.1111111 20.465808 11.4074074 25.2083333 15.6732466"></polyline>
                                <polygon id="Rectangle-8" stroke="none" fill="#FFB532" fill-rule="evenodd" mask="url(#mask-4)" transform="translate(27.589184, 2.353002) rotate(-45.000000) translate(-27.589184, -2.353002) " points="25.8146005 -4.47243261 29.3176742 -2.87690962 29.6361355 8.92996053 25.5422317 9.17843651"></polygon>
                            </g>
                        </g>
                    </g>
                </g>
            </g>
        </g>
    </g>
</svg>