<?xml version="1.0" encoding="UTF-8"?>
<svg width="18px" height="18px" viewBox="0 0 18 18" version="1.1" xmlns="http://www.w3.org/2000/svg" xmlns:xlink="http://www.w3.org/1999/xlink">
    <!-- Generator: Sketch 48.2 (47327) - http://www.bohemiancoding.com/sketch -->
    <title>热门套餐</title>
    <desc>Created with Sketch.</desc>
    <defs></defs>
    <g id="Symbols" stroke="none" stroke-width="1" fill="none" fill-rule="evenodd">
        <g id="热门套餐">
            <g id="Group-10">
                <rect id="Rectangle-18" x="0" y="0" width="18" height="18"></rect>
                <path d="M9.6694983,13.5310878 L12.3858305,14.737869 C12.4258108,14.755631 12.4697521,14.7625906 12.5132644,14.7580526 C12.6505907,14.7437303 12.7503052,14.6207947 12.7359829,14.4834684 L12.4276585,11.5271671 C12.3763127,11.0348493 12.5358596,10.5438146 12.8667763,10.1757014 L14.8538863,7.96523188 C14.8831336,7.93269712 14.9033312,7.89305706 14.9124613,7.85027209 C14.9412761,7.71524114 14.855171,7.58241787 14.72014,7.55360303 L11.8132529,6.93328959 C11.3291641,6.82998775 10.911465,6.52651161 10.6636275,6.09803786 L9.17539684,3.52511131 C9.15349234,3.48724173 9.12203381,3.45578319 9.08416423,3.4338787 C8.96464645,3.36474729 8.81171606,3.40559352 8.74258465,3.52511131 L7.25435399,6.09803786 C7.00651645,6.52651161 6.58881737,6.82998775 6.10472861,6.93328959 L3.19784148,7.55360303 C3.15505651,7.5627331 3.11541644,7.58293072 3.08288169,7.61217797 C2.98020078,7.70448336 2.97178977,7.86255098 3.06409516,7.96523188 L5.05120516,10.1757014 C5.3821219,10.5438146 5.54166875,11.0348493 5.49032298,11.5271671 L5.18199859,14.4834684 C5.17746052,14.5269807 5.18442015,14.570922 5.20218214,14.6109023 C5.25823964,14.7370816 5.40597173,14.7939265 5.53215101,14.737869 L8.24848319,13.5310878 C8.70083852,13.3301205 9.21714297,13.3301205 9.6694983,13.5310878 Z M6.14115749,16.1086758 C5.25790256,16.5010783 4.22377789,16.1031637 3.8313754,15.2199088 C3.70704148,14.9400468 3.65832409,14.6324573 3.69009056,14.3278714 L3.99841494,11.3715701 C4.00575006,11.301239 3.98295765,11.2310911 3.93568383,11.1785035 L1.94857383,8.96803404 C1.3024361,8.24926772 1.36131321,7.14279437 2.08007953,6.49665664 C2.30782283,6.29192593 2.58530331,6.15054256 2.88479809,6.08663205 L5.79168522,5.46631861 C5.86084076,5.45156121 5.92051205,5.40820747 5.95591741,5.34699694 L7.44414808,2.77407039 C7.92806793,1.93744588 8.99858065,1.65152227 9.83520515,2.13544212 C10.1002922,2.2887736 10.3205019,2.50898336 10.4738334,2.77407039 L11.9620641,5.34699694 C11.9974694,5.40820747 12.0571407,5.45156121 12.1262963,5.46631861 L15.0331834,6.08663205 C15.9784001,6.28833599 16.5811362,7.21809883 16.3794322,8.16331548 C16.3155217,8.46281026 16.1741384,8.74029074 15.9694077,8.96803404 L13.9822977,11.1785035 C13.9350238,11.2310911 13.9122314,11.301239 13.9195665,11.3715701 L14.2278909,14.3278714 C14.3281471,15.2891558 13.6301458,16.1497045 12.6688614,16.2499606 C12.3642755,16.2817271 12.056686,16.2330097 11.776824,16.1086758 L9.06049183,14.9018945 C8.99586964,14.8731849 8.92211186,14.8731849 8.85748967,14.9018945 L6.14115749,16.1086758 Z" id="Star" fill="#FF5673" fill-rule="nonzero"></path>
            </g>
        </g>
    </g>
</svg>