<?xml version="1.0" encoding="UTF-8"?>
<svg width="46px" height="46px" viewBox="0 0 46 46" version="1.1" xmlns="http://www.w3.org/2000/svg" xmlns:xlink="http://www.w3.org/1999/xlink">
    <!-- Generator: Sketch 48.2 (47327) - http://www.bohemiancoding.com/sketch -->
    <title>套餐</title>
    <desc>Created with Sketch.</desc>
    <defs>
        <circle id="path-1" cx="20.4444444" cy="20.4444444" r="20.4444444"></circle>
        <linearGradient x1="17.9702023%" y1="-32.9138455%" x2="119.330087%" y2="104.386444%" id="linearGradient-3">
            <stop stop-color="#49C134" offset="0%"></stop>
            <stop stop-color="#C1FF5A" offset="100%"></stop>
        </linearGradient>
        <linearGradient x1="137.300289%" y1="-14.9436432%" x2="0%" y2="86.4162413%" id="linearGradient-4">
            <stop stop-color="#57AB48" offset="0%"></stop>
            <stop stop-color="#C1FF5A" offset="100%"></stop>
        </linearGradient>
        <linearGradient x1="50%" y1="0%" x2="50%" y2="100%" id="linearGradient-5">
            <stop stop-color="#CEFF3C" offset="0%"></stop>
            <stop stop-color="#7EE113" offset="100%"></stop>
        </linearGradient>
        <linearGradient x1="105.667904%" y1="11.0915994%" x2="0%" y2="50%" id="linearGradient-6">
            <stop stop-color="#F5FFA0" offset="0%"></stop>
            <stop stop-color="#D0F62F" offset="100%"></stop>
        </linearGradient>
    </defs>
    <g id="Symbols" stroke="none" stroke-width="1" fill="none" fill-rule="evenodd">
        <g id="套餐">
            <g id="Group-11">
                <circle id="Oval-2" fill="#91E35D" cx="23" cy="23" r="23"></circle>
                <g id="Group" transform="translate(2.555556, 2.555556)">
                    <mask id="mask-2" fill="white">
                        <use xlink:href="#path-1"></use>
                    </mask>
                    <use id="Mask" fill="#5ABA63" xlink:href="#path-1"></use>
                    <g mask="url(#mask-2)" id="Shape">
                        <g transform="translate(-1.277778, -6.388889)">
                            <path d="M17.2500273,16.3387124 C11.1001152,16.3387124 6.49409744,14.8329173 3.55440153,11.8578322 C-0.145684241,8.11295199 -0.02867666,3.24852921 0.0108572364,1.65011638 L0.0162772061,1.37258205 C0.0162772061,0.621756842 0.624270275,0.0123290753 1.37653018,0.0123290753 L1.59683601,0.00818439258 C8.92208444,-0.159197024 12.9867429,2.27309407 15.103241,4.34208779 C17.7285787,6.90892167 19.0602971,10.4865799 19.0602971,14.9755901 C19.0602971,15.71972 18.460434,16.3264378 17.7163041,16.335843 C17.5602408,16.3387124 17.4036993,16.3387124 17.2500273,16.3387124" fill="url(#linearGradient-3)"></path>
                            <path d="M8.06712809,35.0233105 C4.36305705,32.7094616 3.54001871,28.706017 3.26933905,27.3892832 L3.22852987,27.1960772 C3.06385844,26.4710765 3.51148417,25.7487859 4.23377483,25.5718398 L4.34934771,25.5433053 C8.59764748,24.445602 12.5030545,24.7991753 15.345988,26.5322903 C17.9019819,28.089894 19.6091129,30.694827 20.4225866,34.2724853 C20.5858233,34.9920659 20.146487,35.7089366 19.4336016,35.892578 C17.5444233,36.3768682 15.7964831,36.6190133 14.1953603,36.6190133 C11.8202977,36.6190133 9.77027386,36.0857839 8.06712809,35.0233105 Z" fill="url(#linearGradient-3)"></path>
                            <path d="M32.2222588,40.8149952 C29.9288145,40.8149952 27.3197368,40.1280937 24.4181401,38.7582761 C23.7462233,38.4399326 23.4522696,37.6401682 23.7624832,36.962672 C25.3023922,33.5944797 27.4584242,31.423463 30.1709597,30.5079664 C33.0942362,29.523126 36.4990931,30.0549207 40.2957818,32.0872499 L40.5310723,32.2111121 C41.2044238,32.5294557 41.5104927,33.3347994 41.2002791,34.0135709 C41.1703099,34.0802046 41.1336454,34.1726629 41.0886915,34.2869605 C40.5948366,35.516656 39.2849575,38.7868106 35.7249939,40.1865975 C34.6586946,40.6055293 33.4887782,40.8149952 32.2222588,40.8149952" fill="url(#linearGradient-4)" transform="translate(32.480294, 35.421386) rotate(-8.000000) translate(-32.480294, -35.421386) "></path>
                            <path d="M26.962729,26.3623543 C24.9699337,26.3623543 22.8056123,26.07398 20.4740689,25.4957967 C19.7517782,25.3163001 19.3082972,24.5898648 19.4783886,23.8648641 C23.060032,8.62677877 38.6491401,11.8275897 40.4162096,12.2411015 C40.7672324,12.3241546 41.0718666,12.5430257 41.2609279,12.8490946 C41.4514239,13.1565981 41.5112029,13.5251561 41.4295846,13.8774541 L41.3710808,14.1412791 C40.3781104,18.8262052 38.2302083,22.2323374 34.9857189,24.2633913 C32.7522131,25.6619029 30.066937,26.3623543 26.962729,26.3623543" fill="url(#linearGradient-4)" transform="translate(30.453629, 19.022830) rotate(-8.000000) translate(-30.453629, -19.022830) "></path>
                            <path d="M16.0540325,48.7838428 C15.7806429,48.7838428 15.5058185,48.7022244 15.2663834,48.532133 C14.6542456,48.0967819 14.5114135,47.2480784 14.9453299,46.6359407 C15.3888109,46.0115283 25.6849998,31.1584202 16.18459,15.4835491 C15.7954681,14.8401668 15.999514,14.0048538 16.6430557,13.6144566 C17.2851627,13.2226247 18.1217509,13.4322499 18.5107135,14.0729222 C28.9524445,31.3025276 17.281018,48.0465675 17.1613004,48.2139489 C16.8960407,48.5852168 16.4783843,48.7838428 16.0540325,48.7838428" fill="url(#linearGradient-5)"></path>
                            <path d="M17.8286532,16.5501103 C17.4368212,16.5501103 17.049134,16.3814536 16.779889,16.0562554 C14.4700255,13.2622611 12.0037799,11.2068173 9.01657952,9.58385517 C8.35677791,9.22470248 8.11192281,8.39895416 8.47107551,7.73787727 C8.83022821,7.07951036 9.65454183,6.83465526 10.3156187,7.19237326 C13.6184526,8.98654263 16.3376833,11.252887 18.8759826,14.3231404 C19.3548529,14.9025989 19.2732345,15.7595918 18.6950513,16.2384621 C18.4407909,16.4480874 18.134722,16.5501103 17.8286532,16.5501103" fill="#C5FC37"></path>
                            <path d="M20.0555623,41.2253925 C19.6705867,41.2253925 19.2839997,41.0961102 18.9860465,40.8362705 C18.3840522,40.3111711 18.3733087,39.450193 18.9647386,38.9128189 C21.1925831,36.8873444 23.829755,36.1744589 27.1699102,35.2712369 L27.4372444,35.1991832 C28.24247,34.9774427 29.09819,35.3869692 29.3442163,36.1051152 C29.588631,36.8246959 29.1332855,37.5838105 28.3266274,37.8014063 L28.0576817,37.8748947 C25.0215677,38.6952231 22.8289977,39.2882315 21.1467441,40.8173006 C20.8486119,41.0879803 20.4512813,41.2253925 20.0555623,41.2253925" fill="#93E71B"></path>
                            <path d="M21.0706125,36.4242656 C20.8243227,36.4242656 20.5767577,36.3576318 20.3523071,36.218785 C19.849047,35.9045861 19.3701768,35.5985173 18.9104358,35.304723 C17.656191,34.503524 16.5747477,33.8124778 15.4430899,33.2438593 C14.7724484,32.9065459 14.5017687,32.0876522 14.8405168,31.4170107 C15.1778302,30.7463691 15.9954486,30.4729795 16.6673654,30.8130029 C17.9216102,31.4455452 19.1132064,32.2059351 20.3741464,33.0125541 C20.8271921,33.3009284 21.2964977,33.6001426 21.7916279,33.9089214 C22.4295902,34.3074486 22.6240715,35.1467468 22.226979,35.7834339 C21.9684146,36.1971051 21.5249335,36.4242656 21.0706125,36.4242656" fill="#B4EF26"></path>
                            <path d="M21.1066894,25.6988213 C20.6455138,25.6988213 20.1953375,25.4648062 19.9409177,25.0404544 C19.5517958,24.3970722 19.7599864,23.5617592 20.4033687,23.1740719 C21.4494228,22.5429643 22.4329879,21.8954373 23.3865837,21.2683149 C26.1222337,19.4672909 28.7053275,17.7668551 31.9483823,16.9615114 C32.670673,16.7805801 33.4148029,17.2240611 33.5970096,17.9544817 C33.7765062,18.6836271 33.3331846,19.4209023 32.6040392,19.603109 C29.8127549,20.2954304 27.5274406,21.7986749 24.8815389,23.5411952 C23.8979738,24.1872874 22.8873089,24.852509 21.8073002,25.502746 C21.5881103,25.6363323 21.3459652,25.6988213 21.1066894,25.6988213" fill="url(#linearGradient-6)" opacity="0.5" transform="translate(26.690833, 21.309960) rotate(-10.000000) translate(-26.690833, -21.309960) "></path>
                        </g>
                    </g>
                </g>
            </g>
        </g>
    </g>
</svg>