<?xml version="1.0" standalone="no"?><!DOCTYPE svg PUBLIC "-//W3C//DTD SVG 1.1//EN" "http://www.w3.org/Graphics/SVG/1.1/DTD/svg11.dtd"><svg t="1523688379485" class="icon" style="" viewBox="0 0 1024 1024" version="1.1" xmlns="http://www.w3.org/2000/svg" p-id="3345" xmlns:xlink="http://www.w3.org/1999/xlink" width="48" height="48"><defs><style type="text/css"></style></defs><path d="M876.983133 812.68113 140.215974 812.68113c-41.467437 0-75.203796-33.736359-75.203796-75.203796L65.012178 286.251489c0-41.467437 33.736359-75.203796 75.203796-75.203796l736.766137 0c41.467437 0 75.203796 33.736359 75.203796 75.203796l0 451.225845C952.186929 778.944771 918.450571 812.68113 876.983133 812.68113M140.215974 222.798319c-34.986839 0-63.453171 28.465309-63.453171 63.453171l0 451.225845c0 34.986839 28.466332 63.453171 63.453171 63.453171l736.766137 0c34.987862 0 63.453171-28.465309 63.453171-63.453171L940.435281 286.251489c0-34.987862-28.464285-63.453171-63.453171-63.453171L140.215974 222.798319z" p-id="3346" fill="#1296db"></path><path d="M876.983133 817.797661 140.215974 817.797661c-44.288692 0-80.320327-36.031635-80.320327-80.320327L59.895647 286.251489c0-44.288692 36.031635-80.320327 80.320327-80.320327l736.766137 0c44.288692 0 80.320327 36.031635 80.320327 80.320327l0 451.225845C957.30346 781.766027 921.271826 817.797661 876.983133 817.797661zM140.215974 216.164225c-38.646182 0-70.087265 31.441083-70.087265 70.087265l0 451.225845c0 38.647205 31.441083 70.087265 70.087265 70.087265l736.766137 0c38.647205 0 70.087265-31.441083 70.087265-70.087265L947.069375 286.251489c0-38.646182-31.441083-70.087265-70.087265-70.087265L140.215974 216.164225zM876.983133 806.047036 140.215974 806.047036c-37.810141 0-68.569702-30.760584-68.569702-68.569702L71.646272 286.251489c0-37.810141 30.760584-68.569702 68.569702-68.569702l736.766137 0c37.809117 0 68.569702 30.760584 68.569702 68.569702l0 451.225845C945.552835 775.286452 914.792251 806.047036 876.983133 806.047036zM140.215974 227.91485c-32.16763 0-58.33664 26.170033-58.33664 58.33664l0 451.225845c0 32.16763 26.170033 58.33664 58.33664 58.33664l736.766137 0c32.16763 0 58.33664-26.169009 58.33664-58.33664L935.31875 286.251489c0-32.16763-26.169009-58.33664-58.33664-58.33664L140.215974 227.91485z" p-id="3347" fill="#1296db"></path><path d="M441.269587 367.79876 162.334737 367.79876c-3.267417 0-5.915733-2.648316-5.915733-5.915733 0-3.266393 2.648316-5.915733 5.915733-5.915733l278.93485 0c3.26844 0 5.915733 2.64934 5.915733 5.915733C447.18532 365.150444 444.538027 367.79876 441.269587 367.79876" p-id="3348" fill="#1296db"></path><path d="M441.269587 372.915291 162.334737 372.915291c-6.083555 0-11.032264-4.948709-11.032264-11.032264s4.948709-11.032264 11.032264-11.032264l278.93485 0c6.083555 0 11.032264 4.948709 11.032264 11.032264S447.353143 372.915291 441.269587 372.915291zM162.334737 361.083825c-0.441045 0-0.799202 0.35918-0.799202 0.799202s0.35918 0.799202 0.799202 0.799202l278.93485 0c0.441045 0 0.799202-0.35918 0.799202-0.799202s-0.35918-0.799202-0.799202-0.799202L162.334737 361.083825z" p-id="3349" fill="#1296db"></path><path d="M441.269587 470.737224 162.334737 470.737224c-3.267417 0-5.915733-2.648316-5.915733-5.915733 0-3.266393 2.648316-5.915733 5.915733-5.915733l278.93485 0c3.26844 0 5.915733 2.64934 5.915733 5.915733C447.18532 468.087884 444.538027 470.737224 441.269587 470.737224" p-id="3350" fill="#1296db"></path><path d="M441.269587 475.853755 162.334737 475.853755c-6.083555 0-11.032264-4.948709-11.032264-11.032264s4.948709-11.032264 11.032264-11.032264l278.93485 0c6.083555 0 11.032264 4.948709 11.032264 11.032264S447.353143 475.853755 441.269587 475.853755zM162.334737 464.021266c-0.441045 0-0.799202 0.35918-0.799202 0.799202s0.35918 0.799202 0.799202 0.799202l278.93485 0c0.441045 0 0.799202-0.35918 0.799202-0.799202s-0.35918-0.799202-0.799202-0.799202L162.334737 464.021266z" p-id="3351" fill="#1296db"></path><path d="M301.802162 573.675688 162.334737 573.675688c-3.267417 0-5.915733-2.650363-5.915733-5.915733s2.648316-5.915733 5.915733-5.915733l139.467425 0c3.26844 0 5.915733 2.650363 5.915733 5.915733S305.071625 573.675688 301.802162 573.675688" p-id="3352" fill="#1296db"></path><path d="M301.802162 578.792219 162.334737 578.792219c-6.083555 0-11.032264-4.949732-11.032264-11.032264s4.948709-11.032264 11.032264-11.032264l139.467425 0c6.083555 0 11.032264 4.949732 11.032264 11.032264S307.885717 578.792219 301.802162 578.792219zM162.334737 566.959729c-0.441045 0-0.799202 0.35918-0.799202 0.799202s0.35918 0.799202 0.799202 0.799202l139.467425 0c0.441045 0 0.799202-0.35918 0.799202-0.799202s-0.35918-0.799202-0.799202-0.799202L162.334737 566.959729z" p-id="3353" fill="#1296db"></path><path d="M682.340061 540.54615c-65.562205 0-118.899994-53.338812-118.899994-118.899994 0-65.562205 53.337789-118.901017 118.899994-118.901017s118.901017 53.338812 118.901017 118.901017C801.241079 487.207337 747.902266 540.54615 682.340061 540.54615M682.340061 314.576605c-59.037605 0-107.068528 48.030923-107.068528 107.068528s48.030923 107.068528 107.068528 107.068528c59.038628 0 107.069551-48.030923 107.069551-107.068528S741.378689 314.576605 682.340061 314.576605" p-id="3354" fill="#1296db"></path><path d="M682.340061 545.662681c-68.38346 0-124.016525-55.634088-124.016525-124.016525 0-68.38346 55.633065-124.017548 124.016525-124.017548s124.017548 55.634088 124.017548 124.017548C806.35761 490.028593 750.723521 545.662681 682.340061 545.662681zM682.340061 307.860646c-62.74095 0-113.783463 51.043536-113.783463 113.784486 0 62.74095 51.043536 113.783463 113.783463 113.783463 62.741973 0 113.784486-51.043536 113.784486-113.783463C796.124548 358.904183 745.081011 307.860646 682.340061 307.860646zM682.340061 533.830191c-61.85886 0-112.185059-50.326199-112.185059-112.185059s50.326199-112.185059 112.185059-112.185059 112.186082 50.326199 112.186082 112.185059S744.198921 533.830191 682.340061 533.830191zM682.340061 319.693136c-56.217373 0-101.951997 45.735647-101.951997 101.951997 0 56.216349 45.734624 101.951997 101.951997 101.951997s101.95302-45.735647 101.95302-101.951997C784.293081 365.428783 738.556411 319.693136 682.340061 319.693136z" p-id="3355" fill="#1296db"></path><path d="M504.016677 714.096834c-3.252067 0-5.895267-2.625804-5.91471-5.882987-0.00921-1.699712 0.020466-42.116213 21.912056-84.600817 12.925381-25.076118 30.80561-45.592384 53.146431-60.978816 27.79709-19.142989 62.516846-30.281677 103.196337-33.103956 3.2623-0.224104 6.083555 2.234901 6.310729 5.494131 0.226151 3.25923-2.233877 6.083555-5.492084 6.310729-38.535665 2.672876-71.273277 13.117762-97.302093 31.043017-20.717857 14.267958-37.318954 33.330106-49.338708 56.655348-20.577664 39.928385-20.602224 78.726016-20.600177 79.112826 0.020466 3.267417-2.615571 5.931083-5.881964 5.949502L504.016677 714.095811z" p-id="3356" fill="#1296db"></path><path d="M504.066819 719.213365l-0.050142 0c-6.045693 0-10.994402-4.92108-11.031241-10.968819-0.00921-1.755993 0.031722-43.410696 22.481014-86.974887 13.316284-25.833365 31.750121-46.978964 54.791907-62.84942 28.562523-19.671015 64.140833-31.107485 105.744369-33.993209 0.258896-0.01842 0.5137-0.026606 0.765433-0.026606 5.7694 0 10.602476 4.510734 11.003612 10.269901 0.419556 6.068206-4.174066 11.347442-10.241248 11.770068-37.611619 2.608407-69.490677 12.753465-94.756107 30.15274-20.017916 13.785981-36.063357 32.217772-47.692209 54.784744-19.853164 38.522362-20.032242 76.374458-20.031219 76.752058 0.01842 2.933819-1.11438 5.711072-3.186576 7.807826-2.071172 2.095731-4.836145 3.25923-7.78122 3.275603L504.066819 719.213365zM676.767136 534.633486c-39.808658 2.758834-73.671906 13.597693-100.70561 32.214702-21.638833 14.902408-38.965453 34.790364-51.499931 59.109236-21.311375 41.357943-21.352307 80.579223-21.343097 82.228793 0.00307 0.435928 0.361227 0.793062 0.798179 0.793062l0.034792 5.116531-0.029676-5.116531c0.275269-0.002047 0.458441-0.12996 0.565888-0.237407 0.106424-0.106424 0.232291-0.291642 0.230244-0.564865-0.002047-0.405229 0.038886-40.488133 21.169135-81.487919 12.409634-24.081465 29.564339-43.771923 50.984185-58.524928 26.794249-18.451234 60.388369-29.194926 99.850126-31.933293 0.438998-0.029676 0.772596-0.412392 0.741897-0.852414C677.533592 534.961968 677.184645 534.633486 676.767136 534.633486z" p-id="3357" fill="#1296db"></path><path d="M857.00922 714.096834c-3.13234 0-5.746888-2.459005-5.904477-5.623068-4.907777-98.812493-72.226998-135.524626-72.906473-135.883807-2.888793-1.526773-3.991917-5.108345-2.464121-7.995091 1.526773-2.88777 5.107321-3.990894 7.995091-2.464121 0.766456 0.405229 18.99461 10.19213 37.901215 33.132608 17.32969 21.027919 38.560224 57.635675 41.293475 112.624057 0.161682 3.2623-2.352581 6.039553-5.614881 6.203282C857.208764 714.093764 857.10848 714.096834 857.00922 714.096834" p-id="3358" fill="#1296db"></path><path d="M857.00922 719.213365c-5.885034 0-10.723226-4.605901-11.014868-10.485819-2.456958-49.480948-21.26021-82.520435-36.603663-101.523231-16.911158-20.947078-33.441647-30.013571-33.606399-30.102598-2.582825-1.366114-4.497431-3.675716-5.364171-6.492878-0.868787-2.817162-0.587378-5.803169 0.791016-8.408507 1.914606-3.621481 5.653767-5.873778 9.757225-5.873778 1.785669 0 3.566222 0.444115 5.151323 1.281179 0.805342 0.426719 19.922748 10.698666 39.457664 34.401508 17.820877 21.624507 39.652092 59.237149 42.454928 115.623367 0.300852 6.075369-4.396123 11.263531-10.470469 11.567453C857.343841 719.209272 857.176019 719.213365 857.00922 719.213365zM780.970406 566.559617c-0.23536 0-0.545422 0.112564-0.712221 0.426719-0.127913 0.242524-0.102331 0.464581-0.058328 0.608867 0.045025 0.145309 0.149403 0.343831 0.38988 0.470721 0.708128 0.375553 70.578452 38.512129 75.626421 140.154064 0.021489 0.426719 0.369414 0.760317 0.793062 0.760317l0.094144-0.00307c0.390903-0.020466 0.731664-0.396019 0.709151-0.836041-2.663666-53.588499-23.293519-89.192392-40.130999-109.623723-18.248619-22.141276-35.616172-31.477922-36.346813-31.864732C781.218046 566.591339 781.098319 566.559617 780.970406 566.559617z" p-id="3359" fill="#1296db"></path></svg>