<?xml version="1.0" encoding="UTF-8" standalone="no"?>
<svg width="92px" height="92px" viewBox="0 0 92 92" version="1.1" xmlns="http://www.w3.org/2000/svg" xmlns:xlink="http://www.w3.org/1999/xlink">
    <!-- Generator: Sketch 48.1 (47250) - http://www.bohemiancoding.com/sketch -->
    <title>医生</title>
    <desc>Created with Sketch.</desc>
    <defs>
        <linearGradient x1="100%" y1="28.1531271%" x2="21.7815781%" y2="68.2534385%" id="linearGradient-1">
            <stop stop-color="#70728B" offset="0%"></stop>
            <stop stop-color="#3D3E53" offset="100%"></stop>
        </linearGradient>
        <linearGradient x1="-14.4333023%" y1="50%" x2="100%" y2="50%" id="linearGradient-2">
            <stop stop-color="#23C3F3" offset="0%"></stop>
            <stop stop-color="#2C81FF" offset="100%"></stop>
        </linearGradient>
        <linearGradient x1="91.4614521%" y1="103.558698%" x2="95.5461896%" y2="35.5006273%" id="linearGradient-3">
            <stop stop-color="#FBFEFF" offset="0%"></stop>
            <stop stop-color="#9FCEFF" offset="100%"></stop>
        </linearGradient>
        <linearGradient x1="-2.48949813e-15%" y1="50%" x2="117.543647%" y2="36.7654934%" id="linearGradient-4">
            <stop stop-color="#FBFEFF" offset="0%"></stop>
            <stop stop-color="#D8ECFF" offset="37.3728329%"></stop>
            <stop stop-color="#9FCEFF" offset="100%"></stop>
        </linearGradient>
        <linearGradient x1="50%" y1="93.3191713%" x2="50%" y2="0%" id="linearGradient-5">
            <stop stop-color="#9DD8FD" stop-opacity="0" offset="0%"></stop>
            <stop stop-color="#90CFFC" offset="23.4162124%"></stop>
            <stop stop-color="#64B0FA" offset="100%"></stop>
        </linearGradient>
    </defs>
    <g id="3" stroke="none" stroke-width="1" fill="none" fill-rule="evenodd" transform="translate(-252.000000, -251.000000)">
        <g id="医生" transform="translate(253.000000, 252.000000)">
            <circle id="Oval-14-Copy" stroke="#D2D2D2" cx="45" cy="45" r="45"></circle>
            <g id="Group-3-Copy" transform="translate(21.000000, 11.000000)">
                <circle id="Oval-15-Copy" fill="#3D3E53" cx="28.5" cy="20.5" r="12.5"></circle>
                <circle id="Oval-15-Copy-2" fill="#3D3E53" cx="17.5" cy="18.5" r="11.5"></circle>
                <path d="M10,30 C8.34314575,30 7,28.6568542 7,27 C7,25.3431458 8.34314575,24 10,24 C11.6568542,24 13,25.3431458 13,27 C13,28.6568542 11.6568542,30 10,30 Z M38,30 C36.3431458,30 35,28.6568542 35,27 C35,25.3431458 36.3431458,24 38,24 C39.6568542,24 41,25.3431458 41,27 C41,28.6568542 39.6568542,30 38,30 Z" id="Combined-Shape" fill="#FFE2BC"></path>
                <rect id="Rectangle-38" fill="#FFE2BC" x="19" y="38" width="10" height="11"></rect>
                <path d="M16,14 L32,14 C35.3137085,14 38,16.6862915 38,20 L38,27 C38,34.1797017 32.1797017,40 25,40 L23,40 C15.8202983,40 10,34.1797017 10,27 L10,20 C10,16.6862915 12.6862915,14 16,14 Z" id="Combined-Shape" fill="#FFEED5"></path>
                <path d="M9,13.2616194 C10.8355612,5.92330425 17.5266971,0.483726853 25.5,0.483726853 C33.4733029,0.483726853 40.1644388,5.92330425 42,13.2616194 C35.8560838,15.915031 31.6515851,17.3247567 29.3865042,17.4907962 C25.5253065,17.7738377 21.6594019,15.9988144 18.6362967,14.3436821 C17.3350374,13.6312503 15.2423664,12.3648287 12.3868523,14.3436821 C12.3296667,14.3833114 11.2007159,14.0226238 9,13.2616194 Z" id="Combined-Shape" fill="url(#linearGradient-1)"></path>
                <path d="M24.0447142,62.0850253 L30.8116109,41.7763572 L28.1217311,43.7636921 C25.6891398,45.5609373 22.3773706,45.5925853 19.910877,43.8421569 L17,41.7763572 L24.0447142,62.0850253 Z" id="Path-5" fill="url(#linearGradient-2)"></path>
                <path d="M22.770694,67.4790783 L6,67.4790783 C2.6862915,67.4790783 0,64.7927868 0,61.4790783 C0,51.5127108 7.28986673,43.2489828 16.8283276,41.729167 C20.6160208,46.9479263 23,54.5346095 23,62.9790783 C23,64.5102827 22.9216166,66.0132838 22.770694,67.4790783 Z" id="Combined-Shape" fill="url(#linearGradient-3)"></path>
                <path d="M47.770694,67.4790783 L31,67.4790783 C27.6862915,67.4790783 25,64.7927868 25,61.4790783 C25,51.5127108 32.2898667,43.2489828 41.8283276,41.729167 C45.6160208,46.9479263 48,54.5346095 48,62.9790783 C48,64.5102827 47.9216166,66.0132838 47.770694,67.4790783 Z" id="Combined-Shape" fill="url(#linearGradient-3)" transform="translate(36.500000, 54.604123) scale(-1, 1) translate(-36.500000, -54.604123) "></path>
                <path d="M19.0007803,40.2580264 C17.5514074,40.7360507 15.0169677,41.8338818 13.8651112,42.5823806 C13.0972068,43.0813797 13.9665391,44.1556746 16.473108,45.805265 C14.9013902,46.3604247 14.3520636,47.1068913 14.8251284,48.0446649 C15.1333869,48.655737 17.4832555,50.1723138 20.0517181,53.9051812 C21.2643554,55.667564 22.5753607,58.5999694 23.9847339,62.7023975 C23.8944996,58.5304728 23.4993219,55.1324366 22.7992008,52.5082889 C21.8742358,49.0413963 20.3577553,46.6982791 19.6757097,44.6654398 C18.8869786,42.3146241 19.0007803,40.5256206 19.0007803,40.2580264 Z" id="Path-8" fill="url(#linearGradient-4)"></path>
                <path d="M29.412932,40.3312513 C27.9635591,40.8092756 25.4291194,41.9071067 24.2772628,42.6556055 C23.5093585,43.1546047 24.3786908,44.2288995 26.8852597,45.87849 C25.3135418,46.4336496 24.7642153,47.1801162 25.2372801,48.1178898 C25.5455386,48.7289619 27.8954072,50.2455387 30.4638698,53.9784062 C31.6765071,55.7407889 32.9875123,58.6731944 34.3968856,62.7756224 C34.3066513,58.6036978 33.9114736,55.2056616 33.2113525,52.5815138 C32.2863875,49.1146212 30.769907,46.771504 30.0878613,44.7386647 C29.2991302,42.3878491 29.412932,40.5988455 29.412932,40.3312513 Z" id="Path-8" fill="url(#linearGradient-4)" transform="translate(29.202012, 51.553437) scale(-1, 1) translate(-29.202012, -51.553437) "></path>
                <path d="M23.7974947,55 L24.444974,55 C32.0225106,54.865701 34.5704301,51.1880434 32.6409423,43.0768423 C32.6024678,42.9151027 32.4861162,42.7830659 32.3305013,42.724551 L29.1435293,41.9054612 L29.2346115,39.0974216 L33.386394,39.9165106 C34.4757082,40.3261187 35.2901781,41.2503868 35.5595028,42.3825768 C37.8366293,51.9551849 34.3218036,57.4145338 25.5124444,57.9587637 L25.5124444,68 L22.5124444,68 L22.5124444,57.9442457 C13.8628979,57.3239102 10.4246806,51.8759805 12.682966,42.3825768 C12.9522907,41.2503868 13.7667606,40.3261187 14.8560748,39.9165106 L19.0078572,39.0974216 L19.0989394,41.9054612 L15.9119674,42.724551 C15.7563525,42.7830659 15.640001,42.9151027 15.6015265,43.0768423 C13.6720386,51.1880434 16.2199581,54.865701 23.7974947,55 Z" id="Combined-Shape" fill="url(#linearGradient-5)" fill-rule="nonzero"></path>
                <path d="M27.2311354,33 C26.7261851,33.8829524 25.57298,34.5 24.2311354,34.5 C22.8892908,34.5 21.7360856,33.8829524 21.2311354,33" id="Combined-Shape" stroke="#FFA99F" stroke-width="2" stroke-linecap="round"></path>
            </g>
        </g>
    </g>
</svg>