<?xml version="1.0" encoding="UTF-8" standalone="no"?>
<svg width="349px" height="114px" viewBox="0 0 349 114" version="1.1" xmlns="http://www.w3.org/2000/svg" xmlns:xlink="http://www.w3.org/1999/xlink">
    <!-- Generator: Sketch 48.1 (47250) - http://www.bohemiancoding.com/sketch -->
    <title>发热</title>
    <desc>Created with Sketch.</desc>
    <defs>
        <linearGradient x1="-2.48949813e-15%" y1="50%" x2="100%" y2="50%" id="linearGradient-1">
            <stop stop-color="#F7624F" offset="0%"></stop>
            <stop stop-color="#FF9D32" offset="100%"></stop>
        </linearGradient>
        <path d="M14,0 L311,1.77635684e-15 C318.731986,3.56013962e-16 325,6.2680135 325,14 L325,76 C325,83.7319865 318.731986,90 311,90 L14,90 C6.2680135,90 2.30096928e-13,83.7319865 2.29150032e-13,76 L2.29150032e-13,14 C2.28203137e-13,6.2680135 6.2680135,3.19669972e-15 14,1.77635684e-15 Z" id="path-2"></path>
        <filter x="-6.2%" y="-17.8%" width="112.3%" height="144.4%" filterUnits="objectBoundingBox" id="filter-4">
            <feOffset dx="0" dy="4" in="SourceAlpha" result="shadowOffsetOuter1"></feOffset>
            <feGaussianBlur stdDeviation="6" in="shadowOffsetOuter1" result="shadowBlurOuter1"></feGaussianBlur>
            <feColorMatrix values="0 0 0 0 0.984313725   0 0 0 0 0.505882353   0 0 0 0 0.282352941  0 0 0 0.5 0" type="matrix" in="shadowBlurOuter1"></feColorMatrix>
        </filter>
        <linearGradient x1="103.145508%" y1="43.7489862%" x2="-59.1488374%" y2="108.944861%" id="linearGradient-5">
            <stop stop-color="#F7624F" offset="0%"></stop>
            <stop stop-color="#FF9D32" offset="100%"></stop>
        </linearGradient>
        <linearGradient x1="50%" y1="0%" x2="50%" y2="100%" id="linearGradient-6">
            <stop stop-color="#FFFFFF" offset="0%"></stop>
            <stop stop-color="#FFFFFF" stop-opacity="0" offset="100%"></stop>
        </linearGradient>
        <linearGradient x1="-59.1488374%" y1="108.944861%" x2="103.145508%" y2="43.7489862%" id="linearGradient-7">
            <stop stop-color="#F7624F" offset="0%"></stop>
            <stop stop-color="#FF9D32" offset="100%"></stop>
        </linearGradient>
        <linearGradient x1="3.061617e-15%" y1="50%" x2="100%" y2="50%" id="linearGradient-8">
            <stop stop-color="#FFD2BB" offset="0%"></stop>
            <stop stop-color="#FFFFFF" offset="100%"></stop>
        </linearGradient>
        <path d="M22.6944444,41.1534879 C26.6377575,42.5460534 29.462963,46.3035482 29.462963,50.720339 C29.462963,56.3227529 24.9174095,60.8644068 19.3101852,60.8644068 C13.7029609,60.8644068 9.15740741,56.3227529 9.15740741,50.720339 C9.15740741,46.3035482 11.9826128,42.5460534 15.9259259,41.1534879 L15.9259259,11.6215474 C15.9259259,9.75247262 17.4411104,8.23728814 19.3101852,8.23728814 C21.17926,8.23728814 22.6944444,9.75247262 22.6944444,11.6215474 L22.6944444,41.1534879 Z" id="path-9"></path>
        <filter x="-12.3%" y="-4.8%" width="124.6%" height="109.5%" filterUnits="objectBoundingBox" id="filter-10">
            <feGaussianBlur stdDeviation="2.5" in="SourceAlpha" result="shadowBlurInner1"></feGaussianBlur>
            <feOffset dx="0" dy="0" in="shadowBlurInner1" result="shadowOffsetInner1"></feOffset>
            <feComposite in="shadowOffsetInner1" in2="SourceAlpha" operator="arithmetic" k2="-1" k3="1" result="shadowInnerInner1"></feComposite>
            <feColorMatrix values="0 0 0 0 0.996078431   0 0 0 0 0.525490196   0 0 0 0 0.298039216  0 0 0 1 0" type="matrix" in="shadowInnerInner1"></feColorMatrix>
        </filter>
    </defs>
    <g id="00-快速通道" stroke="none" stroke-width="1" fill="none" fill-rule="evenodd" transform="translate(-13.000000, -76.000000)">
        <g id="发热" transform="translate(25.000000, 84.000000)">
            <g id="Group-2">
                <g id="Rectangle-2-+-Rectangle-2-Mask">
                    <mask id="mask-3" fill="white">
                        <use xlink:href="#path-2"></use>
                    </mask>
                    <g id="Mask">
                        <use fill="black" fill-opacity="1" filter="url(#filter-4)" xlink:href="#path-2"></use>
                        <use fill="url(#linearGradient-1)" fill-rule="evenodd" xlink:href="#path-2"></use>
                    </g>
                    <path d="M27.6892915,47.1355728 C45.3359164,26.1807655 64.3832227,17.0189599 84.8312104,19.6501558 C115.503192,23.5969498 86.2601476,53.0468058 115.503192,52.6195086 C144.746236,52.1922114 161.04464,61.817597 144.746236,77.9373004 C128.447833,94.0570038 63.1566894,108.418988 36.0276418,92.3719882 C17.9416101,81.6739885 15.16216,66.5951834 27.6892915,47.1355728 Z" id="Path-11" fill="url(#linearGradient-5)" mask="url(#mask-3)" transform="translate(85.603145, 59.296149) rotate(-7.000000) translate(-85.603145, -59.296149) "></path>
                    <rect id="Rectangle-2" fill="url(#linearGradient-6)" opacity="0.200000003" mask="url(#mask-3)" transform="translate(163.228445, -13.502525) rotate(-315.000000) translate(-163.228445, 13.502525) " x="82" y="-90" width="162.45689" height="152.994949"></rect>
                    <rect id="Rectangle-2" fill="url(#linearGradient-6)" opacity="0.400000006" mask="url(#mask-3)" transform="translate(341.091883, 41.908117) rotate(-315.000000) translate(-341.091883, -41.908117) " x="323.591883" y="-34.5893578" width="35" height="152.994949"></rect>
                    <rect id="Rectangle-2" fill="url(#linearGradient-6)" opacity="0.200000003" mask="url(#mask-3)" transform="translate(290.920310, 25.920310) scale(-1, 1) rotate(-315.000000) translate(-290.920310, -25.920310) " x="273.42031" y="-61.118795" width="35" height="174.07821"></rect>
                    <rect id="Rectangle-2" fill="url(#linearGradient-6)" opacity="0.300000012" mask="url(#mask-3)" transform="translate(226.153436, 118.779067) scale(-1, 1) rotate(-135.000000) translate(-226.153436, -118.779067) " x="165.784641" y="42.2815927" width="120.73759" height="152.994949"></rect>
                    <ellipse id="Oval" fill="url(#linearGradient-7)" mask="url(#mask-3)" transform="translate(134.521885, 32.466519) rotate(-13.000000) translate(-134.521885, -32.466519) " cx="134.521885" cy="32.4665188" rx="7.45401864" ry="5.88475156"></ellipse>
                </g>
                <g id="Group" transform="translate(59.000000, 10.000000)">
                    <rect id="Rectangle-28-Copy-2" fill="url(#linearGradient-8)" x="22.6944444" y="18.0338983" width="13.537037" height="4.50847458" rx="2.25423729"></rect>
                    <rect id="Rectangle-28-Copy" fill="url(#linearGradient-8)" x="24.9506173" y="9.01694915" width="18.0493827" height="4.50847458" rx="2.25423729"></rect>
                    <rect id="Rectangle-28-Copy" fill="url(#linearGradient-8)" x="24.9506173" y="27.0508475" width="18.0493827" height="4.50847458" rx="2.25423729"></rect>
                    <path d="M30.129974,35.2912453 C33.0255074,37.2403551 35.3541857,39.9577744 36.819241,43.1487238 C37.9198452,45.5458842 38.5330572,48.2102849 38.5330572,51.0169492 C38.5330572,61.5009986 29.9767213,70 19.4219461,70 C8.86717085,70 0.310834958,61.5009986 0.310834958,51.0169492 C0.310834958,44.4742296 3.64315194,38.7045992 8.71391815,35.2912453 C8.68613356,34.9761193 8.67194607,34.6570894 8.67194607,34.3347458 L8.67194607,10.75 C8.67194607,4.81293894 13.484885,1.09062042e-15 19.4219461,0 C25.3590071,-1.09062042e-15 30.1719461,4.81293894 30.1719461,10.75 L30.1719461,34.3347458 C30.1719461,34.6570894 30.1577586,34.9761193 30.129974,35.2912453 Z" id="Combined-Shape" fill="#FFFFFF"></path>
                    <g id="Combined-Shape">
                        <use fill="#FE874D" fill-rule="evenodd" xlink:href="#path-9"></use>
                        <use fill="black" fill-opacity="1" filter="url(#filter-10)" xlink:href="#path-9"></use>
                    </g>
                    <path d="M19.3101852,45.0847458 C16.1950606,45.0847458 13.6697531,47.6078868 13.6697531,50.720339" id="Oval" stroke="#FEC6A8" stroke-width="2.24105461" stroke-linecap="round"></path>
                </g>
            </g>
        </g>
    </g>
</svg>