<?xml version="1.0" encoding="UTF-8" standalone="no"?>
<svg width="18px" height="18px" viewBox="0 0 18 18" version="1.1" xmlns="http://www.w3.org/2000/svg" xmlns:xlink="http://www.w3.org/1999/xlink">
    <!-- Generator: Sketch 48.1 (47250) - http://www.bohemiancoding.com/sketch -->
    <title>Overrides/hospital/icon2</title>
    <desc>Created with Sketch.</desc>
    <defs>
        <linearGradient x1="-2.48949813e-15%" y1="50%" x2="100%" y2="50%" id="linearGradient-1">
            <stop stop-color="#FF6D8C" offset="0%"></stop>
            <stop stop-color="#FF4965" offset="100%"></stop>
        </linearGradient>
    </defs>
    <g id="Symbols" stroke="none" stroke-width="1" fill="none" fill-rule="evenodd">
        <g id="Overrides/hospital/icon2" fill="url(#linearGradient-1)">
            <path d="M4,1 L14,1 C15.1045695,1 16,1.8954305 16,3 L16,15 C16,16.1045695 15.1045695,17 14,17 L4,17 C2.8954305,17 2,16.1045695 2,15 L2,3 C2,1.8954305 2.8954305,1 4,1 Z M5,3 C4.44771525,3 4,3.44771525 4,4 L4,14 C4,14.5522847 4.44771525,15 5,15 L13,15 C13.5522847,15 14,14.5522847 14,14 L14,4 C14,3.44771525 13.5522847,3 13,3 L5,3 Z M7,10 L11,10 C11.5522847,10 12,10.4477153 12,11 C12,11.5522847 11.5522847,12 11,12 L7,12 C6.44771525,12 6,11.5522847 6,11 C6,10.4477153 6.44771525,10 7,10 Z M7,6 L11,6 C11.5522847,6 12,6.44771525 12,7 C12,7.55228475 11.5522847,8 11,8 L7,8 C6.44771525,8 6,7.55228475 6,7 C6,6.44771525 6.44771525,6 7,6 Z" id="Combined-Shape"></path>
        </g>
    </g>
</svg>