<?xml version="1.0" encoding="UTF-8" standalone="no"?>
<svg width="18px" height="18px" viewBox="0 0 18 18" version="1.1" xmlns="http://www.w3.org/2000/svg" xmlns:xlink="http://www.w3.org/1999/xlink">
    <!-- Generator: Sketch 48.1 (47250) - http://www.bohemiancoding.com/sketch -->
    <title>Overrides/hospital/icon1</title>
    <desc>Created with Sketch.</desc>
    <defs>
        <linearGradient x1="-2.48949813e-15%" y1="50%" x2="100%" y2="50%" id="linearGradient-1">
            <stop stop-color="#FF6D8C" offset="0%"></stop>
            <stop stop-color="#FF4965" offset="100%"></stop>
        </linearGradient>
    </defs>
    <g id="Symbols" stroke="none" stroke-width="1" fill="none" fill-rule="evenodd">
        <g id="Overrides/hospital/icon1" fill="url(#linearGradient-1)">
            <path d="M14,3 L15,3 C16.1045695,3 17,3.8954305 17,5 L17,15 C17,16.1045695 16.1045695,17 15,17 L3,17 C1.8954305,17 1,16.1045695 1,15 L1,5 C1,3.8954305 1.8954305,3 3,3 L4,3 L4,2 C4,1.44771525 4.44771525,1 5,1 C5.55228475,1 6,1.44771525 6,2 L6,3 L12,3 L12,2 C12,1.44771525 12.4477153,1 13,1 C13.5522847,1 14,1.44771525 14,2 L14,3 Z M4,7 C3.44771525,7 3,7.44771525 3,8 L3,14 C3,14.5522847 3.44771525,15 4,15 L14,15 C14.5522847,15 15,14.5522847 15,14 L15,8 C15,7.44771525 14.5522847,7 14,7 L4,7 Z M10,9 L12,9 C12.5522847,9 13,9.44771525 13,10 L13,12 C13,12.5522847 12.5522847,13 12,13 L10,13 C9.44771525,13 9,12.5522847 9,12 L9,10 C9,9.44771525 9.44771525,9 10,9 Z" id="Combined-Shape"></path>
        </g>
    </g>
</svg>