<?xml version="1.0" encoding="UTF-8" standalone="no"?>
<svg width="18px" height="18px" viewBox="0 0 18 18" version="1.1" xmlns="http://www.w3.org/2000/svg" xmlns:xlink="http://www.w3.org/1999/xlink">
    <!-- Generator: Sketch 48.1 (47250) - http://www.bohemiancoding.com/sketch -->
    <title>Overrides/hospital/icon3</title>
    <desc>Created with Sketch.</desc>
    <defs>
        <linearGradient x1="-2.48949813e-15%" y1="50%" x2="100%" y2="50%" id="linearGradient-1">
            <stop stop-color="#FF6D8C" offset="0%"></stop>
            <stop stop-color="#FF4965" offset="100%"></stop>
        </linearGradient>
    </defs>
    <g id="Symbols" stroke="none" stroke-width="1" fill="none" fill-rule="evenodd">
        <g id="Overrides/hospital/icon3" fill="url(#linearGradient-1)">
            <path d="M8,11 L7,11 C6.44771525,11 6,11.4477153 6,12 C6,12.5522847 6.44771525,13 7,13 L8,13 L8,14 C8,14.5522847 8.44771525,15 9,15 C9.55228475,15 10,14.5522847 10,14 L10,13 L11,13 C11.5522847,13 12,12.5522847 12,12 C12,11.4477153 11.5522847,11 11,11 L10,11 L10,10 C10,9.44771525 9.55228475,9 9,9 C8.44771525,9 8,9.44771525 8,10 L8,11 Z M4,1 L14,1 C15.1045695,1 16,1.8954305 16,3 L16,15 C16,16.1045695 15.1045695,17 14,17 L4,17 C2.8954305,17 2,16.1045695 2,15 L2,3 C2,1.8954305 2.8954305,1 4,1 Z M5,3 C4.44771525,3 4,3.44771525 4,4 L4,6 C4,6.55228475 4.44771525,7 5,7 L13,7 C13.5522847,7 14,6.55228475 14,6 L14,4 C14,3.44771525 13.5522847,3 13,3 L5,3 Z" id="Combined-Shape"></path>
        </g>
    </g>
</svg>