<?xml version="1.0" encoding="UTF-8" standalone="no"?>
<svg width="35px" height="35px" viewBox="0 0 35 35" version="1.1" xmlns="http://www.w3.org/2000/svg" xmlns:xlink="http://www.w3.org/1999/xlink">
    <!-- Generator: Sketch 48.1 (47250) - http://www.bohemiancoding.com/sketch -->
    <title>home/icon_5</title>
    <desc>Created with Sketch.</desc>
    <defs></defs>
    <g id="Symbols" stroke="none" stroke-width="1" fill="none" fill-rule="evenodd">
        <g id="home/icon_5">
            <path d="M16.5973697,31.7120442 L10.9284805,32.9051533 C8.54658926,33.4064606 6.21164003,31.8707396 5.71322536,29.4750244 C5.68362129,29.3327274 5.66099657,29.1890514 5.64543325,29.0445177 L5.02181662,23.2531018 C4.95634118,22.6450432 4.76644072,22.0571976 4.46406592,21.526559 L1.58411633,16.472525 C0.374050956,14.348977 1.10464154,11.640856 3.21593608,10.4237677 C3.3413395,10.3514769 3.47020355,10.2854364 3.6020608,10.2258855 L8.88553375,7.83970267 C9.4402619,7.58916997 9.93742775,7.22586143 10.345744,6.77264051 L14.2347265,2.45596671 C15.8687562,0.642234448 18.6552352,0.50424468 20.4585017,2.14775794 C20.5656093,2.24537681 20.6678764,2.34823744 20.764932,2.45596671 L24.6539145,6.77264051 C25.0622308,7.22586143 25.5593966,7.58916997 26.1141248,7.83970267 L31.3975977,10.2258855 C33.617549,11.2284854 34.6090972,13.8513239 33.6122826,16.0841593 C33.5530753,16.2167818 33.4874158,16.3463938 33.4155422,16.472525 L30.5355926,21.526559 C30.2332178,22.0571976 30.0433174,22.6450432 29.9778419,23.2531018 L29.3542253,29.0445177 C29.0922009,31.4778908 26.9185324,33.2368839 24.4992006,32.9733388 C24.3555009,32.9576852 24.212654,32.9349291 24.0711781,32.9051533 L18.4022889,31.7120442 C17.8070947,31.586776 17.1925639,31.586776 16.5973697,31.7120442 Z" id="Star-3" fill="#01C878" opacity="0.800000012"></path>
            <path d="M16.5973697,30.7120442 L10.9284805,31.9051533 C8.54658926,32.4064606 6.21164003,30.8707396 5.71322536,28.4750244 C5.68362129,28.3327274 5.66099657,28.1890514 5.64543325,28.0445177 L5.02181662,22.2531018 C4.95634118,21.6450432 4.76644072,21.0571976 4.46406592,20.526559 L1.58411633,15.472525 C0.374050956,13.348977 1.10464154,10.640856 3.21593608,9.42376768 C3.3413395,9.35147694 3.47020355,9.28543635 3.6020608,9.22588547 L8.88553375,6.83970267 C9.4402619,6.58916997 9.93742775,6.22586143 10.345744,5.77264051 L14.2347265,1.45596671 C15.8687562,-0.357765552 18.6552352,-0.49575532 20.4585017,1.14775794 C20.5656093,1.24537681 20.6678764,1.34823744 20.764932,1.45596671 L24.6539145,5.77264051 C25.0622308,6.22586143 25.5593966,6.58916997 26.1141248,6.83970267 L31.3975977,9.22588547 C33.617549,10.2284854 34.6090972,12.8513239 33.6122826,15.0841593 C33.5530753,15.2167818 33.4874158,15.3463938 33.4155422,15.472525 L30.5355926,20.526559 C30.2332178,21.0571976 30.0433174,21.6450432 29.9778419,22.2531018 L29.3542253,28.0445177 C29.0922009,30.4778908 26.9185324,32.2368839 24.4992006,31.9733388 C24.3555009,31.9576852 24.212654,31.9349291 24.0711781,31.9051533 L18.4022889,30.7120442 C17.8070947,30.586776 17.1925639,30.586776 16.5973697,30.7120442 Z" id="Star-3" fill="#01C878" opacity="0.200000003" transform="translate(17.500000, 16.000000) rotate(-330.000000) translate(-17.500000, -16.000000) "></path>
            <text id="全" font-family="HannotateSC-W7, Hannotate SC" font-size="20" font-weight="bold" fill="#FFFFFF">
                <tspan x="8" y="24">全</tspan>
            </text>
        </g>
    </g>
</svg>