<?xml version="1.0" encoding="UTF-8" standalone="no"?>
<svg width="349px" height="114px" viewBox="0 0 349 114" version="1.1" xmlns="http://www.w3.org/2000/svg" xmlns:xlink="http://www.w3.org/1999/xlink">
    <!-- Generator: Sketch 48.1 (47250) - http://www.bohemiancoding.com/sketch -->
    <title>肠道</title>
    <desc>Created with Sketch.</desc>
    <defs>
        <linearGradient x1="100%" y1="50%" x2="3.061617e-15%" y2="50%" id="linearGradient-1">
            <stop stop-color="#23C3F3" offset="0%"></stop>
            <stop stop-color="#2C81FF" offset="100%"></stop>
        </linearGradient>
        <path d="M14,0 L311,1.77635684e-15 C318.731986,3.56013962e-16 325,6.2680135 325,14 L325,76 C325,83.7319865 318.731986,90 311,90 L14,90 C6.2680135,90 2.72325209e-15,83.7319865 1.77635684e-15,76 L1.77635684e-15,14 C8.29461588e-16,6.2680135 6.2680135,3.19669972e-15 14,1.77635684e-15 Z" id="path-2"></path>
        <filter x="-6.2%" y="-17.8%" width="112.3%" height="144.4%" filterUnits="objectBoundingBox" id="filter-4">
            <feOffset dx="0" dy="4" in="SourceAlpha" result="shadowOffsetOuter1"></feOffset>
            <feGaussianBlur stdDeviation="6" in="shadowOffsetOuter1" result="shadowBlurOuter1"></feGaussianBlur>
            <feColorMatrix values="0 0 0 0 0.164705882   0 0 0 0 0.668781969   0 0 0 0 0.988235294  0 0 0 0.5 0" type="matrix" in="shadowBlurOuter1"></feColorMatrix>
        </filter>
        <linearGradient x1="-34.6718532%" y1="57.5280996%" x2="100%" y2="50%" id="linearGradient-5">
            <stop stop-color="#23C3F3" offset="0%"></stop>
            <stop stop-color="#2C81FF" offset="100%"></stop>
        </linearGradient>
        <path d="M27.6892915,52.1355728 C45.3359164,31.1807655 64.3832227,22.0189599 84.8312104,24.6501558 C115.503192,28.5969498 86.2601476,58.0468058 115.503192,57.6195086 C144.746236,57.1922114 161.04464,66.817597 144.746236,82.9373004 C128.447833,99.0570038 63.1566894,113.418988 36.0276418,97.3719882 C17.9416101,86.6739885 15.16216,71.5951834 27.6892915,52.1355728 Z" id="path-6"></path>
        <filter x="-25.2%" y="-26.2%" width="150.3%" height="182.3%" filterUnits="objectBoundingBox" id="filter-7">
            <feOffset dx="0" dy="12" in="SourceAlpha" result="shadowOffsetOuter1"></feOffset>
            <feGaussianBlur stdDeviation="9" in="shadowOffsetOuter1" result="shadowBlurOuter1"></feGaussianBlur>
            <feColorMatrix values="0 0 0 0 0.164705882   0 0 0 0 0.668781969   0 0 0 0 0.988235294  0 0 0 0.5 0" type="matrix" in="shadowBlurOuter1"></feColorMatrix>
        </filter>
        <ellipse id="path-8" cx="134.521885" cy="37.4665188" rx="7.45401864" ry="5.88475156"></ellipse>
        <filter x="-221.4%" y="-178.4%" width="542.7%" height="660.8%" filterUnits="objectBoundingBox" id="filter-9">
            <feOffset dx="0" dy="12" in="SourceAlpha" result="shadowOffsetOuter1"></feOffset>
            <feGaussianBlur stdDeviation="9" in="shadowOffsetOuter1" result="shadowBlurOuter1"></feGaussianBlur>
            <feColorMatrix values="0 0 0 0 0.164705882   0 0 0 0 0.668781969   0 0 0 0 0.988235294  0 0 0 0.5 0" type="matrix" in="shadowBlurOuter1"></feColorMatrix>
        </filter>
        <linearGradient x1="50%" y1="0%" x2="50%" y2="100%" id="linearGradient-10">
            <stop stop-color="#FFFFFF" offset="0%"></stop>
            <stop stop-color="#FFFFFF" stop-opacity="0" offset="100%"></stop>
        </linearGradient>
        <linearGradient x1="-0.152060016%" y1="38.6485345%" x2="100.15206%" y2="38.6485345%" id="linearGradient-11">
            <stop stop-color="#9BD6FF" offset="0%"></stop>
            <stop stop-color="#72ABFF" offset="100%"></stop>
        </linearGradient>
        <linearGradient x1="100.15206%" y1="38.6485345%" x2="-0.152060016%" y2="38.6485345%" id="linearGradient-12">
            <stop stop-color="#9BD6FF" offset="0%"></stop>
            <stop stop-color="#72ABFF" offset="100%"></stop>
        </linearGradient>
    </defs>
    <g id="00-快速通道" stroke="none" stroke-width="1" fill="none" fill-rule="evenodd" transform="translate(-13.000000, -188.000000)">
        <g id="肠道" transform="translate(25.000000, 196.000000)">
            <g id="Rectangle-2-+-Rectangle-2-Mask">
                <g>
                    <mask id="mask-3" fill="white">
                        <use xlink:href="#path-2"></use>
                    </mask>
                    <g id="Mask">
                        <use fill="black" fill-opacity="1" filter="url(#filter-4)" xlink:href="#path-2"></use>
                        <use fill="url(#linearGradient-1)" fill-rule="evenodd" xlink:href="#path-2"></use>
                    </g>
                    <g id="Path-11" mask="url(#mask-3)" transform="translate(85.603145, 64.296149) rotate(-7.000000) translate(-85.603145, -64.296149) ">
                        <use fill="black" fill-opacity="1" filter="url(#filter-7)" xlink:href="#path-6"></use>
                        <use fill="url(#linearGradient-5)" fill-rule="evenodd" xlink:href="#path-6"></use>
                    </g>
                    <g id="Oval" mask="url(#mask-3)" transform="translate(134.521885, 37.466519) rotate(-13.000000) translate(-134.521885, -37.466519) ">
                        <use fill="black" fill-opacity="1" filter="url(#filter-9)" xlink:href="#path-8"></use>
                        <use fill="url(#linearGradient-1)" fill-rule="evenodd" xlink:href="#path-8"></use>
                    </g>
                    <rect id="Rectangle-2" fill="url(#linearGradient-10)" opacity="0.200000003" mask="url(#mask-3)" transform="translate(163.228445, -13.502525) rotate(-315.000000) translate(-163.228445, 13.502525) " x="82" y="-90" width="162.45689" height="152.994949"></rect>
                    <rect id="Rectangle-2" fill="url(#linearGradient-10)" opacity="0.400000006" mask="url(#mask-3)" transform="translate(341.091883, 41.908117) rotate(-315.000000) translate(-341.091883, -41.908117) " x="323.591883" y="-34.5893578" width="35" height="152.994949"></rect>
                    <rect id="Rectangle-2" fill="url(#linearGradient-10)" opacity="0.200000003" mask="url(#mask-3)" transform="translate(290.920310, 25.920310) scale(-1, 1) rotate(-315.000000) translate(-290.920310, -25.920310) " x="273.42031" y="-61.118795" width="35" height="174.07821"></rect>
                    <rect id="Rectangle-2" fill="url(#linearGradient-10)" opacity="0.300000012" mask="url(#mask-3)" transform="translate(226.153436, 118.779067) scale(-1, 1) rotate(-135.000000) translate(-226.153436, -118.779067) " x="165.784641" y="42.2815927" width="120.73759" height="152.994949"></rect>
                </g>
                <path d="M93.0343141,51 L92.9656859,51 C91.9625507,51.6334286 90.774084,52 89.5,52 C88.225916,52 87.0374493,51.6334286 86.0343141,51 L85.9656859,51 C84.9625507,51.6334286 83.774084,52 82.5,52 C81.225916,52 80.0374493,51.6334286 79.0343141,51 L78.9656859,51 C77.9625507,51.6334286 76.774084,52 75.5,52 C74.225916,52 73.0374493,51.6334286 72.0343141,51 L69.5660377,51 C67.035893,51 65,53.0231687 65,55.5 C65,57.3351944 66.1177026,58.9213286 67.7260027,59.6199629 C68.5673288,59.222357 69.5076973,59 70.5,59 C71.774084,59 72.9625507,59.3665714 73.9656859,60 L74.0343141,60 C75.0374493,59.3665714 76.225916,59 77.5,59 C78.774084,59 79.9625507,59.3665714 80.9656859,60 L81.0343141,60 C82.0374493,59.3665714 83.225916,59 84.5,59 C85.774084,59 86.9625507,59.3665714 87.9656859,60 L99,60 C102.313708,60 105,62.6862915 105,66 C105,69.3137085 102.313708,72 99,72 L90.9656859,72 C89.9625507,72.6334286 88.774084,73 87.5,73 C86.225916,73 85.0374493,72.6334286 84.0343141,72 L83.9656859,72 C82.9625507,72.6334286 81.774084,73 80.5,73 C79.225916,73 78.0374493,72.6334286 77.0343141,72 L76.9656859,72 C75.9625507,72.6334286 74.774084,73 73.5,73 C72.225916,73 71.0374493,72.6334286 70.0343141,72 L69.5660377,72 C60.4252594,72 53,64.6211484 53,55.5 C53,46.561025 60.1316173,39.2954454 69.0204397,39.0087855 C70.0264832,38.3699621 71.220037,38 72.5,38 C73.774084,38 74.9625507,38.3665714 75.9656859,39 L76.0343141,39 C77.0374493,38.3665714 78.225916,38 79.5,38 C80.774084,38 81.9625507,38.3665714 82.9656859,39 L83.0343141,39 C84.0374493,38.3665714 85.225916,38 86.5,38 C87.774084,38 88.9625507,38.3665714 89.9656859,39 L90.0343141,39 C91.0374493,38.3665714 92.225916,38 93.5,38 C94.774084,38 95.9625507,38.3665714 96.9656859,39 L97.0343141,39 C98.0374493,38.3665714 99.225916,38 100.5,38 C101.756794,38 102.930278,38.3566895 103.924743,38.9743591 C106.222282,38.7327947 108,36.8144638 108,34.5 C108,32.4467986 106.600976,30.7053448 104.681118,30.1697023 C103.740783,30.6984328 102.655609,31 101.5,31 C100.225916,31 99.0374493,30.6334286 98.0343141,30 L97.9656859,30 C96.9625507,30.6334286 95.774084,31 94.5,31 C93.225916,31 92.0374493,30.6334286 91.0343141,30 L90.9656859,30 C89.9625507,30.6334286 88.774084,31 87.5,31 C86.225916,31 85.0374493,30.6334286 84.0343141,30 L74,30 C70.6862915,30 68,27.3137085 68,24 C68,20.6862915 70.6862915,18 74,18 L81.0343141,18 C82.0374493,17.3665714 83.225916,17 84.5,17 C85.774084,17 86.9625507,17.3665714 87.9656859,18 L88.0343141,18 C89.0374493,17.3665714 90.225916,17 91.5,17 C92.774084,17 93.9625507,17.3665714 94.9656859,18 L95.0343141,18 C96.0374493,17.3665714 97.225916,17 98.5,17 C99.774084,17 100.962551,17.3665714 101.965686,18 L103.433962,18 C112.574741,18 120,25.3788516 120,34.5 C120,43.6211484 112.574741,51 103.433962,51 L99.9656859,51 C98.9625507,51.6334286 97.774084,52 96.5,52 C95.225916,52 94.0374493,51.6334286 93.0343141,51 Z" id="Combined-Shape" fill="#FFFFFF" fill-rule="nonzero"></path>
                <circle id="Oval-2" fill="url(#linearGradient-11)" cx="73" cy="24" r="6"></circle>
                <circle id="Oval-2-Copy" fill="url(#linearGradient-12)" cx="101" cy="66" r="6"></circle>
            </g>
        </g>
    </g>
</svg>