<?xml version="1.0" encoding="UTF-8" standalone="no"?>
<svg width="7px" height="10px" viewBox="0 0 7 10" version="1.1" xmlns="http://www.w3.org/2000/svg" xmlns:xlink="http://www.w3.org/1999/xlink">
    <!-- Generator: Sketch 48.1 (47250) - http://www.bohemiancoding.com/sketch -->
    <title>03 客服</title>
    <desc>Created with Sketch.</desc>
    <defs>
        <linearGradient x1="-2.48949813e-15%" y1="50%" x2="100%" y2="50%" id="linearGradient-1">
            <stop stop-color="#53DB92" offset="0%"></stop>
            <stop stop-color="#28CCC1" offset="100%"></stop>
        </linearGradient>
    </defs>
    <g id="03-客服" stroke="none" stroke-width="1" fill="none" fill-rule="evenodd" transform="translate(-310.000000, -561.000000)">
        <path d="M157.197331,570.666667 L151.445406,566.83205 C150.985877,566.525698 150.861704,565.904828 151.168056,565.4453 C151.241291,565.335448 151.335554,565.241185 151.445406,565.16795 L157.197331,561.333333 L157.197331,553 C157.197331,548.581722 160.779053,545 165.197331,545 L308,545 C312.418278,545 316,548.581722 316,553 L316,577 C316,581.418278 312.418278,585 308,585 L165.197331,585 C160.779053,585 157.197331,581.418278 157.197331,577 L157.197331,570.666667 Z" id="Combined-Shape-Copy" fill="url(#linearGradient-1)" transform="translate(233.500000, 565.000000) scale(-1, 1) translate(-233.500000, -565.000000) "></path>
    </g>
</svg>