<?xml version="1.0" encoding="UTF-8" standalone="no"?>
<svg width="92px" height="92px" viewBox="0 0 92 92" version="1.1" xmlns="http://www.w3.org/2000/svg" xmlns:xlink="http://www.w3.org/1999/xlink">
    <!-- Generator: Sketch 48.1 (47250) - http://www.bohemiancoding.com/sketch -->
    <title>护士</title>
    <desc>Created with Sketch.</desc>
    <defs>
        <linearGradient x1="59.272057%" y1="100%" x2="26.5171335%" y2="47.9112972%" id="linearGradient-1">
            <stop stop-color="#70728B" offset="0%"></stop>
            <stop stop-color="#3D3E53" offset="100%"></stop>
        </linearGradient>
        <linearGradient x1="-2.48949813e-15%" y1="50%" x2="117.543647%" y2="36.7654934%" id="linearGradient-2">
            <stop stop-color="#D8FFF1" offset="0%"></stop>
            <stop stop-color="#9FFFBE" offset="100%"></stop>
        </linearGradient>
        <linearGradient x1="-2.48949813e-15%" y1="50%" x2="100%" y2="50%" id="linearGradient-3">
            <stop stop-color="#65D599" offset="0%"></stop>
            <stop stop-color="#38C4BB" offset="100%"></stop>
        </linearGradient>
        <linearGradient x1="91.5207987%" y1="102.569892%" x2="95.5461896%" y2="35.5006273%" id="linearGradient-4">
            <stop stop-color="#EFFFF9" offset="0%"></stop>
            <stop stop-color="#5BE89C" offset="100%"></stop>
        </linearGradient>
        <linearGradient x1="100%" y1="28.1531271%" x2="21.7815781%" y2="68.2534385%" id="linearGradient-5">
            <stop stop-color="#70728B" offset="0%"></stop>
            <stop stop-color="#3D3E53" offset="100%"></stop>
        </linearGradient>
        <linearGradient x1="-2.48949813e-15%" y1="50%" x2="117.543647%" y2="36.7654934%" id="linearGradient-6">
            <stop stop-color="#FBFEFF" offset="0%"></stop>
            <stop stop-color="#D8FFF1" offset="37.3728329%"></stop>
            <stop stop-color="#9FFFBE" offset="100%"></stop>
        </linearGradient>
    </defs>
    <g id="3" stroke="none" stroke-width="1" fill="none" fill-rule="evenodd" transform="translate(-142.000000, -251.000000)">
        <g id="护士" transform="translate(143.000000, 252.000000)">
            <circle id="Oval-14-Copy-2" stroke="#D2D2D2" cx="45" cy="45" r="45"></circle>
            <g id="Rectangle-+-Rectangle-2-+-Rectangle-3-+-Oval-+-Oval-Copy-Mask-Copy-Copy" transform="translate(21.000000, 9.000000)">
                <g id="Group-3" transform="translate(0.109714, 0.000000)">
                    <path d="M9.87428571,36.7759563 C8.23826049,36.7759563 6.912,35.4548293 6.912,33.8251366 C6.912,32.1954439 8.23826049,30.8743169 9.87428571,30.8743169 C11.5103109,30.8743169 12.8365714,32.1954439 12.8365714,33.8251366 C12.8365714,35.4548293 11.5103109,36.7759563 9.87428571,36.7759563 Z M37.5222857,36.7759563 C35.8862605,36.7759563 34.56,35.4548293 34.56,33.8251366 C34.56,32.1954439 35.8862605,30.8743169 37.5222857,30.8743169 C39.1583109,30.8743169 40.4845714,32.1954439 40.4845714,33.8251366 C40.4845714,35.4548293 39.1583109,36.7759563 37.5222857,36.7759563 Z" id="Combined-Shape" fill="#FFE2BC"></path>
                    <rect id="Rectangle-38" fill="#FFE2BC" x="18.7611429" y="44.6448087" width="9.87428571" height="10.8196721"></rect>
                    <path d="M20.8086208,18.2262768 C9.13080639,24.5763055 6.85600042,33.3155168 13.9842029,44.4439108 C13.4187893,44.6363416 11.7358991,44.6423563 11.0110489,44.4439108 C5.26187455,42.5977679 0.462421708,28.6067244 6.34895586,17.6433468 C7.32281947,15.8295742 8.05297641,15.9229287 9.86718232,14.8853026 C16.654298,11.003445 20.3014442,12.1171031 20.8086208,18.2262768 Z" id="Path-7" fill="url(#linearGradient-1)"></path>
                    <path d="M42.5259898,18.2262768 C30.8806774,24.5763055 28.6221224,33.3155168 35.7503249,44.4439108 C35.1849113,44.6363416 33.4532681,44.6423563 32.728418,44.4439108 C26.8548743,42.5578311 22.7965903,25.4344352 29.8485678,15.293202 C30.8464882,13.8581232 29.9513335,15.8194135 31.5845514,14.8853026 C38.3716671,11.003445 42.0188133,12.1171031 42.5259898,18.2262768 Z" id="Path-7-Copy" fill="url(#linearGradient-1)" transform="translate(34.318995, 28.606724) scale(-1, 1) translate(-34.318995, -28.606724) "></path>
                    <path d="M15.7988571,17.2131148 L31.5977143,17.2131148 C34.8697647,17.2131148 37.5222857,19.8656357 37.5222857,23.1376862 L37.5222857,32.7880219 C37.5222857,40.4228062 31.3330701,46.6120219 23.6982857,46.6120219 L23.6982857,46.6120219 C16.0635013,46.6120219 9.87428571,40.4228062 9.87428571,32.7880219 L9.87428571,23.1376862 C9.87428571,19.8656357 12.5268067,17.2131148 15.7988571,17.2131148 Z" id="Combined-Shape" fill="#FFEED5"></path>
                    <path d="M10.296676,2.14561686 C13.933722,0.71520562 18.4442095,4.15981432e-16 23.8281384,0 C29.1752739,0 33.5723396,0.705463699 37.0193356,2.1163911 L37.0193381,2.11638486 C38.1512157,2.579686 38.7238697,3.84663232 38.3237906,5.00237087 L36.197707,11.1441594 C35.6539421,12.714974 33.9593512,13.568322 32.3735704,13.0698865 C29.8029841,12.2619111 26.9545068,11.8579235 23.8281384,11.8579235 C20.6304062,11.8579235 17.6526824,12.2805648 14.8949671,13.1258475 L14.8949684,13.1258518 C13.313788,13.6105082 11.6326954,12.7564475 11.091704,11.1936451 L8.96269404,5.04346156 C8.55858909,3.87609327 9.14705644,2.59774994 10.296676,2.14561686 Z" id="Rectangle-2" fill="url(#linearGradient-2)"></path>
                    <path d="M23.0429727,3.44262295 L23.0429727,2.2846776 C23.0429727,1.86216467 23.3854871,1.51965027 23.808,1.51965027 C24.2305129,1.51965027 24.5730273,1.86216467 24.5730273,2.2846776 L24.5730273,3.44262295 L25.7309727,3.44262295 C26.1534856,3.44262295 26.496,3.78513735 26.496,4.20765027 C26.496,4.6301632 26.1534856,4.9726776 25.7309727,4.9726776 L24.5730273,4.9726776 L24.5730273,6.13062295 C24.5730273,6.55313587 24.2305129,6.89565027 23.808,6.89565027 C23.3854871,6.89565027 23.0429727,6.55313587 23.0429727,6.13062295 L23.0429727,4.9726776 L21.8850273,4.9726776 C21.4625144,4.9726776 21.12,4.6301632 21.12,4.20765027 C21.12,3.78513735 21.4625144,3.44262295 21.8850273,3.44262295 L23.0429727,3.44262295 Z" id="Combined-Shape" fill="#FFFFFF"></path>
                    <path d="M23.7424378,68.3349976 L30.424265,48.3592585 L27.7581028,50.3214458 C25.3603563,52.0860901 22.1020861,52.117189 19.6710939,50.3986331 L16.7862857,48.3592585 L23.7424378,68.3349976 Z" id="Path-5" fill="url(#linearGradient-3)"></path>
                    <path d="M22.7067408,69.8154869 L5.92457143,69.8154869 C2.65252098,69.8154869 0,67.1732329 0,63.9138475 C0,54.1352065 7.16251684,49.1216536 16.5466463,48.2170896 C20.3273996,53.353018 22.7108571,60.8565668 22.7108571,69.214394 C22.7108571,69.4152587 22.7094805,69.61563 22.7067408,69.8154869 Z" id="Combined-Shape" fill="url(#linearGradient-4)"></path>
                    <path d="M31.6374405,27.1252764 C38.0402403,26.7151186 41.1819918,20.5939238 41.0626948,8.76169199 C38.1717929,9.92917042 39.2326795,8.71901882 35.2395806,11.2610791 C28.7146655,15.5771974 27.0135526,21.345069 30.1362419,28.564694 L31.6374405,27.1252764 Z" id="Path-2" fill="url(#linearGradient-5)" transform="translate(34.843052, 18.663193) scale(-1, 1) translate(-34.843052, -18.663193) "></path>
                    <path d="M9.54399928,27.1130671 C24.5244852,28.5801919 31.9550796,23.3976384 31.8357827,11.5654065 C31.8357827,8.29364248 21.2148206,4.88320772 11.3130906,12.2101322 C4.71193736,17.0947485 3.6218407,22.5421994 8.04280068,28.5524848 L9.54399928,27.1130671 Z" id="Path-2" fill="url(#linearGradient-5)"></path>
                    <path d="M47.3924551,69.8154869 L30.6102857,69.8154869 C27.3382353,69.8154869 24.6857143,67.1732329 24.6857143,63.9138475 C24.6857143,54.1352065 31.8482311,49.1216536 41.2323606,48.2170896 C45.0131138,53.353018 47.3965714,60.8565668 47.3965714,69.214394 C47.3965714,69.4152587 47.3951948,69.61563 47.3924551,69.8154869 Z" id="Combined-Shape" fill="url(#linearGradient-4)" transform="translate(36.041143, 59.016288) scale(-1, 1) translate(-36.041143, -59.016288) "></path>
                    <rect id="Rectangle-13" fill="url(#linearGradient-3)" x="31.7622857" y="61.2021858" width="9.216" height="2.29508197" rx="1.14754098"></rect>
                    <path d="M18.7619134,46.8658183 C17.3307611,47.3360062 14.8281829,48.41584 13.6908069,49.1520683 C12.9325562,49.6428872 13.7909597,50.6995706 16.2660175,52.3221186 C14.7140584,52.8681773 14.1716377,53.6024067 14.6387554,54.524807 C14.9431386,55.1258615 17.263466,56.6175764 19.7996394,60.2892493 C20.997032,62.0227406 22.2915561,64.9070738 23.6832116,68.9422489 C23.5941116,64.8387165 23.2039019,61.4963858 22.5125823,58.9152568 C21.5992455,55.5051986 20.1018292,53.2004931 19.4283579,51.200979 C18.6495423,48.8887013 18.7619134,47.1290257 18.7619134,46.8658183 Z" id="Path-8" fill="url(#linearGradient-6)"></path>
                    <path d="M29.0431694,46.9378428 C27.6120172,47.4080307 25.109439,48.4878645 23.972063,49.2240928 C23.2138123,49.7149117 24.0722158,50.7715951 26.5472735,52.3941431 C24.9953144,52.9402018 24.4528937,53.6744313 24.9200114,54.5968315 C25.2243947,55.197886 27.5447221,56.6896009 30.0808954,60.3612738 C31.2782881,62.0947651 32.5728122,64.9790983 33.9644676,69.0142734 C33.8753677,64.910741 33.4851579,61.5684103 32.7938383,58.9872813 C31.8805015,55.5772231 30.3830853,53.2725176 29.7096139,51.2730035 C28.9307983,48.9607259 29.0431694,47.2010502 29.0431694,46.9378428 Z" id="Path-8" fill="url(#linearGradient-6)" transform="translate(28.834901, 57.976058) scale(-1, 1) translate(-28.834901, -57.976058) "></path>
                    <path d="M26.8888011,39.726776 C26.3901988,40.5952537 25.2514911,41.2021858 23.9265154,41.2021858 C22.6015397,41.2021858 21.462832,40.5952537 20.9642297,39.726776" id="Combined-Shape" stroke="#FFA99F" stroke-width="1.97485714" stroke-linecap="round"></path>
                </g>
            </g>
        </g>
    </g>
</svg>