<?xml version="1.0" standalone="no"?><!DOCTYPE svg PUBLIC "-//W3C//DTD SVG 1.1//EN" "http://www.w3.org/Graphics/SVG/1.1/DTD/svg11.dtd"><svg class="icon" width="32px" height="32.00px" viewBox="0 0 1024 1024" version="1.1" xmlns="http://www.w3.org/2000/svg"><path d="M427.57632 299.56608H193.6384c-12.09856 0-21.8112-9.7536-21.8112-21.8112s9.71264-21.8112 21.8112-21.8112h212.12672V43.8016a21.77024 21.77024 0 0 1 21.80608-21.8112 21.82656 21.82656 0 0 1 21.8112 21.8112v233.95328a21.81632 21.81632 0 0 1-21.80608 21.8112z" fill="#269FD6" /><path d="M830.53056 495.54432H193.6384a21.77024 21.77024 0 0 1-21.8112-21.8112V277.75488c0-5.79584 2.29888-11.33056 6.38976-15.42144l233.9328-233.95328a21.79072 21.79072 0 0 1 15.42144-6.38976h402.95424a21.82656 21.82656 0 0 1 21.8112 21.8112v429.93664a21.81632 21.81632 0 0 1-21.80608 21.80608zM215.4496 451.92704h593.26976V65.60256H436.60288l-221.15328 221.184v165.14048zM830.53056 1002.0096H193.6384a21.77024 21.77024 0 0 1-21.8112-21.8112V764.6208a21.77024 21.77024 0 0 1 21.8112-21.80608h636.89216a21.82144 21.82144 0 0 1 21.8112 21.80608v215.5776a21.82656 21.82656 0 0 1-21.8112 21.8112zM215.4496 958.39232h593.26976V786.432H215.4496v171.96032z" fill="#269FD6" /><path d="M1024 926.74048h-136.4736v-87.23456h49.23904v-316.4672H87.23456v316.4672h49.32608v87.23456H0V435.80416h1024v490.93632z" fill="#269FD6" /><path d="M767.744 587.80672c-28.36992 0-51.28704 23.00416-51.28704 51.328 0 28.34432 22.91712 51.328 51.28704 51.328s51.36896-22.98368 51.36896-51.328c0-28.32384-22.99904-51.328-51.36896-51.328z" fill="#269FD6" /><path d="M642.25792 649.5488H374.15936c-12.01152 0-21.80608-9.7536-21.80608-21.8112s9.79456-21.8112 21.80608-21.8112h268.09856c12.01152 0 21.80608 9.7536 21.80608 21.8112s-9.79456 21.8112-21.80608 21.8112z" fill="#269FD6" /></svg>