<?xml version="1.0" encoding="UTF-8" standalone="no"?>
<svg width="46px" height="46px" viewBox="0 0 46 46" version="1.1" xmlns="http://www.w3.org/2000/svg" xmlns:xlink="http://www.w3.org/1999/xlink">
    <!-- Generator: Sketch 48.1 (47250) - http://www.bohemiancoding.com/sketch -->
    <title>Oval 3</title>
    <desc>Created with Sketch.</desc>
    <defs>
        <circle id="path-1" cx="23" cy="23" r="23"></circle>
    </defs>
    <g id="1" stroke="none" stroke-width="1" fill="none" fill-rule="evenodd" transform="translate(-125.000000, -80.000000)">
        <g id="Group" transform="translate(116.000000, 64.000000)">
            <g id="Oval-3" transform="translate(9.000000, 16.000000)">
                <mask id="mask-2" fill="white">
                    <use xlink:href="#path-1"></use>
                </mask>
                <use id="Mask" fill="#4A9EFB" xlink:href="#path-1"></use>
                <path d="M20,31 L20,33 L13,33 L13,31 L13,13 C13,11.8954305 13.8954305,11 15,11 L31,11 C32.1045695,11 33,11.8954305 33,13 L33,31 L20,31 Z" id="Combined-Shape" fill="#FFFFFF" mask="url(#mask-2)"></path>
                <path d="M15,31 L33,31 C32.3333333,31.6666667 32,32.3333333 32,33 C32,33.6666667 32.3333333,34.3333333 33,35 L15,35 C13.8954305,35 13,34.1045695 13,33 L13,33 C13,31.8954305 13.8954305,31 15,31 Z" id="Rectangle-2" fill="#BBDBFF" mask="url(#mask-2)"></path>
                <path d="M23,11 L29,11 L29,18 C28,17.3333333 27,17 26,17 C25,17 24,17.3333333 23,18 L23,11 Z" id="Rectangle-5" fill="#BBDBFF" mask="url(#mask-2)"></path>
                <rect id="Rectangle-7" fill="#BBDBFF" mask="url(#mask-2)" x="15" y="21" width="11" height="1" rx="0.5"></rect>
                <rect id="Rectangle-7-Copy" fill="#BBDBFF" mask="url(#mask-2)" x="15" y="26" width="7" height="1" rx="0.5"></rect>
            </g>
        </g>
    </g>
</svg>