<?xml version="1.0" encoding="UTF-8"?>
<svg width="60px" height="60px" viewBox="0 0 60 60" version="1.1" xmlns="http://www.w3.org/2000/svg" xmlns:xlink="http://www.w3.org/1999/xlink">
    <!-- Generator: Sketch 52.2 (67145) - http://www.bohemiancoding.com/sketch -->
    <title>图片1</title>
    <desc>Created with Sketch.</desc>
    <defs>
        <path d="M16,0 L44,0 C52.836556,-1.623249e-15 60,7.163444 60,16 L60,44 C60,52.836556 52.836556,60 44,60 L16,60 C7.163444,60 1.082166e-15,52.836556 0,44 L0,16 C-1.082166e-15,7.163444 7.163444,1.623249e-15 16,0 Z" id="path-1"></path>
    </defs>
    <g id="Page-1" stroke="none" stroke-width="1" fill="none" fill-rule="evenodd">
        <g id="健康小工具" transform="translate(-32.000000, -359.000000)">
            <g id="图文列表" transform="translate(-1.000000, 129.000000)">
                <g id="Group-Copy" transform="translate(0.000000, 208.000000)">
                    <g id="图文列表/单行列表-1_13" transform="translate(1.000000, 0.000000)">
                        <g id="图文列表/单行列表">
                            <g id="列表一" transform="translate(32.000000, 0.000000)">
                                <g id="图片1" transform="translate(0.000000, 22.000000)">
                                    <g id="Group-5">
                                        <mask id="mask-2" fill="white">
                                            <use xlink:href="#path-1"></use>
                                        </mask>
                                        <use id="Mask" fill="#ECDCBC" xlink:href="#path-1"></use>
                                        <rect id="Rectangle-Copy" fill="#AA8548" fill-rule="nonzero" mask="url(#mask-2)" x="19" y="13" width="27" height="32" rx="3"></rect>
                                        <rect id="Rectangle" fill="#B79153" fill-rule="nonzero" mask="url(#mask-2)" x="15" y="17" width="27" height="32" rx="3"></rect>
                                        <rect id="Rectangle-2" fill="#ECDCBC" fill-rule="nonzero" mask="url(#mask-2)" x="21" y="24" width="15" height="3" rx="1.5"></rect>
                                        <rect id="Rectangle-2-Copy" fill="#ECDCBC" fill-rule="nonzero" mask="url(#mask-2)" x="21" y="31" width="15" height="3" rx="1.5"></rect>
                                    </g>
                                </g>
                            </g>
                        </g>
                    </g>
                </g>
            </g>
        </g>
    </g>
</svg>