<?xml version="1.0" encoding="UTF-8"?>
<svg width="60px" height="60px" viewBox="0 0 60 60" version="1.1" xmlns="http://www.w3.org/2000/svg" xmlns:xlink="http://www.w3.org/1999/xlink">
    <!-- Generator: Sketch 52.2 (67145) - http://www.bohemiancoding.com/sketch -->
    <title>图片1</title>
    <desc>Created with Sketch.</desc>
    <defs>
        <path d="M16,0 L44,0 C52.836556,-1.623249e-15 60,7.163444 60,16 L60,44 C60,52.836556 52.836556,60 44,60 L16,60 C7.163444,60 1.082166e-15,52.836556 0,44 L0,16 C-1.082166e-15,7.163444 7.163444,1.623249e-15 16,0 Z" id="path-1"></path>
    </defs>
    <g id="Page-1" stroke="none" stroke-width="1" fill="none" fill-rule="evenodd">
        <g id="健康小工具" transform="translate(-32.000000, -255.000000)">
            <g id="图文列表" transform="translate(-1.000000, 129.000000)">
                <g id="Group" transform="translate(1.000000, 0.000000)">
                    <g id="图文列表/单行列表-1_13-copy" transform="translate(0.000000, 104.000000)">
                        <g id="图文列表/单行列表">
                            <g id="列表一" transform="translate(32.000000, 22.000000)">
                                <g id="图片1">
                                    <g id="Group-4">
                                        <mask id="mask-2" fill="white">
                                            <use xlink:href="#path-1"></use>
                                        </mask>
                                        <use id="Mask" fill="#ECDCBC" xlink:href="#path-1"></use>
                                        <g id="Group-2" mask="url(#mask-2)" fill-rule="nonzero">
                                            <g transform="translate(11.000000, 15.000000)">
                                                <path d="M4,31.7796123 C7.4909097,33.7830993 10.2665089,33.3197718 12.3267977,30.3896298 C15.4172309,25.9944168 27.7059727,26.5086886 30.2533538,21.5340144 C31.9516079,18.217565 32.8671566,15.3728935 33,13 L6.05615263,25.5359181 L4,31.7796123 Z" id="Path-16" stroke="none" fill="#AA8548"></path>
                                                <path d="M4.64395813,33 C0.215745747,20.2707977 -0.248633704,11.1965701 3.25081978,5.77731706 C8.5,-2.3515625 37.2551685,5.14119116 41,2 C41,2 39.7347658,16.2372426 23.3550343,20.3738868 C12.4352133,23.1316496 6.19818794,27.340354 4.64395813,33 Z" id="Path-15" stroke="none" fill="#B79153"></path>
                                                <path d="M19.8203125,0.0048828125 C24.8111979,5.01269531 25.6359393,14.7454427 22.2945367,29.203125 C22.136756,29.8858153 24.0091463,28.811353 23.7783203,29.203125" id="Path-2" stroke="#ECDCBC" stroke-width="2" fill="none"></path>
                                                <path d="M24.1357422,9.19140625 C24.6461589,7.37369792 26.4996745,4.62760417 29.6962891,0.953125" id="Path-3" stroke="#ECDCBC" stroke-width="2" fill="none"></path>
                                            </g>
                                        </g>
                                    </g>
                                </g>
                            </g>
                        </g>
                    </g>
                </g>
            </g>
        </g>
    </g>
</svg>