<?xml version="1.0" encoding="UTF-8" standalone="no"?>
<svg width="40px" height="40px" viewBox="0 0 40 40" version="1.1" xmlns="http://www.w3.org/2000/svg" xmlns:xlink="http://www.w3.org/1999/xlink">
    <!-- Generator: Sketch 48.1 (47250) - http://www.bohemiancoding.com/sketch -->
    <title>Group 2</title>
    <desc>Created with Sketch.</desc>
    <defs>
        <circle id="path-1" cx="20" cy="20" r="20"></circle>
    </defs>
    <g id="03-客服" stroke="none" stroke-width="1" fill="none" fill-rule="evenodd" transform="translate(-10.000000, -410.000000)">
        <g id="Group-2" transform="translate(10.000000, 410.000000)">
            <g id="Rectangle-+-Rectangle-2-+-Rectangle-3-+-Oval-+-Oval-Copy-Mask">
                <mask id="mask-2" fill="white">
                    <use xlink:href="#path-1"></use>
                </mask>
                <use id="Mask" fill="#E5E5E5" xlink:href="#path-1"></use>
                <rect id="Rectangle" fill="#FFDCDC" mask="url(#mask-2)" x="13.6" y="10.4" width="12.8" height="15.2" rx="6.4"></rect>
                <path d="M16.5787001,27.1999995 L24.3330439,27.2000042 C26.0438058,27.2000042 27.5651858,28.287968 28.1182475,29.9068655 C29.9468567,35.2594879 31.2820358,38.9215512 32.1237847,40.8930555 C33.1005835,43.180867 33.4388937,43.2529735 33.1387153,41.109375 L9.43975694,41.109375 L12.7464431,30.0537855 C13.2529722,28.3602537 14.8110401,27.1999995 16.5787001,27.1999995 Z" id="Rectangle-3" fill="#99E8C8" mask="url(#mask-2)"></path>
                <path d="M18.4,23.2 L22.4,23.2 L22.4,27.2 C21.9834491,27.9953704 21.3167824,28.3935764 20.4,28.3946181 C19.4832176,28.3956597 18.8165509,27.9974537 18.4,27.2 L18.4,23.2 Z" id="Rectangle-2" fill="#FFDCDC" mask="url(#mask-2)"></path>
                <circle id="Oval" fill="#FFDCDC" mask="url(#mask-2)" cx="26.4" cy="18.4" r="1.6"></circle>
                <circle id="Oval-Copy" fill="#FFDCDC" mask="url(#mask-2)" cx="13.6" cy="18.4" r="1.6"></circle>
                <path d="M18.2472222,10.6569444 C17.5336806,15.5498843 15.9703125,18.2153356 13.5571181,18.6532986 C13.1944444,18.9217014 12.2435764,15.2453125 13.7559028,12.4772569 C14.7641204,10.6318866 16.2612269,10.0251157 18.2472222,10.6569444 Z" id="Path-2" fill="#8B572A" mask="url(#mask-2)"></path>
                <path d="M16.6723958,10.6541667 C16.8256532,14.0773148 19.8714053,16.1200231 25.8096522,16.7822917 C26.8390354,16.9208333 27.2443644,17.4878472 27.0256392,18.4833333 C27.9519888,15.0449074 27.0434693,12.4351852 24.3000806,10.6541667 C21.556692,8.87314815 19.0141304,8.87314815 16.6723958,10.6541667 Z" id="Path-3" fill="#8B572A" mask="url(#mask-2)"></path>
            </g>
            <path d="M22.8000835,24.4000137 C24.7178258,24.0332062 26.2085413,22.4249459 26.4359032,20.4218612 C26.376178,20.2936813 26.3428272,20.1507354 26.3428272,20 L26.3428272,18 C26.3428272,17.8255616 26.3874915,17.661555 26.4660078,17.5187926 L26.4660078,16.978756 L26.5,16.978756 L26.5,16 C26.5,12.4101491 23.5898509,9.5 20,9.5 C16.4101491,9.5 13.5,12.4101491 13.5,16 L13.5,17.4372292 C13.6031356,17.5945318 13.6631168,17.7826705 13.6631168,17.9848186 L13.6631168,19.9848186 C13.6631168,20.5371033 13.2154016,20.9848186 12.6631168,20.9848186 C12.1108321,20.9848186 11.6631168,20.5371033 11.6631168,19.9848186 L11.6631168,17.9848186 C11.6631168,17.4880802 12.0253024,17.0759349 12.5,16.998056 L12.5,16 C12.5,11.8578644 15.8578644,8.5 20,8.5 C24.1421356,8.5 27.5,11.8578644 27.5,16 L27.5,17.0122807 C27.9776149,17.0876806 28.3428272,17.5011904 28.3428272,18 L28.3428272,20 C28.3428272,20.5474935 27.9028464,20.992224 27.3571771,20.9998991 C26.9119116,23.2421658 25.1465471,24.9997735 22.9188805,25.3951837 C22.7656783,25.750935 22.4119253,26 22,26 L20,26 C19.4477153,26 19,25.5522847 19,25 C19,24.4477153 19.4477153,24 20,24 L22,24 C22.3271697,24 22.6176429,24.1571166 22.8000835,24.4000137 Z" id="Combined-Shape" fill="#18B677"></path>
        </g>
    </g>
</svg>