<?xml version="1.0" encoding="UTF-8"?>
<svg width="12px" height="12px" viewBox="0 0 12 12" version="1.1" xmlns="http://www.w3.org/2000/svg" xmlns:xlink="http://www.w3.org/1999/xlink">
    <!-- Generator: Sketch 52.1 (67048) - http://www.bohemiancoding.com/sketch -->
    <title>list/icon/phone</title>
    <desc>Created with Sketch.</desc>
    <g id="list/icon/phone" stroke="none" stroke-width="1" fill="none" fill-rule="evenodd">
        <path d="M10.4323486,7.99002213 C9.46714085,7.39169211 9.3200669,7.308225 8.98048592,7.36106532 C8.64087324,7.41382244 8.53998239,7.48557961 8.05124648,8.16151137 C7.9821831,8.2445313 7.3264507,9.24350553 4.97321479,7.01803484 C3.24788732,5.26661906 3.75878521,4.6310689 4.08523592,4.21914114 C4.3691162,3.95815302 4.6875493,3.84238478 4.73467254,3.37605676 C4.75502817,3.16133642 4.72690845,2.72130897 4.01062676,1.75477106 C3.53060563,1.06450866 3.43514437,1.00923484 3.11473592,1.00287029 C2.79432746,0.996609734 2.28367254,1.15276998 1.75872535,1.56942956 C1.2395669,1.91282403 1.07942606,2.31530897 1.02402113,2.78701358 C0.96553169,3.38167254 0.106504939,5.82276986 2.69760705,8.63379988 C5.28874085,11.4448715 9.38169366,11.6211742 10.5487887,10.8235881 C11.0515951,10.4723107 11.4623944,9.69119749 11.4801092,9.1884709 C11.5431303,8.84165497 11.3975563,8.58824816 10.4323486,7.99002213 Z" id="Shape" fill="#888888" fill-rule="nonzero"></path>
    </g>
</svg>