<?xml version="1.0" encoding="UTF-8" standalone="no"?>
<svg width="65px" height="65px" viewBox="0 0 65 65" version="1.1" xmlns="http://www.w3.org/2000/svg" xmlns:xlink="http://www.w3.org/1999/xlink">
    <!-- Generator: Sketch 48.1 (47250) - http://www.bohemiancoding.com/sketch -->
    <title>home/icon/hot</title>
    <desc>Created with Sketch.</desc>
    <defs>
        <linearGradient x1="50%" y1="-1.11022302e-14%" x2="50%" y2="100%" id="linearGradient-1">
            <stop stop-color="#F7624F" offset="0%"></stop>
            <stop stop-color="#FFB532" offset="100%"></stop>
        </linearGradient>
    </defs>
    <g id="Symbols" stroke="none" stroke-width="1" fill="none" fill-rule="evenodd">
        <g id="home/icon/hot">
            <path d="M35.2099565,3.91539397 L51.2961401,10.5785094 C52.7111515,11.1646263 53.8353737,12.2888485 54.4214906,13.7038599 L61.084606,29.7900435 C61.6707229,31.2050549 61.6707229,32.7949451 61.084606,34.2099565 L54.4214906,50.2961401 C53.8353737,51.7111515 52.7111515,52.8353737 51.2961401,53.4214906 L35.2099565,60.084606 C33.7949451,60.6707229 32.2050549,60.6707229 30.7900435,60.084606 L14.7038599,53.4214906 C13.2888485,52.8353737 12.1646263,51.7111515 11.5785094,50.2961401 L4.91539397,34.2099565 C4.32927706,32.7949451 4.32927706,31.2050549 4.91539397,29.7900435 L11.5785094,13.7038599 C12.1646263,12.2888485 13.2888485,11.1646263 14.7038599,10.5785094 L30.7900435,3.91539397 C32.2050549,3.32927706 33.7949451,3.32927706 35.2099565,3.91539397 Z" id="Polygon" fill="url(#linearGradient-1)"></path>
            <g id="Group" transform="translate(12.000000, 11.000000)" fill="#FFFFFF">
                <path d="M25.5060967,18.5060967 L25.5060967,19.5053643 C27.9349901,21.3297769 29.5060967,24.234461 29.5060967,27.5060967 C29.5060967,33.0289442 25.0289442,37.5060967 19.5060967,37.5060967 C13.9832492,37.5060967 9.50609665,33.0289442 9.50609665,27.5060967 C9.50609665,24.234461 11.0772033,21.3297769 13.5060967,19.5053643 L13.5060967,8.50609665 C13.5060967,5.19238816 16.1923882,2.50609665 19.5060967,2.50609665 C22.8198052,2.50609665 25.5060967,5.19238816 25.5060967,8.50609665 L23.5060967,8.50609665 C22.9538119,8.50609665 22.5060967,8.9538119 22.5060967,9.50609665 C22.5060967,10.0583814 22.9538119,10.5060967 23.5060967,10.5060967 L25.5060967,10.5060967 L25.5060967,12.5060967 L23.5060967,12.5060967 C22.9538119,12.5060967 22.5060967,12.9538119 22.5060967,13.5060967 C22.5060967,14.0583814 22.9538119,14.5060967 23.5060967,14.5060967 L25.5060967,14.5060967 L25.5060967,16.5060967 L23.5060967,16.5060967 C22.9538119,16.5060967 22.5060967,16.9538119 22.5060967,17.5060967 C22.5060967,18.0583814 22.9538119,18.5060967 23.5060967,18.5060967 L25.5060967,18.5060967 Z M18.5060967,23.6321141 C16.7808694,24.0761569 15.5060967,25.6422572 15.5060967,27.5060967 C15.5060967,29.7152357 17.2969577,31.5060967 19.5060967,31.5060967 C21.7152357,31.5060967 23.5060967,29.7152357 23.5060967,27.5060967 C23.5060967,25.6422572 22.2313239,24.0761569 20.5060967,23.6321141 L20.5060967,8.50609665 C20.5060967,7.9538119 20.0583814,7.50609665 19.5060967,7.50609665 C18.9538119,7.50609665 18.5060967,7.9538119 18.5060967,8.50609665 L18.5060967,23.6321141 Z" id="Combined-Shape" transform="translate(19.506097, 20.006097) rotate(-45.000000) translate(-19.506097, -20.006097) "></path>
            </g>
        </g>
    </g>
</svg>