<?xml version="1.0" encoding="UTF-8" standalone="no"?>
<svg width="65px" height="65px" viewBox="0 0 65 65" version="1.1" xmlns="http://www.w3.org/2000/svg" xmlns:xlink="http://www.w3.org/1999/xlink">
    <!-- Generator: Sketch 48.1 (47250) - http://www.bohemiancoding.com/sketch -->
    <title>home/icon/medical</title>
    <desc>Created with Sketch.</desc>
    <defs>
        <linearGradient x1="50%" y1="100%" x2="50%" y2="0%" id="linearGradient-1">
            <stop stop-color="#F478E4" offset="0%"></stop>
            <stop stop-color="#C756FF" offset="100%"></stop>
        </linearGradient>
    </defs>
    <g id="Symbols" stroke="none" stroke-width="1" fill="none" fill-rule="evenodd">
        <g id="home/icon/medical" fill-rule="nonzero">
            <g id="Group-11" transform="translate(2.000000, 6.000000)">
                <path d="M30.4933825,5.42357513 L30.4933825,53 C27.6601639,53 16.1906581,48.284551 8.88186756,39.7365612 C1.57307706,31.1885715 4.26325641e-13,23.9598446 4.26325641e-13,18.0556995 C4.26325641e-13,8.10103627 7.99604253,0 17.821688,0 C22.6328661,0 27.172992,1.99093264 30.4933825,5.42357513 Z M30.5066175,5.42357513 C33.827008,1.99093264 38.3671339,0 43.178312,0 C53.0039575,0 61,8.10103627 61,18.0556995 C61,23.9598446 59.4269229,31.1885715 52.1181324,39.7365612 C44.8093419,48.284551 33.3398361,53 30.5066175,53 L30.5066175,5.42357513 Z" id="Combined-Shape" fill="url(#linearGradient-1)"></path>
                <g id="Group" transform="translate(12.000000, 14.000000)" fill="#FFFFFF">
                    <path d="M35.7705131,17.7325663 L39.8182363,21.7802894 C40.3929701,22.3550233 40.225719,23.4541021 39.4446704,24.2351507 C38.6636218,25.0161993 37.564543,25.1834504 36.9898091,24.6087165 L32.8272183,20.4461257 C32.8216455,20.4405529 32.8161425,20.4349309 32.8107092,20.4292603 C31.4896486,21.176366 29.957061,21.6037736 28.3227273,21.6037736 C23.3521645,21.6037736 19.3227273,17.6503635 19.3227273,12.7735849 C19.3227273,7.89680636 23.3521645,3.94339623 28.3227273,3.94339623 C33.29329,3.94339623 37.3227273,7.89680636 37.3227273,12.7735849 C37.3227273,14.6118767 36.7501854,16.3189673 35.7705131,17.7325663 Z M26.2007531,1.18350097 C20.5854553,2.16653422 16.3227273,6.9816454 16.3227273,12.7735849 C16.3227273,17.1265916 18.7305153,20.9278399 22.3106773,22.9652256 C19.389152,24.9560231 16.4589425,26.0188679 15.503293,26.0188679 L15.503293,2.67948969 C17.1555708,0.995551862 19.4148077,0.0188679245 21.8089246,0.0188679245 C23.4055719,0.0188679245 24.9051327,0.442653389 26.2007531,1.18350097 Z M15.496707,2.67948969 L15.496707,26.0188679 C14.0868535,26.0188679 8.37944967,23.7056288 4.74248223,19.5122753 C1.1055148,15.3189218 0.322727273,11.7727539 0.322727273,8.87638088 C0.322727273,3.99296119 4.30168197,0.0188679245 9.19107545,0.0188679245 C11.5851923,0.0188679245 13.8444292,0.995551862 15.496707,2.67948969 Z M28.3227273,18.6603774 C31.6364358,18.6603774 34.3227273,16.0247706 34.3227273,12.7735849 C34.3227273,9.52239921 31.6364358,6.88679245 28.3227273,6.88679245 C25.0090188,6.88679245 22.3227273,9.52239921 22.3227273,12.7735849 C22.3227273,16.0247706 25.0090188,18.6603774 28.3227273,18.6603774 Z M6.13283141,10.0757751 C6.13283141,9.5234903 5.68511616,9.07577505 5.13283141,9.07577505 C4.58054666,9.07577505 4.13283141,9.5234903 4.13283141,10.0757751 C4.13283141,12.4105671 4.98467835,14.5947561 7.11561479,16.9057428 C7.67012656,17.5071073 8.31299231,18.0670082 9.02382127,18.5807863 C9.47142697,18.90431 10.0965509,18.8037217 10.4200746,18.356116 C10.7435983,17.9085103 10.6430099,17.2833864 10.1954042,16.9598627 C9.58819866,16.5209822 9.04536093,16.0482003 8.58594513,15.5499668 C6.79586957,13.6086415 6.13283141,11.90857 6.13283141,10.0757751 Z" id="Combined-Shape"></path>
                </g>
            </g>
        </g>
    </g>
</svg>