<?xml version="1.0" encoding="UTF-8" standalone="no"?>
<svg width="65px" height="65px" viewBox="0 0 65 65" version="1.1" xmlns="http://www.w3.org/2000/svg" xmlns:xlink="http://www.w3.org/1999/xlink">
    <!-- Generator: Sketch 48.1 (47250) - http://www.bohemiancoding.com/sketch -->
    <title>home/icon/registered</title>
    <desc>Created with Sketch.</desc>
    <defs>
        <linearGradient x1="50%" y1="100%" x2="50%" y2="0%" id="linearGradient-1">
            <stop stop-color="#0FDCFF" offset="0%"></stop>
            <stop stop-color="#2C81FF" offset="100%"></stop>
        </linearGradient>
    </defs>
    <g id="Symbols" stroke="none" stroke-width="1" fill="none" fill-rule="evenodd">
        <g id="home/icon/registered">
            <g id="Group-3" transform="translate(0.000000, 5.000000)" fill="url(#linearGradient-1)">
                <ellipse id="Oval-4" cx="12.8030303" cy="13" rx="12.8030303" ry="13"></ellipse>
                <ellipse id="Oval-4-Copy" cx="52.1969697" cy="13" rx="12.8030303" ry="13"></ellipse>
                <ellipse id="Oval-3" cx="32.5" cy="29" rx="26.5909091" ry="27"></ellipse>
            </g>
            <g id="Group" transform="translate(17.000000, 19.000000)">
                <path d="M24,2 L26.0310003,2 C28.2230183,2 30,3.7769817 30,5.96899971 L30,9 L0,9 L4.4408921e-16,5.96899971 C1.75644425e-16,3.7769817 1.7769817,2 3.96899971,2 L6,2 L6,3.50142398 C6,4.88603984 7.11806212,6 8.5,6 C9.8848767,6 11,4.88296438 11,3.50142398 L11,2 L19,2 L19,3.50142398 C19,4.88603984 20.1180621,6 21.5,6 C22.8848767,6 24,4.88296438 24,3.50142398 L24,2 Z M7,1.49857602 C7,0.670935336 7.66579723,0 8.5,0 C9.32842712,0 10,0.665029764 10,1.49857602 L10,3.50142398 C10,4.32906466 9.33420277,5 8.5,5 C7.67157288,5 7,4.33497024 7,3.50142398 L7,1.49857602 Z M20,1.49857602 C20,0.670935336 20.6657972,0 21.5,0 C22.3284271,0 23,0.665029764 23,1.49857602 L23,3.50142398 C23,4.32906466 22.3342028,5 21.5,5 C20.6715729,5 20,4.33497024 20,3.50142398 L20,1.49857602 Z" id="Combined-Shape" fill="#FFFFFF"></path>
                <path d="M3.96899971,28 C1.7769817,28 1.75644425e-16,26.2230183 4.4408921e-16,24.0310003 L0,11 L30,11 L30,24.0310003 C30,26.2230183 28.2230183,28 26.0310003,28 L3.96899971,28 Z M4,18 L4,20 L6,20 L6,18 L4,18 Z M4,22 L4,24 L6,24 L6,22 L4,22 Z M8,18 L8,20 L10,20 L10,18 L8,18 Z M8,22 L8,24 L10,24 L10,22 L8,22 Z M8,14 L8,16 L10,16 L10,14 L8,14 Z M12,14 L12,16 L14,16 L14,14 L12,14 Z M12,18 L12,20 L14,20 L14,18 L12,18 Z M12,22 L12,24 L14,24 L14,22 L12,22 Z M16,14 L16,16 L18,16 L18,14 L16,14 Z M16,18 L16,20 L18,20 L18,18 L16,18 Z M16,22 L16,24 L18,24 L18,22 L16,22 Z M20,14 L20,16 L22,16 L22,14 L20,14 Z M20,18 L20,20 L22,20 L22,18 L20,18 Z M24,14 L24,16 L26,16 L26,14 L24,14 Z M24,18 L24,20 L26,20 L26,18 L24,18 Z" id="Combined-Shape" fill="#FFFFFF"></path>
                <path d="M6,27 L24,27 C25.6568542,27 27,28.3431458 27,30 L3,30 L3,30 C3,28.3431458 4.34314575,27 6,27 Z" id="Rectangle-2-Copy" fill="#FFFFFF" opacity="0.5" transform="translate(15.000000, 28.500000) scale(1, -1) translate(-15.000000, -28.500000) "></path>
                <g id="Group-10" transform="translate(24.000000, 18.000000)"></g>
            </g>
        </g>
    </g>
</svg>