<?xml version="1.0" encoding="UTF-8"?>
<svg width="102px" height="108px" viewBox="0 0 102 108" version="1.1" xmlns="http://www.w3.org/2000/svg" xmlns:xlink="http://www.w3.org/1999/xlink">
    <!-- Generator: Sketch 52.2 (67145) - http://www.bohemiancoding.com/sketch -->
    <title>今日 挂号1</title>
    <desc>Created with Sketch.</desc>
    <g id="Page-1" stroke="none" stroke-width="1" fill="none" fill-rule="evenodd">
        <path d="M0.22799987,34.32 C0.45200099,34.1919994 0.80399747,33.9840014 1.28399987,33.696 L2.24399987,33.072 C3.01200371,32.6239978 3.63599747,32.1920021 4.11599987,31.776 L7.37999987,28.944 C8.59600595,27.8559946 9.63599555,26.8480046 10.4999999,25.92 C11.5880053,24.7999944 12.5639956,23.7120053 13.4279999,22.656 C14.4200048,21.4399939 15.299996,20.2560058 16.0679999,19.104 C17.0600048,17.6639928 18.1319941,15.9840096 19.2839999,14.064 C19.7640023,13.3279963 20.2759972,12.4800048 20.8199999,11.52 L21.5879999,10.224 C21.7800008,9.93599856 22.0359983,9.50400288 22.3559999,8.928 C22.6760015,8.35199712 23.0439978,7.60000464 23.4599999,6.672 L24.4199999,4.32 C24.4840002,4.19199936 24.5319997,4.03200096 24.5639999,3.84 L24.6119999,3.312 L22.8359999,2.112 L22.8359999,1.776 L27.7319999,0.672 C28.4040032,1.21600272 29.123996,1.83999648 29.8919999,2.544 L31.8599999,4.272 C31.892,4.84800288 31.6200028,5.35999776 31.0439999,5.808 L30.3239999,6.432 C30.0679986,6.68800128 29.8920004,6.95999856 29.7959999,7.248 C29.8920004,7.53600144 30.0519988,7.95199728 30.2759999,8.496 C30.4680008,9.10400304 30.6279992,9.55199856 30.7559999,9.84 C31.1400018,10.8960053 31.5559976,11.7759965 32.0039999,12.48 C32.9000044,13.9200072 33.8759946,15.1839946 34.9319999,16.272 C36.0840056,17.4560059 37.3639928,18.4319962 38.7719999,19.2 L42.2279999,21.168 C43.6040068,21.968004 44.7719951,22.5919978 45.7319999,23.04 C46.564004,23.4240019 47.6359933,23.8399978 48.9479999,24.288 L52.2119999,25.392 C52.3720007,25.4560003 52.5159992,25.6479984 52.6439999,25.968 L51.3959999,26.256 C49.9239925,26.2880002 48.4200076,26.799995 46.8839999,27.792 C46.5959984,27.984001 46.2920015,28.2879979 45.9719999,28.704 L45.1559999,29.712 C44.2599954,29.3599982 43.3320047,28.8960029 42.3719999,28.32 C41.6359962,27.8719978 40.7880047,27.2800037 39.8279999,26.544 C39.5399984,26.351999 39.1080028,26.0320022 38.5319999,25.584 L37.2359999,24.624 C36.2119948,23.8559962 35.3000039,23.2160026 34.4999999,22.704 L33.4439999,24.384 C31.45999,23.9679979 29.2200124,23.9519981 26.7239999,24.336 C25.7959952,24.4960008 24.7080061,24.7199986 23.4599999,25.008 L20.1959999,25.824 L18.4679999,23.088 L26.0039999,22.128 C26.1000004,22.128 26.1639997,22.1120002 26.1959999,22.08 C26.3240005,22.08 26.4359994,22.0640002 26.5319999,22.032 L29.2679999,21.696 C29.9720034,20.9279962 30.5639975,20.3040024 31.0439999,19.824 C31.4920021,19.7919998 31.9559975,20.0319974 32.4359999,20.544 L32.6279999,20.736 C32.66,20.8000003 32.6919997,20.832 32.7239999,20.832 C32.8520005,20.9600006 32.9479996,21.0719995 33.0119999,21.168 C33.2680012,21.3920011 33.5079988,21.5679994 33.7319999,21.696 C33.5079988,21.2159976 33.2040018,20.6240035 32.8199999,19.92 L31.9079999,18.144 C31.2039964,16.7999933 30.6760016,15.6480048 30.3239999,14.688 C29.9719981,13.7279952 29.6200016,12.5120074 29.2679999,11.04 L28.8839999,9.408 C28.8839999,9.31199952 28.868,9.24800016 28.8359999,9.216 C28.6759991,8.415996 28.5320005,7.7760024 28.4039999,7.296 L27.8759999,7.632 C27.6839989,7.7920008 27.5560002,7.93599936 27.4919999,8.064 C25.9879924,11.264016 23.9560127,14.4799838 21.3959999,17.712 C20.019993,19.4720088 18.7400058,20.9919936 17.5559999,22.272 C16.0839925,23.8400078 14.6280071,25.1999942 13.1879999,26.352 C12.1319946,27.2160043 10.9000069,28.1279952 9.49199987,29.088 C8.94799715,29.5040021 8.32400339,29.9519976 7.61999987,30.432 L5.69999987,31.728 C5.09199683,32.1440021 4.35600419,32.5919976 3.49199987,33.072 L1.18799987,34.368 C1.05999923,34.4640005 0.88400099,34.512 0.65999987,34.512 L0.22799987,34.32 Z M32.3879999,29.328 C31.6839964,30.7040069 31.316,32.3519904 31.2839999,34.272 C31.2519997,34.9120032 31.2679996,35.7439949 31.3319999,36.768 L31.4279999,38.016 C31.46,38.4960024 31.4759999,38.9119982 31.4759999,39.264 C31.5720004,41.2160098 31.1400047,42.991992 30.1799999,44.592 C29.9559988,45.0080021 29.6040023,45.4079981 29.1239999,45.792 L27.9239999,46.752 C27.8919997,46.7840002 27.86,46.8 27.8279999,46.8 C27.6999992,46.8640003 27.5080012,46.8800002 27.2519999,46.848 L26.6759999,46.8 L26.6279999,46.608 C26.6279999,46.5439997 26.612,46.4960002 26.5799999,46.464 L26.4839999,46.128 C26.4519997,45.9039989 26.4040002,45.7120008 26.3399999,45.552 C26.2439994,45.1679981 26.18,44.8640011 26.1479999,44.64 C26.3080007,43.6159949 26.4199996,42.5280058 26.4839999,41.376 C26.5480002,40.383995 26.5799999,39.2960059 26.5799999,38.112 L26.4359999,31.488 L15.3479999,34.752 L13.9559999,31.008 L24.8999999,29.856 C25.6040034,29.8239998 26.2279972,29.408004 26.7719999,28.608 L28.5959999,25.968 L32.3879999,29.328 Z M65.676,6.72 C66.9240062,6.17599728 68.2359931,5.64800256 69.612,5.136 L70.86,6 C71.3720026,6.35200176 71.7719986,6.6879984 72.06,7.008 C72.2200008,7.1680008 72.3319997,7.47199776 72.396,7.92 C72.4280002,8.01600048 72.444,8.11199952 72.444,8.208 L72.54,9.12 L73.356,8.256 L85.404,7.632 L89.148,3.936 C90.5240069,5.2160064 91.8999931,6.44799408 93.276,7.632 C92.9559984,9.29600832 92.2680053,10.4479968 91.212,11.088 L90.684,12.576 C91.1000021,12.8640014 91.3399997,13.2959971 91.404,13.872 L91.452,15.12 C91.452,15.2480006 91.4679998,15.3759994 91.5,15.504 C91.5320002,15.6640008 91.548,15.839999 91.548,16.032 L91.548,17.568 C91.7080008,19.5200098 91.8679992,21.7279877 92.028,24.192 L92.604,32.544 C92.6360002,33.2480035 92.6360002,33.8559974 92.604,34.368 C92.3799989,37.376015 91.3240094,39.6319925 89.436,41.136 C88.6679962,41.7760032 87.6280066,41.7760032 86.316,41.136 L86.748,37.632 C84.4759886,37.5999998 82.0120133,37.6479994 79.356,37.776 L71.964,38.4 L71.82,37.152 C71.7559997,37.152 71.7080002,37.1360002 71.676,37.104 L71.532,37.776 C71.4679997,38.0320013 71.436,38.255999 71.436,38.448 L71.532,39.744 C71.532,39.9040008 71.5160002,40.0319995 71.484,40.128 C70.875997,41.6640077 70.0600051,42.8159962 69.036,43.584 L67.788,42.48 L68.076,39.168 C68.1080002,38.9439989 68.124,38.7520008 68.124,38.592 C68.2200005,37.7599958 68.268,37.0560029 68.268,36.48 C68.268,35.5199952 68.2520002,34.4640058 68.22,33.312 L67.932,23.808 C67.8999998,23.2639973 67.8999998,22.5760042 67.932,21.744 L67.932,12.96 L67.98,11.664 C68.0120002,11.1199973 67.9800005,10.6880016 67.884,10.368 C67.7559994,9.98399808 67.5320016,9.52000272 67.212,8.976 C67.1799998,8.87999952 67.1160005,8.76800064 67.02,8.64 L66.396,7.632 L65.676,6.72 Z M85.884,23.184 L85.596,23.376 L85.356,23.52 C85.1959992,23.6160005 85.0680005,23.6799998 84.972,23.712 L71.772,24.288 L71.772,36.24 C72.764005,36.1119994 73.2919997,36.3839966 73.356,37.056 C73.4200003,36.7359984 73.5319992,36.4960008 73.692,36.336 C73.7880005,36.1759992 73.931999,36.0640003 74.124,36 C74.2520006,35.9359997 74.411999,35.904 74.604,35.904 L77.676,35.808 C78.7640054,35.808 79.611997,35.7760003 80.22,35.712 C81.1160045,35.6479997 82.267993,35.5360008 83.676,35.376 C83.8040006,35.3439998 83.9479992,35.328 84.108,35.328 L87.228,34.992 L87.42,34.416 C87.5160005,34.1599987 87.564,33.9520008 87.564,33.792 C87.6280003,30.8159851 87.6120005,28.1440118 87.516,25.776 C87.4839998,24.6879946 87.4200005,23.344008 87.324,21.744 L86.7,9.408 C85.8039955,9.85600224 84.6200074,10.0640002 83.148,10.032 C83.0199994,9.99999984 82.860001,9.984 82.668,9.984 L81.324,9.936 C80.5879963,9.87199968 79.9640026,9.87199968 79.452,9.936 C78.4919952,10.0320005 77.2280078,10.1119997 75.66,10.176 C75.5319994,10.2080002 75.372001,10.224 75.18,10.224 L71.676,10.416 L71.676,22.272 L80.364,21.84 L82.476,19.392 L85.884,23.184 Z M46.8839999,103.904 C42.7879794,103.615999 38.5000223,103.535999 34.0199999,103.664 C29.9879797,103.792001 25.6680229,104.095998 21.0599999,104.576 C20.8679989,104.319999 20.5800018,103.968002 20.1959999,103.52 L19.2359999,102.464 L30.6599999,102.032 C30.7560004,100.911994 30.788,99.7120064 30.7559999,98.432 C30.7239997,97.4079949 30.6440005,96.1760072 30.5159999,94.736 L23.1719999,95.648 L22.5479999,94.688 C22.2599984,94.2719979 22.004001,93.8560021 21.7799999,93.44 L30.5159999,93.008 C30.4839997,92.4639973 30.4679999,91.8240037 30.4679999,91.088 L30.4679999,89.216 C30.5,87.7439926 30.4200008,86.5440046 30.2279999,85.616 L22.8359999,86.288 L21.5879999,84.512 L18.4679999,87.344 L18.6599999,91.088 C18.7240002,92.6240077 18.7559999,93.9039949 18.7559999,94.928 C18.7559999,95.920005 18.7240002,96.7839963 18.6599999,97.52 C18.5959996,98.4480046 18.5000005,99.311996 18.3719999,100.112 C18.0839984,101.968009 17.5560037,103.599993 16.7879999,105.008 C16.5639988,105.392002 16.2120023,105.823998 15.7319999,106.304 C15.6679996,106.4 15.5720005,106.496 15.4439999,106.592 C15.4119997,106.656 15.3640002,106.704 15.2999999,106.736 L14.5319999,107.504 L13.5719999,107.216 C13.1239976,105.807993 12.0680082,104.544006 10.4039999,103.424 L14.2439999,103.04 L14.6279999,101.504 C14.7880007,100.895997 14.8839997,100.368002 14.9159999,99.92 C14.9800002,99.0879958 15.0439996,98.0160066 15.1079999,96.704 L15.1559999,95.12 C15.1559999,94.4479966 15.1719997,93.9040021 15.2039999,93.488 L15.5399999,89.504 L8.62799987,96.848 L5.31599987,93.728 L15.0119999,87.872 L15.0119999,80.096 L8.09999987,81.248 L6.46799987,79.376 L14.8679999,78.32 L14.4839999,66.944 C13.7799964,66.6239984 13.0280039,66.3040016 12.2279999,65.984 L15.1559999,64.688 C15.5400018,64.5279992 15.8919983,64.3680008 16.2119999,64.208 L19.4759999,66.416 C18.8039965,68.0800083 18.3720008,69.9359898 18.1799999,71.984 C18.1159996,72.8480043 18.0839999,73.7919949 18.0839999,74.816 C18.0839999,75.616004 18.0999997,76.5919942 18.1319999,77.744 C19.0920047,77.9680011 19.8759968,77.776003 20.4839999,77.168 C20.7400012,76.9439989 20.9959986,76.6240021 21.2519999,76.208 L21.8759999,75.008 C21.9720004,75.3280016 22.1639984,75.6319986 22.4519999,75.92 L22.8359999,76.304 C22.8359999,76.3360002 22.8679996,76.3679998 22.9319999,76.4 L23.2199999,76.688 C23.8280029,77.296003 24.0360008,77.9359966 23.8439999,78.608 L17.9879999,79.664 L18.4199999,85.664 L20.2439999,84.656 C20.8840031,84.2719981 21.4279976,83.9680011 21.8759999,83.744 C22.9960055,84.0000013 24.3879916,84.0800005 26.0519999,83.984 L28.2119999,83.792 C29.0760042,83.7279997 29.795997,83.696 30.3719999,83.696 C30.5000005,83.1199971 30.5639999,82.4480038 30.5639999,81.68 L30.4679999,79.712 C30.4359997,78.911996 30.4359997,78.2720024 30.4679999,77.792 C30.5,77.0879965 30.6119989,76.4480029 30.8039999,75.872 C30.035996,76.2880021 29.0120063,76.5599994 27.7319999,76.688 L26.1959999,76.784 C25.5559967,76.8480003 25.028002,76.9119997 24.6119999,76.976 L23.1239999,74.576 L30.2279999,74.576 L29.8439999,66.416 L27.4439999,65.264 C27.7960016,65.1679995 28.2119975,65.024001 28.6919999,64.832 C28.7560002,64.832 28.8519992,64.8000003 28.9799999,64.736 L29.2679999,64.64 C29.492001,64.5439995 29.6839991,64.4800002 29.8439999,64.448 C30.7080042,64.1279984 31.4119972,63.9999997 31.9559999,64.064 C32.5960031,64.1280003 33.3639954,64.3679979 34.2599999,64.784 L36.7079999,65.936 L34.4519999,69.2 L34.6919999,74.432 L38.5799999,74.432 L41.1239999,71.744 L43.3799999,74.576 L43.8119999,74.336 L43.4279999,76.16 L34.8359999,76.16 L34.8359999,83.504 L40.2119999,83.504 L43.1399999,81.008 L46.3079999,84.368 L45.9239999,85.424 L33.1079999,85.424 L33.0119999,85.712 L35.9399999,87.056 L35.0279999,88.976 L35.0279999,92.768 L37.9079999,92.768 L39.8759999,90.896 L43.0919999,93.2 C42.9639992,94.0960045 42.4200047,94.544 41.4599999,94.544 C40.7239962,94.544 39.9080044,94.5599998 39.0119999,94.592 L36.3719999,94.64 L35.2199999,94.832 L35.2199999,101.648 L40.0679999,101.648 L43.5719999,98.576 L47.1239999,102.56 C47.3160008,102.496 47.4599994,102.464 47.5559999,102.464 L46.8839999,103.904 Z M86.268,64.112 C86.4920011,64.2720008 86.7799982,64.4159994 87.132,64.544 L88.092,64.88 C88.9560043,65.1680014 89.5959979,65.5679974 90.012,66.08 C89.8519992,66.3680014 89.6600011,66.6719984 89.436,66.992 L88.764,67.904 L88.572,70.208 L89.964,70.112 C90.1240008,70.112 90.2679994,70.0960002 90.396,70.064 C91.1000035,70.0319998 91.6919976,69.9680005 92.172,69.872 C92.3320008,69.8399998 92.507999,69.728001 92.7,69.536 C92.7640003,69.5039998 92.8599994,69.4240006 92.988,69.296 L93.228,69.056 L93.996,67.856 L97.5,70.448 C97.6280006,71.3440045 97.196005,71.792 96.204,71.792 L93.132,71.792 C91.9799942,71.792 90.9400046,71.8079998 90.012,71.84 L88.524,71.984 L88.524,75.104 L93.612,74.864 L94.524,73.808 C94.8760018,73.4239981 95.1639989,73.0880014 95.388,72.8 L96.156,73.28 L97.308,74.288 L99.18,76.064 C99.8520034,76.672003 100.028002,77.3919958 99.708,78.224 L96.732,78.656 C95.6439946,78.8160008 94.6520045,78.9439995 93.756,79.04 L94.092,76.496 L88.044,76.496 L87.756,76.976 C87.8200003,77.0080002 87.9319992,77.0399998 88.092,77.072 C88.2520008,77.1040002 88.3639997,77.1519997 88.428,77.216 C88.4920003,77.2480002 88.5399998,77.3119995 88.572,77.408 L88.716,77.6 C88.4919989,78.4640043 88.2360014,79.5839931 87.948,80.96 L92.364,80.96 L94.284,79.616 C95.276005,80.224003 96.1239965,80.7679976 96.828,81.248 L96.828,82.4 L88.092,82.4 L88.092,83.504 L88.188,84.272 C89.8520083,84.7520024 91.8359885,84.5760042 94.14,83.744 L96.3,86.048 L95.868,87.296 L89.676,87.296 L89.58,87.584 L93.036,89.456 L91.884,91.136 C91.0519958,93.8880138 90.9559968,96.7039856 91.596,99.584 C93.8360112,99.8400013 95.8359912,99.3440062 97.596,98.096 C98.0760024,97.5199971 98.3799994,96.7840045 98.508,95.888 C98.5720003,95.5999986 98.6199998,95.2160024 98.652,94.736 L98.7,94.112 C98.7,93.8879989 98.7159998,93.6960008 98.748,93.536 C98.8120003,93.536 98.9079994,93.5040003 99.036,93.44 L99.324,93.824 C99.4200005,93.9840008 99.4520002,94.1119995 99.42,94.208 C99.1959989,95.3600058 99.2439984,96.5439939 99.564,97.76 C99.8200013,98.752005 100.283997,99.8559939 100.956,101.072 L101.052,101.312 C101.084,101.344 101.1,101.392 101.1,101.456 L101.148,101.552 C101.18,101.648 101.196,101.823999 101.196,102.08 C100.939999,102.496002 100.524003,102.783999 99.948,102.944 C99.755999,103.008 99.5000016,103.056 99.18,103.088 C99.1159997,103.12 99.0520003,103.136 98.988,103.136 L98.412,103.232 C97.7079965,103.360001 96.8440051,103.44 95.82,103.472 L93.228,103.52 C91.7559926,103.552 90.2520077,102.864007 88.716,101.456 L88.668,99.056 C88.6359998,98.063995 88.6679995,97.2320034 88.764,96.56 C88.8600005,95.7919962 88.908,94.8160059 88.908,93.632 L88.908,92.144 C88.908,91.5999973 88.9239998,91.1200021 88.956,90.704 C88.9880002,90.2879979 88.9880002,89.7600032 88.956,89.12 L88.956,87.728 L85.644,86.384 L85.308,82.256 L81.228,82.784 L80.892,85.712 C80.7639994,86.8000054 80.6360006,87.7279962 80.508,88.496 C80.315999,90.0640078 80.0760014,91.647992 79.788,93.248 C79.179997,96.1920147 77.7560112,98.7839888 75.516,101.024 C74.3319941,102.208006 73.0040074,103.407994 71.532,104.624 C71.339999,104.784001 71.0680018,104.975999 70.716,105.2 L69.9,105.68 L69.66,105.392 L71.292,103.856 C75.1320192,100.687984 77.3399971,96.608025 77.916,91.616 L78.444,86.432 C78.6040008,84.5119904 78.6680002,82.7840077 78.636,81.248 C78.636,80.5119963 78.6040003,79.7120043 78.54,78.848 L78.348,76.448 L76.908,74.816 L79.74,74.048 L82.284,75.488 C82.8600029,75.4559998 83.6919946,75.3760006 84.78,75.248 L84.78,66.8 C83.9479958,66.2559973 83.3560018,65.888001 83.004,65.696 L86.268,64.112 Z M76.764,87.248 L75.564,89.072 L73.356,97.04 C73.1959992,97.7440035 72.8760024,98.4479965 72.396,99.152 C72.1079986,99.6000022 71.6280034,100.223996 70.956,101.024 C70.5399979,101.472002 69.8520048,102.079996 68.892,102.848 C68.1239962,103.488003 67.2760046,103.440004 66.348,102.704 C66.5080008,102.031997 66.4120018,101.344004 66.06,100.64 C65.9319994,100.383999 65.7560011,100.096002 65.532,99.776 L65.196,99.296 C65.1639998,99.2319997 65.1160003,99.1680003 65.052,99.104 L64.86,98.864 C65.3400024,98.5439984 65.979996,98.4959989 66.78,98.72 L67.692,98.96 C68.0760019,99.0240003 68.4119986,99.0240003 68.7,98.96 C69.7560053,97.551993 70.587997,95.8720098 71.196,93.92 C71.7080026,92.319992 72.0919987,90.4000112 72.348,88.16 C71.8039973,87.9999992 71.1960034,87.9519997 70.524,88.016 C70.2359986,88.0480002 69.9320016,88.1119995 69.612,88.208 L68.7,88.448 C68.1559973,89.8880072 67.3720051,90.6559995 66.348,90.752 C65.8359974,90.4319984 65.6919989,89.872004 65.916,89.072 C66.108001,88.3679965 66.299999,87.5360048 66.492,86.576 L67.02,84.128 C67.0520002,83.9999994 67.068,83.8240011 67.068,83.6 L67.068,82.976 C66.4279968,82.8799995 65.7240038,82.8799995 64.956,82.976 C64.6359984,83.0080002 64.2840019,83.0719995 63.9,83.168 L61.884,83.552 C61.4999981,83.6480005 61.1640014,83.7119998 60.876,83.744 C60.1399963,83.8400005 59.468003,83.8400005 58.86,83.744 L57.756,81.488 L61.452,81.392 L64.044,81.392 C65.0040048,81.392 65.8519963,81.3760002 66.588,81.344 C67.5160046,81.344 68.379996,81.3280002 69.18,81.296 C69.5960021,81.296 70.1559965,81.2640003 70.86,81.2 L71.676,81.152 C71.9960016,81.1199998 72.2679989,81.104 72.492,81.104 C73.6440058,81.0399997 74.4279979,80.5920042 74.844,79.76 L75.228,78.992 L77.82,81.44 L77.484,82.4 C77.0039976,82.4320002 76.3800038,82.4320002 75.612,82.4 L73.788,82.352 C72.3159926,82.3840002 71.084005,82.5759982 70.092,82.928 L69.084,86.768 L72.06,86.48 C72.860004,85.5519954 73.5799968,84.7520034 74.22,84.08 L76.764,87.248 Z M75.132,67.184 L77.916,70.592 C77.115996,71.2320032 76.620001,72.1759938 76.428,73.424 C76.3639997,73.6480011 76.3160002,73.9199984 76.284,74.24 L76.236,75.056 C76.1719997,75.7600035 76.1080003,76.3199979 76.044,76.736 L68.364,76.736 C68.2359994,77.6640046 68.0600011,78.3359979 67.836,78.752 C67.5159984,79.3920032 66.956004,79.8239989 66.156,80.048 L65.964,79.328 C65.8679995,79.0399986 65.82,78.800001 65.82,78.608 C65.7879998,77.4239941 65.772,76.0960074 65.772,74.624 L65.772,70.736 L64.284,69.392 C65.3720054,68.9439978 66.2359968,68.6080011 66.876,68.384 C67.9000051,68.9600029 68.8599955,69.3599989 69.756,69.584 C70.8440054,69.8720014 71.9479944,69.920001 73.068,69.728 L75.132,67.184 Z M83.388,88.736 C83.5160006,88.7039998 83.7399984,88.6560003 84.06,88.592 L84.876,88.448 L87.132,89.744 L86.556,91.856 C86.3319989,92.6240038 86.1720005,93.2319978 86.076,93.68 C85.7239982,95.4400088 85.0680048,97.1359918 84.108,98.768 C83.2439957,100.208007 82.108007,101.647993 80.7,103.088 C79.9319962,103.856004 78.9720058,104.607996 77.82,105.344 C77.4039979,105.632001 76.892003,105.951998 76.284,106.304 C76.1879995,106.4 76.0600008,106.48 75.9,106.544 L74.748,107.264 C74.6519995,107.328 74.5240008,107.376 74.364,107.408 L73.932,107.456 C73.8999998,107.295999 73.8360005,107.184 73.74,107.12 C73.8680006,107.056 73.9959994,106.976 74.124,106.88 L74.844,106.304 C74.9720006,106.208 75.0999994,106.128 75.228,106.064 C77.6920123,104.527992 79.6439928,102.688011 81.084,100.544 C82.876009,97.9839872 83.772,95.1840152 83.772,92.144 C83.772,91.6959978 83.7240005,91.1360034 83.628,90.464 L83.388,88.736 Z M68.748,71.312 C68.748,71.4720008 68.7320002,71.647999 68.7,71.84 L68.556,73.328 C68.4599995,74.0640037 68.3960002,74.6879974 68.364,75.2 L72.972,75.2 L73.212,71.024 L68.748,71.312 Z M85.26,80.912 L85.26,76.64 L81.708,76.88 C81.5799994,78.0000056 81.4680005,79.3439922 81.372,80.912 L85.26,80.912 Z" id="今日-挂号1" fill="#111111"></path>
    </g>
</svg>