<?xml version="1.0" encoding="UTF-8"?>
<svg width="88px" height="88px" viewBox="0 0 88 88" version="1.1" xmlns="http://www.w3.org/2000/svg" xmlns:xlink="http://www.w3.org/1999/xlink">
    <!-- Generator: Sketch 52.2 (67145) - http://www.bohemiancoding.com/sketch -->
    <title>信息公告</title>
    <desc>Created with Sketch.</desc>
    <g id="Page-1" stroke="none" stroke-width="1" fill="none" fill-rule="evenodd">
        <g id="首页" transform="translate(-618.000000, -854.000000)">
            <g id="信息公告" transform="translate(618.000000, 854.000000)">
                <circle id="椭圆形" fill="#FFFFFF" fill-rule="nonzero" cx="44" cy="44" r="44"></circle>
                <g id="Group-19" transform="translate(14.000000, 17.000000)">
                    <rect id="Rectangle" fill="#B27676" x="8.27586207" y="4.13793103" width="45.5172414" height="45.5172414"></rect>
                    <path d="M8.62068966,46.5708876 C9.67887821,47.3285711 10.3448276,48.4296554 10.3448276,49.6551724 C10.3448276,51.9404886 8.02905905,53.7931034 5.17241379,53.7931034 C2.31576854,53.7931034 0,51.9404886 0,49.6551724 C0,48.4296554 0.665949379,47.3285711 1.72413793,46.5708876 L1.72413793,7.22221587 C0.665949379,6.46453235 0,5.36344802 0,4.13793103 C0,1.85261483 2.31576854,0 5.17241379,0 C8.02905905,0 10.3448276,1.85261483 10.3448276,4.13793103 C10.3448276,5.36344802 9.67887821,6.46453235 8.62068966,7.22221587 L8.62068966,46.5708876 Z" id="Combined-Shape" fill="#DCA4A4"></path>
                    <path d="M51.3793103,7.22221587 C50.3211218,6.46453235 49.6551724,5.36344802 49.6551724,4.13793103 C49.6551724,1.85261483 51.9709409,0 54.8275862,0 C57.6842315,0 60,1.85261483 60,4.13793103 C60,5.36344802 59.3340506,6.46453235 58.2758621,7.22221587 L58.2758621,46.5708876 C59.3340506,47.3285711 60,48.4296554 60,49.6551724 C60,51.9404886 57.6842315,53.7931034 54.8275862,53.7931034 C51.9709409,53.7931034 49.6551724,51.9404886 49.6551724,49.6551724 C49.6551724,48.4296554 50.3211218,47.3285711 51.3793103,46.5708876 L51.3793103,7.22221587 Z" id="Combined-Shape" fill="#DCA4A4"></path>
                    <rect id="Rectangle-24" fill="#FFFFFF" x="39.3103448" y="14.4827586" width="4.13793103" height="24.8275862" rx="2"></rect>
                    <rect id="Rectangle-24-Copy" fill="#FFFFFF" x="28.9655172" y="14.4827586" width="4.13793103" height="18.6206897" rx="2"></rect>
                </g>
            </g>
        </g>
    </g>
</svg>