<?xml version="1.0" encoding="UTF-8"?>
<svg width="54px" height="43px" viewBox="0 0 54 43" version="1.1" xmlns="http://www.w3.org/2000/svg" xmlns:xlink="http://www.w3.org/1999/xlink">
    <!-- Generator: Sketch 52.2 (67145) - http://www.bohemiancoding.com/sketch -->
    <title>Group 20</title>
    <desc>Created with Sketch.</desc>
    <defs>
        <linearGradient x1="50%" y1="97.6336705%" x2="50%" y2="1.11768425%" id="linearGradient-1">
            <stop stop-color="#EBB27B" offset="0%"></stop>
            <stop stop-color="#D88A5B" offset="100%"></stop>
        </linearGradient>
    </defs>
    <g id="Page-1" stroke="none" stroke-width="1" fill="none" fill-rule="evenodd">
        <g id="切图-copy" transform="translate(-204.000000, -374.000000)" fill="url(#linearGradient-1)">
            <g id="Group-20" transform="translate(204.000000, 374.000000)">
                <path d="M54,6.05376004 L54,34.428572 C54,38.84685 50.418278,42.428572 46,42.428572 L8,42.428572 C3.581722,42.428572 5.41083001e-16,38.84685 0,34.428572 L0,6 C-7.54987166e-17,5.38350619 0.0697337841,4.78329959 0.201743811,4.20683772 C0.48077988,4.87076066 0.904630474,5.47297629 1.45182425,5.96528456 L23.1246895,25.4642831 C25.1664497,27.3012473 28.2458641,27.3649754 30.3618751,25.6140556 L53.9462895,6.09883623 C53.9643261,6.08391155 53.9822297,6.06888565 54,6.05376004 Z M50.7969843,0.892857143 C51.2141783,0.892857143 51.609636,1.0789181 51.8756019,1.40034151 C52.3685246,1.99604553 52.285204,2.8785519 51.6894999,3.37147467 L28.1050856,22.886694 C27.3411827,23.518795 26.2294807,23.4957885 25.4923832,22.8326245 L3.81951793,3.33362602 C3.52441315,3.06812132 3.35589396,2.68982005 3.35589396,2.29285712 C3.35589396,1.51965848 3.9826953,0.892857143 4.75589394,0.892857143 L50.7969843,0.892857143 Z" id="Combined-Shape"></path>
            </g>
        </g>
    </g>
</svg>