<?xml version="1.0" encoding="UTF-8"?>
<svg width="60px" height="54px" viewBox="0 0 60 54" version="1.1" xmlns="http://www.w3.org/2000/svg" xmlns:xlink="http://www.w3.org/1999/xlink">
    <!-- Generator: Sketch 52.2 (67145) - http://www.bohemiancoding.com/sketch -->
    <title>Group 19</title>
    <desc>Created with Sketch.</desc>
    <g id="Page-1" stroke="none" stroke-width="1" fill="none" fill-rule="evenodd">
        <g id="切图-copy" transform="translate(-500.000000, -194.000000)">
            <g id="Group-19" transform="translate(500.000000, 194.000000)">
                <rect id="Rectangle" fill="#B27676" x="8.27586207" y="4.15384615" width="45.5172414" height="45.6923077"></rect>
                <path d="M8.62068966,46.7500064 C9.67887821,47.5106041 10.3448276,48.6159233 10.3448276,49.8461538 C10.3448276,52.1402597 8.02905905,54 5.17241379,54 C2.31576854,54 0,52.1402597 0,49.8461538 C0,48.6159233 0.665949379,47.5106041 1.72413793,46.7500064 L1.72413793,7.24999363 C0.665949379,6.48939594 0,5.38407666 0,4.15384615 C0,1.85974027 2.31576854,0 5.17241379,0 C8.02905905,0 10.3448276,1.85974027 10.3448276,4.15384615 C10.3448276,5.38407666 9.67887821,6.48939594 8.62068966,7.24999363 L8.62068966,46.7500064 Z" id="Combined-Shape" fill="#DCA4A4"></path>
                <path d="M51.3793103,7.24999363 C50.3211218,6.48939594 49.6551724,5.38407666 49.6551724,4.15384615 C49.6551724,1.85974027 51.9709409,0 54.8275862,0 C57.6842315,0 60,1.85974027 60,4.15384615 C60,5.38407666 59.3340506,6.48939594 58.2758621,7.24999363 L58.2758621,46.7500064 C59.3340506,47.5106041 60,48.6159233 60,49.8461538 C60,52.1402597 57.6842315,54 54.8275862,54 C51.9709409,54 49.6551724,52.1402597 49.6551724,49.8461538 C49.6551724,48.6159233 50.3211218,47.5106041 51.3793103,46.7500064 L51.3793103,7.24999363 Z" id="Combined-Shape" fill="#DCA4A4"></path>
                <rect id="Rectangle-24" fill="#FFFFFF" x="39.3103448" y="14.5384615" width="4.13793103" height="24.9230769" rx="2"></rect>
                <rect id="Rectangle-24-Copy" fill="#FFFFFF" x="28.9655172" y="14.5384615" width="4.13793103" height="18.6923077" rx="2"></rect>
            </g>
        </g>
    </g>
</svg>