<?xml version="1.0" encoding="UTF-8"?>
<svg width="59px" height="48px" viewBox="0 0 59 48" version="1.1" xmlns="http://www.w3.org/2000/svg" xmlns:xlink="http://www.w3.org/1999/xlink">
    <!-- Generator: Sketch 52.2 (67145) - http://www.bohemiancoding.com/sketch -->
    <title>Group 12 Copy</title>
    <desc>Created with Sketch.</desc>
    <defs>
        <path d="M31.7085844,14.4 C29.3875524,17.306538 28,20.9912289 28,25 C28,34.3888407 35.6111593,42 45,42 C46.0462607,42 47.070446,41.9054837 48.0644832,41.7245237 L49.585744,43.5171085 C50.2592159,44.3106973 51.073872,44.9180462 51.9629121,45.3333765 C50.4980585,46.9700164 48.369312,48 46,48 L8,48 C3.581722,48 5.41083001e-16,44.418278 0,40 L0,14.4 L31.7085844,14.4 Z M54,10.575107 C51.3899487,8.94319574 48.3051219,8 45,8 C41.2932954,8 37.8636714,9.18632261 35.0700956,11.2 L0,11.2 L0,8 C-5.41083001e-16,3.581722 3.581722,8.11624501e-16 8,0 L46,0 C50.418278,-8.11624501e-16 54,3.581722 54,8 L54,10.575107 Z" id="path-1"></path>
        <linearGradient x1="50%" y1="0%" x2="50%" y2="98.6906091%" id="linearGradient-3">
            <stop stop-color="#7988CF" offset="0%"></stop>
            <stop stop-color="#A8B1E3" offset="100%"></stop>
        </linearGradient>
    </defs>
    <g id="Page-1" stroke="none" stroke-width="1" fill="none" fill-rule="evenodd">
        <g id="切图-copy" transform="translate(-504.000000, -370.000000)">
            <g id="Group-12-Copy" transform="translate(504.000000, 370.000000)">
                <g id="Rectangle-69">
                    <mask id="mask-2" fill="white">
                        <use xlink:href="#path-1"></use>
                    </mask>
                    <use id="Combined-Shape" fill="#7988CF" xlink:href="#path-1"></use>
                    <rect id="Rectangle-24" stroke="#979797" stroke-width="2" fill="#A8B1E3" mask="url(#mask-2)" x="-5" y="-5" width="64" height="18"></rect>
                </g>
                <path d="M50,32 L58,32 L58,38 C58,40.209139 56.209139,42 54,42 L54,42 C51.790861,42 50,40.209139 50,38 L50,32 Z" id="Rectangle-61" fill="url(#linearGradient-3)" transform="translate(54.000000, 37.000000) rotate(-40.000000) translate(-54.000000, -37.000000) "></path>
                <circle id="Oval-22" stroke="#A8B1E3" stroke-width="4" cx="45" cy="25" r="11"></circle>
            </g>
        </g>
    </g>
</svg>