<?xml version="1.0" encoding="UTF-8"?>
<svg width="88px" height="88px" viewBox="0 0 88 88" version="1.1" xmlns="http://www.w3.org/2000/svg" xmlns:xlink="http://www.w3.org/1999/xlink">
    <!-- Generator: Sketch 52.2 (67145) - http://www.bohemiancoding.com/sketch -->
    <title>床位预约查询</title>
    <desc>Created with Sketch.</desc>
    <defs>
        <path d="M54,11.2 L0,11.2 L0,8 C-5.41083001e-16,3.581722 3.581722,8.11624501e-16 8,0 L46,0 C50.418278,-8.11624501e-16 54,3.581722 54,8 L54,11.2 Z M54,14.4 L54,40 C54,44.418278 50.418278,48 46,48 L8,48 C3.581722,48 5.41083001e-16,44.418278 0,40 L0,14.4 L54,14.4 Z" id="path-1"></path>
        <linearGradient x1="50%" y1="0%" x2="50%" y2="98.6906091%" id="linearGradient-3">
            <stop stop-color="#7988CF" offset="0%"></stop>
            <stop stop-color="#A8B1E3" offset="100%"></stop>
        </linearGradient>
    </defs>
    <g id="Page-1" stroke="none" stroke-width="1" fill="none" fill-rule="evenodd">
        <g id="首页" transform="translate(-618.000000, -1024.000000)">
            <g id="床位预约查询" transform="translate(618.000000, 1024.000000)">
                <circle id="椭圆形" fill="#FFFFFF" fill-rule="nonzero" cx="44" cy="44" r="44"></circle>
                <g id="Group-12-Copy" transform="translate(13.000000, 20.000000)">
                    <g id="Rectangle-69">
                        <mask id="mask-2" fill="white">
                            <use xlink:href="#path-1"></use>
                        </mask>
                        <use id="Mask" fill="#7988CF" xlink:href="#path-1"></use>
                        <rect id="Rectangle-24" stroke="#979797" stroke-width="2" fill="#A8B1E3" mask="url(#mask-2)" x="-5" y="-5" width="64" height="18"></rect>
                    </g>
                    <path d="M44,36.9351206 L54.7695438,28 L60.3552878,34.5819879 C62.8507091,37.5224795 62.4628034,41.9064138 59.488876,44.3737792 C56.5149486,46.8411446 52.0811653,46.4576001 49.585744,43.5171085 L44,36.9351206 Z" id="Rectangle-61-Copy-2" fill="#FFFFFF"></path>
                    <circle id="Oval-22-Copy" fill="#FFFFFF" cx="45" cy="25" r="17"></circle>
                    <path d="M50,32 L58,32 L58,38 C58,40.209139 56.209139,42 54,42 L54,42 C51.790861,42 50,40.209139 50,38 L50,32 Z" id="Rectangle-61" fill="url(#linearGradient-3)" transform="translate(54.000000, 37.000000) rotate(-40.000000) translate(-54.000000, -37.000000) "></path>
                    <circle id="Oval-22" stroke="#A8B1E3" stroke-width="4" cx="45" cy="25" r="11"></circle>
                </g>
            </g>
        </g>
    </g>
</svg>