<?xml version="1.0" encoding="UTF-8"?>
<svg width="88px" height="88px" viewBox="0 0 88 88" version="1.1" xmlns="http://www.w3.org/2000/svg" xmlns:xlink="http://www.w3.org/1999/xlink">
    <!-- Generator: Sketch 52.2 (67145) - http://www.bohemiancoding.com/sketch -->
    <title>随访通知</title>
    <desc>Created with Sketch.</desc>
    <defs>
        <linearGradient x1="50%" y1="97.6336705%" x2="50%" y2="1.11768425%" id="linearGradient-1">
            <stop stop-color="#EBB27B" offset="0%"></stop>
            <stop stop-color="#D88A5B" offset="100%"></stop>
        </linearGradient>
    </defs>
    <g id="Page-1" stroke="none" stroke-width="1" fill="none" fill-rule="evenodd">
        <g id="首页" transform="translate(-242.000000, -1024.000000)">
            <g id="随访通知" transform="translate(242.000000, 1024.000000)">
                <circle id="椭圆形" fill="#FFFFFF" fill-rule="nonzero" cx="44" cy="44" r="44"></circle>
                <g id="Group-20" transform="translate(17.000000, 21.000000)">
                    <rect id="Rectangle-27" fill="url(#linearGradient-1)" x="0" y="0" width="54" height="44.428572" rx="8"></rect>
                    <path d="M4.75602718,1.12285714 L50.7971176,1.12285714 C52.5478602,1.12285714 53.9671175,2.54211448 53.9671175,4.29285712 C53.9671175,5.19169463 53.5855419,6.04827679 52.9173404,6.64945529 L31.2444751,26.1484538 C29.8550463,27.3985179 27.7594881,27.4418852 26.3195312,26.2503748 L2.73511681,6.73515545 C1.38627269,5.61903747 1.19761087,3.62079087 2.31372885,2.27194675 C2.91595148,1.54415232 3.81138078,1.12285714 4.75602718,1.12285714 Z" id="Rectangle-27-Copy" stroke="#FFFFFF" stroke-width="3.54" fill="#CD8A50" transform="translate(27.772292, 14.130784) scale(-1, 1) translate(-27.772292, -14.130784) "></path>
                </g>
            </g>
        </g>
    </g>
</svg>