<?xml version="1.0" encoding="UTF-8"?>
<svg width="88px" height="88px" viewBox="0 0 88 88" version="1.1" xmlns="http://www.w3.org/2000/svg" xmlns:xlink="http://www.w3.org/1999/xlink">
    <!-- Generator: Sketch 52.2 (67145) - http://www.bohemiancoding.com/sketch -->
    <title>国际医疗</title>
    <desc>Created with Sketch.</desc>
    <defs>
        <linearGradient x1="159.00361%" y1="50%" x2="33.9571923%" y2="50%" id="linearGradient-1">
            <stop stop-color="#CCA7CE" offset="0%"></stop>
            <stop stop-color="#AB80AD" offset="100%"></stop>
        </linearGradient>
        <path d="M8,0 L40,0 C44.418278,-8.11624501e-16 48,3.581722 48,8 L48,46 C48,50.418278 44.418278,54 40,54 L8,54 C3.581722,54 5.41083001e-16,50.418278 0,46 L0,8 C-5.41083001e-16,3.581722 3.581722,8.11624501e-16 8,0 Z" id="path-2"></path>
    </defs>
    <g id="Page-1" stroke="none" stroke-width="1" fill="none" fill-rule="evenodd">
        <g id="首页" transform="translate(-429.000000, -1024.000000)">
            <g id="国际医疗" transform="translate(429.000000, 1024.000000)">
                <circle id="椭圆形" fill="#FFFFFF" fill-rule="nonzero" cx="44" cy="44" r="44"></circle>
                <g id="Path-8-Copy" transform="translate(19.000000, 20.000000)">
                    <mask id="mask-3" fill="white">
                        <use xlink:href="#path-2"></use>
                    </mask>
                    <use id="Mask" fill="url(#linearGradient-1)" xlink:href="#path-2"></use>
                    <rect id="Rectangle-23" stroke="#979797" stroke-width="2" fill="#BE99BF" mask="url(#mask-3)" x="-1" y="-5" width="12" height="66"></rect>
                    <path d="" id="Path-2" stroke="#979797" stroke-width="2" mask="url(#mask-3)"></path>
                    <rect id="Rectangle-12-Copy" fill="#FFFFFF" mask="url(#mask-3)" x="10" y="-14" width="4" height="84"></rect>
                </g>
            </g>
        </g>
    </g>
</svg>