<?xml version="1.0" encoding="UTF-8"?>
<svg width="97px" height="107px" viewBox="0 0 97 107" version="1.1" xmlns="http://www.w3.org/2000/svg" xmlns:xlink="http://www.w3.org/1999/xlink">
    <!-- Generator: Sketch 52.2 (67145) - http://www.bohemiancoding.com/sketch -->
    <title>今日 挂号2</title>
    <desc>Created with Sketch.</desc>
    <g id="Page-1" stroke="none" stroke-width="1" fill="none" fill-rule="evenodd">
        <path d="M33.9639999,30.68 L24.8439999,30.68 C25.0360008,31.8320058 24.620005,32.9679944 23.5959999,34.088 C23.4999994,34.1840005 23.340001,34.2799995 23.1159999,34.376 L22.2999999,34.712 L22.1559999,32.792 C22.1239997,32.1519968 22.1079999,31.5920024 22.1079999,31.112 L22.1559999,21.608 C22.1559999,19.5919899 22.0920005,17.7680082 21.9639999,16.136 C21.9319997,15.7519981 21.8680004,15.256003 21.7719999,14.648 L21.6279999,14.072 C21.6279999,13.9759995 21.612,13.8960003 21.5799999,13.832 L21.4359999,13.016 C22.4920052,12.8879994 23.6279938,13.1919963 24.8439999,13.928 C25.4520029,13.319997 25.9959975,12.4720054 26.4759999,11.384 L27.8199999,8.408 L22.8279999,9.32 L21.4359999,5.672 L34.8759999,6.2 L38.1879999,3.368 C38.7000024,3.43200032 39.4039954,3.95999504 40.2999999,4.952 C41.2280045,5.97600512 41.8199986,6.93599552 42.0759999,7.832 C41.8839989,8.4720032 41.4040037,8.69600096 40.6359999,8.504 C39.5159943,8.24799872 38.2680068,8.08800032 36.8919999,8.024 C35.9639952,7.95999968 34.7160077,7.94399984 33.1479999,7.976 C32.8919986,7.976 32.5880016,7.94400032 32.2359999,7.88 C32.1719996,7.84799984 32.0920004,7.832 31.9959999,7.832 L31.3239999,7.688 L30.0279999,8.12 C29.5159973,8.2800008 29.0680018,8.40799952 28.6839999,8.504 L30.8919999,11.048 L27.0039999,14.36 L27.1479999,14.696 C28.3000056,13.9599963 29.1319973,13.7519984 29.6439999,14.072 L33.6759999,13.736 L35.1639999,11.288 L36.2199999,11.768 L36.0279999,12.536 C36.6360029,12.3119989 37.2439968,12.4239978 37.8519999,12.872 L38.1879999,13.16 C38.3480007,13.3200008 38.4599996,13.4159998 38.5239999,13.448 C38.8120013,13.6720011 39.0679988,13.8159997 39.2919999,13.88 C39.6440016,14.9680054 39.3720044,15.8799963 38.4759999,16.616 L39.1479999,26.6 C39.2120002,27.400004 39.1960004,28.0879971 39.0999999,28.664 C39.0679997,29.0800021 38.9080013,29.5599973 38.6199999,30.104 L38.3799999,30.632 C38.3479997,30.7280005 38.316,30.7919998 38.2839999,30.824 C38.1239991,31.1120014 38.0120002,31.351999 37.9479999,31.544 L37.8039999,32.408 L36.2679999,33.608 L37.8519999,34.472 C38.4920031,34.7920016 38.9879981,35.0639989 39.3399999,35.288 C40.556006,35.9920035 41.2439991,36.9839936 41.4039999,38.264 C41.4680002,38.5840016 41.4360005,38.9999974 41.3079999,39.512 L40.9719999,40.76 L38.6679999,41.72 C37.9639964,41.5599992 37.3720023,41.1920029 36.8919999,40.616 C36.7319991,40.3919989 36.5720007,40.1200016 36.4119999,39.8 L35.9799999,38.936 C35.4999975,37.9759952 34.9080034,36.9520054 34.2039999,35.864 C33.7239975,35.1599965 33.0360044,34.2320058 32.1399999,33.08 L31.3239999,32.024 L31.4679999,31.736 L34.6839999,32.696 L33.9639999,30.68 Z M9.33999987,42.152 C9.37200003,41.1919952 9.10000275,40.3760034 8.52399987,39.704 C8.13999795,39.2559978 7.48400451,38.7600027 6.55599987,38.216 L6.65199987,37.928 L10.2039999,38.264 C10.5560016,36.8879931 10.7959992,35.4160078 10.9239999,33.848 C11.0200004,32.5679936 11.0360002,31.0960083 10.9719999,29.432 C10.9719999,28.823997 10.956,28.0880043 10.9239999,27.224 L10.7319999,22.808 L10.7319999,20.552 L2.57199987,22.136 L2.04399987,20.456 L0.79599987,18.92 L16.9719999,18.44 L18.3159999,16.568 L21.5799999,19.928 C21.4519992,20.3760022 21.3560002,20.8559974 21.2919999,21.368 L17.5479999,22.376 L17.5479999,20.216 C16.9399968,20.2480002 16.2040042,20.3119995 15.3399999,20.408 L12.9879999,20.6 L16.2039999,22.28 C15.5639967,22.9840035 15.2120002,23.8639947 15.1479999,24.92 L15.1959999,27.608 C15.1639997,28.1520027 15.1479999,28.7919963 15.1479999,29.528 L15.0999999,33.32 L15.0039999,35.24 C14.9719997,35.8160029 14.844001,36.5199958 14.6199999,37.352 L14.0919999,39.416 C13.1959954,40.1840038 12.4760026,40.7279984 11.9319999,41.048 C11.0999957,41.5920027 10.2360044,41.959999 9.33999987,42.152 Z M33.7239999,14.888 L24.7959999,15.704 L24.7959999,18.92 C25.1800018,18.8879998 25.659997,18.8879998 26.2359999,18.92 L27.6759999,18.968 C28.8280056,19.0000002 29.787996,18.7920022 30.5559999,18.344 L32.4759999,18.344 L32.3319999,19.448 L24.9399999,20.12 L24.9399999,23.912 L32.4279999,23.912 L32.4279999,24.872 L25.0359999,25.448 L25.0359999,29.528 L28.6839999,29.288 L29.0199999,29.528 C29.1480005,29.6240005 29.2759992,29.7039997 29.4039999,29.768 L29.4039999,29.576 L34.0599999,29.576 L34.2999999,28.136 C34.332,28.0079994 34.3479999,27.8800006 34.3479999,27.752 L33.7239999,14.888 Z M13.5639999,11.672 C13.6600004,11.4479989 13.8039989,11.0800026 13.9959999,10.568 L14.4279999,9.416 C14.7800016,8.55199568 15.0839986,7.75200368 15.3399999,7.016 C14.8919976,7.1760008 14.3640029,7.28799968 13.7559999,7.352 C13.5319988,7.38400016 13.2600015,7.4 12.9399999,7.4 L12.1719999,7.448 C10.9239936,7.54400048 9.96400323,7.8319976 9.29199987,8.312 C9.13199907,8.40800048 8.89200147,8.44000016 8.57199987,8.408 L7.65999987,8.408 C7.59599955,8.47200032 7.50000051,8.53599968 7.37199987,8.6 C7.33999971,8.6 7.27600035,8.63199968 7.17999987,8.696 C7.11599955,8.76000032 7.06800003,8.792 7.03599987,8.792 L6.36399987,9.224 C6.07599843,9.224 5.86800051,9.16000064 5.73999987,9.032 C5.64399939,8.93599952 5.56400019,8.79200096 5.49999987,8.6 L5.45199987,8.36 C5.45199987,8.1999992 5.43600003,8.10400016 5.40399987,8.072 C5.37199971,7.87999904 5.32400019,7.73600048 5.25999987,7.64 L3.86799987,5.96 L15.5799999,5.528 C16.2200031,4.5679952 16.7159981,3.78400304 17.0679999,3.176 L20.8599999,6.872 L14.7639999,11.72 L16.5879999,15.656 L14.9079999,17.096 C14.2359965,17.5760024 13.5320036,17.8000002 12.7959999,17.768 L12.4599999,17.384 C12.3319992,17.191999 12.252,17.0160008 12.2199999,16.856 C11.9639986,15.5119933 11.5960023,14.3600048 11.1159999,13.4 C10.6039973,12.2479942 9.90000435,11.2560042 9.00399987,10.424 C8.84399907,10.2639992 8.81199939,9.96000224 8.90799987,9.512 C9.54800307,9.8320016 10.2999956,10.1839981 11.1639999,10.568 L13.5639999,11.672 Z M15.4839999,42.392 C19.8040215,39.7359867 23.6119834,36.4240198 26.9079999,32.456 C27.8360045,32.7760016 28.5719972,33.7199922 29.1159999,35.288 L27.0999999,36.584 L26.0919999,37.304 C25.7399981,37.5600013 25.452001,37.783999 25.2279999,37.976 C23.4999912,39.0640054 21.9320069,39.9439966 20.5239999,40.616 C18.7959912,41.416004 17.116008,42.0079981 15.4839999,42.392 Z M64.756,45.08 C64.147997,44.8559989 63.844,44.2800046 63.844,43.352 L64.084,38.744 C64.1480003,37.143992 64.18,35.6240072 64.18,34.184 C64.2120002,33.1599949 64.1800005,31.9760067 64.084,30.632 L63.796,27.08 C63.796,26.9199992 63.7320006,26.7120013 63.604,26.456 L63.46,26.264 C63.4279998,26.2319998 63.412,26.2000002 63.412,26.168 C63.3159995,26.0399994 63.2520002,25.9280005 63.22,25.832 L57.172,28.76 L55.924,28.376 L55.924,23.576 L59.14,23.576 L64.516,18.152 L64.324,17.912 L63.076,18.248 L61.732,17.624 C61.4119984,15.5759898 60.4840077,13.9600059 58.948,12.776 L59.236,11.384 L59.428,11.528 L64.084,6.344 C64.9160042,5.44799552 65.4119992,4.66400336 65.572,3.992 C65.764001,3.09599552 65.4440042,2.1680048 64.612,1.208 C65.9240066,1.01599904 67.3639922,1.04799872 68.932,1.304 L70.756,4.28 C70.3079978,4.85600288 69.6520043,5.52799616 68.788,6.296 L66.676,8.168 C66.0999971,8.71200272 65.3800043,9.35199632 64.516,10.088 C64.2919989,10.3120011 63.9400024,10.6159981 63.46,11 L62.356,11.96 C62.4520005,12.0560005 62.5639994,12.1359997 62.692,12.2 C62.7880005,12.2960005 62.9159992,12.3919995 63.076,12.488 C63.1080002,12.488 63.1719995,12.5199997 63.268,12.584 L63.796,12.968 C64.3400027,13.3520019 64.707999,13.7359981 64.9,14.12 C65.092001,14.4720018 65.188,14.9679968 65.188,15.608 L65.14,17.336 C65.1720002,17.3039998 65.2359995,17.2720002 65.332,17.24 L65.428,17.192 C65.4600002,17.192 65.4919998,17.1760002 65.524,17.144 C65.6840008,17.0799997 65.7959997,17.0000005 65.86,16.904 C66.0840011,16.5199981 66.4039979,16.0720026 66.82,15.56 L67.876,14.264 C68.7080042,13.2079947 69.2519987,12.2320045 69.508,11.336 C69.6040005,11.0479986 69.6200003,10.5680034 69.556,9.896 C69.556,9.76799936 69.5240003,9.59200112 69.46,9.368 L69.316,8.744 L71.524,9.224 C71.6200005,9.48000128 71.8119986,9.75199856 72.1,10.04 L72.772,10.856 C73.3480029,11.5600035 73.5720006,12.2799963 73.444,13.016 C71.5239904,15.0960104 69.4920107,16.8559928 67.348,18.296 C66.9319979,19.0640038 66.2120051,19.8959955 65.188,20.792 L64.276,21.56 C64.2439998,21.6240003 64.2120002,21.656 64.18,21.656 L63.844,21.944 C63.2999973,22.3920022 62.8520018,22.7919982 62.5,23.144 C63.492005,23.336001 64.7399925,23.3520008 66.244,23.192 L68.068,22.952 C68.7400034,22.8879997 69.3319974,22.8719998 69.844,22.904 C69.9400005,22.1999965 69.8280016,21.4800037 69.508,20.744 L68.404,18.92 L70.42,19.496 C71.1560037,19.7840014 71.7479978,20.1199981 72.196,20.504 C72.8360032,21.112003 73.3479981,21.7359968 73.732,22.376 C74.1160019,23.0800035 74.212001,23.8159962 74.02,24.584 C73.8919994,25.192003 73.5880024,25.8799962 73.108,26.648 C73.0119995,26.8080008 72.868001,26.9999989 72.676,27.224 L72.148,27.8 L70.852,27.512 C70.659999,26.519995 70.5000006,25.4640056 70.372,24.344 L66.676,25.016 L68.596,26.84 L67.204,27.8 C67.2360002,28.8880054 67.2999995,30.135993 67.396,31.544 L67.78,38.072 C67.8760005,39.1280053 67.9080002,40.0239963 67.876,40.76 C67.7799995,42.9040107 66.7400099,44.3439963 64.756,45.08 Z M83.476,44.312 C83.283999,44.0559987 83.1560003,43.8160011 83.092,43.592 C82.8039986,42.4079941 82.4200024,41.4000042 81.94,40.568 C81.3639971,39.6399954 80.6120046,38.8880029 79.684,38.312 C79.5879995,38.2479997 79.54,38.1680005 79.54,38.072 C79.5079998,38.0399998 79.5239997,37.9440008 79.588,37.784 L84.628,39.416 C85.236003,38.6799963 85.7319981,37.8480046 86.116,36.92 C86.4040014,36.1839963 86.6759987,35.2720054 86.932,34.184 C88.0520056,29.0319742 88.612,23.8480261 88.612,18.632 L88.612,15.08 C88.2919984,15.0479998 87.8600027,14.9840005 87.316,14.888 C86.7399971,14.7919995 86.3240013,14.7120003 86.068,14.648 C85.1399954,14.5519995 84.3400034,14.5679994 83.668,14.696 C83.059997,14.7920005 82.2760048,14.8240002 81.316,14.792 L78.916,14.744 L73.636,21.272 C73.2199979,20.8559979 72.9640005,20.5840006 72.868,20.456 C75.6200138,15.8799771 77.4119958,11.0160258 78.244,5.864 C78.4040008,4.87199504 78.3240016,4.00800368 78.004,3.272 C77.9079995,3.01599872 77.7000016,2.7280016 77.38,2.408 L76.516,1.64 C77.7000059,0.61599488 79.0119928,0.29599808 80.452,0.68 C81.860007,1.06400192 83.059995,2.055992 84.052,3.656 L80.068,11.96 C80.260001,11.96 80.451999,11.9759998 80.644,12.008 C80.8040008,12.008 80.9959989,12.0239998 81.22,12.056 L82.276,12.2 C83.076004,12.2640003 83.7319974,12.2640003 84.244,12.2 C85.4600061,12.0399992 86.4999957,11.9759998 87.364,12.008 C87.5880011,12.0400002 87.8599984,11.9760008 88.18,11.816 L88.948,11.384 C89.1080008,11.2879995 89.2679992,11.1760006 89.428,11.048 L90.724,9.944 C92.8680107,11.2240064 94.1159982,12.8239904 94.468,14.744 L93.412,15.704 L93.22,15.608 L92.884,18.056 L92.02,26.168 C91.7959989,28.3440109 91.588001,30.231992 91.396,31.832 C91.0759984,34.3920128 90.6600026,36.6159906 90.148,38.504 C89.8919987,39.5920054 89.3800038,40.631995 88.612,41.624 C88.003997,42.424004 87.1720053,43.2399958 86.116,44.072 L85.684,44.456 C85.5239992,44.6160008 85.3800006,44.7279997 85.252,44.792 C84.8679981,45.0160011 84.4040027,45.032001 83.86,44.84 L83.476,44.312 Z M56.308,41.096 C55.4439957,40.8719989 54.9320008,40.6320013 54.772,40.376 C54.6119992,40.1519989 54.5639997,39.5600048 54.628,38.6 C57.1880128,36.1359877 58.5479992,32.9520195 58.708,29.048 C59.9240061,29.656003 60.532,30.9999896 60.532,33.08 C60.532,35.1600104 59.9400059,37.2879891 58.756,39.464 L56.308,41.096 Z M84.58,22.664 C85.3160037,23.3360034 85.8119987,23.9439973 86.068,24.488 C86.3880016,25.1920035 86.3880016,25.9919955 86.068,26.888 L84.772,26.744 C84.6119992,26.744 84.4840005,26.7280002 84.388,26.696 C83.7159966,26.6319997 83.1560022,26.6 82.708,26.6 C81.7799954,26.5679998 80.6440067,26.6319992 79.3,26.792 C78.8519978,26.8240002 78.3080032,26.9039994 77.668,27.032 L76.132,27.272 L74.884,24.68 L79.972,24.584 C80.7080037,24.6160002 81.2999978,24.6160002 81.748,24.584 C82.0040013,24.5519998 82.2919984,24.4560008 82.612,24.296 L83.38,23.768 L84.58,22.664 Z M71.62,36.68 C71.3959989,35.3679934 71.1080018,34.2960042 70.756,33.464 C70.2759976,32.3439944 69.6040043,31.384004 68.74,30.584 L69.268,30.44 C69.4280008,30.3759997 69.5399997,30.3599998 69.604,30.392 L71.524,31.256 C72.2600037,31.5760016 72.8999973,31.8959984 73.444,32.216 C74.2760042,32.6640022 74.7239997,33.3199957 74.788,34.184 C74.8520003,35.0480043 74.5160037,35.783997 73.78,36.392 L72.868,37.112 L71.62,36.68 Z M41.8839999,102.904 C37.7879794,102.615999 33.5000223,102.535999 29.0199999,102.664 C24.9879797,102.792001 20.6680229,103.095998 16.0599999,103.576 C15.8679989,103.319999 15.5800018,102.968002 15.1959999,102.52 L14.2359999,101.464 L25.6599999,101.032 C25.7560004,99.9119944 25.788,98.7120064 25.7559999,97.432 C25.7239997,96.4079949 25.6440005,95.1760072 25.5159999,93.736 L18.1719999,94.648 L17.5479999,93.688 C17.2599984,93.2719979 17.004001,92.8560021 16.7799999,92.44 L25.5159999,92.008 C25.4839997,91.4639973 25.4679999,90.8240037 25.4679999,90.088 L25.4679999,88.216 C25.5,86.7439926 25.4200008,85.5440046 25.2279999,84.616 L17.8359999,85.288 L16.5879999,83.512 L13.4679999,86.344 L13.6599999,90.088 C13.7240002,91.6240077 13.7559999,92.9039949 13.7559999,93.928 C13.7559999,94.920005 13.7240002,95.7839963 13.6599999,96.52 C13.5959996,97.4480046 13.5000005,98.311996 13.3719999,99.112 C13.0839984,100.968009 12.5560037,102.599993 11.7879999,104.008 C11.5639988,104.392002 11.2120023,104.823998 10.7319999,105.304 C10.6679996,105.4 10.5720005,105.496 10.4439999,105.592 C10.4119997,105.656 10.3640002,105.704 10.2999999,105.736 L9.53199987,106.504 L8.57199987,106.216 C8.12399763,104.807993 7.06800819,103.544006 5.40399987,102.424 L9.24399987,102.04 L9.62799987,100.504 C9.78800067,99.895997 9.88399971,99.3680022 9.91599987,98.92 C9.98000019,98.0879958 10.0439996,97.0160066 10.1079999,95.704 L10.1559999,94.12 C10.1559999,93.4479966 10.1719997,92.9040021 10.2039999,92.488 L10.5399999,88.504 L3.62799987,95.848 L0.31599987,92.728 L10.0119999,86.872 L10.0119999,79.096 L3.09999987,80.248 L1.46799987,78.376 L9.86799987,77.32 L9.48399987,65.944 C8.77999635,65.6239984 8.02800387,65.3040016 7.22799987,64.984 L10.1559999,63.688 C10.5400018,63.5279992 10.8919983,63.3680008 11.2119999,63.208 L14.4759999,65.416 C13.8039965,67.0800083 13.3720008,68.9359898 13.1799999,70.984 C13.1159996,71.8480043 13.0839999,72.7919949 13.0839999,73.816 C13.0839999,74.616004 13.0999997,75.5919942 13.1319999,76.744 C14.0920047,76.9680011 14.8759968,76.776003 15.4839999,76.168 C15.7400012,75.9439989 15.9959986,75.6240021 16.2519999,75.208 L16.8759999,74.008 C16.9720004,74.3280016 17.1639984,74.6319986 17.4519999,74.92 L17.8359999,75.304 C17.8359999,75.3360002 17.8679996,75.3679998 17.9319999,75.4 L18.2199999,75.688 C18.8280029,76.296003 19.0360008,76.9359966 18.8439999,77.608 L12.9879999,78.664 L13.4199999,84.664 L15.2439999,83.656 C15.8840031,83.2719981 16.4279976,82.9680011 16.8759999,82.744 C17.9960055,83.0000013 19.3879916,83.0800005 21.0519999,82.984 L23.2119999,82.792 C24.0760042,82.7279997 24.795997,82.696 25.3719999,82.696 C25.5000005,82.1199971 25.5639999,81.4480038 25.5639999,80.68 L25.4679999,78.712 C25.4359997,77.911996 25.4359997,77.2720024 25.4679999,76.792 C25.5,76.0879965 25.6119989,75.4480029 25.8039999,74.872 C25.035996,75.2880021 24.0120063,75.5599994 22.7319999,75.688 L21.1959999,75.784 C20.5559967,75.8480003 20.028002,75.9119997 19.6119999,75.976 L18.1239999,73.576 L25.2279999,73.576 L24.8439999,65.416 L22.4439999,64.264 C22.7960016,64.1679995 23.2119975,64.024001 23.6919999,63.832 C23.7560002,63.832 23.8519992,63.8000003 23.9799999,63.736 L24.2679999,63.64 C24.492001,63.5439995 24.6839991,63.4800002 24.8439999,63.448 C25.7080042,63.1279984 26.4119972,62.9999997 26.9559999,63.064 C27.5960031,63.1280003 28.3639954,63.3679979 29.2599999,63.784 L31.7079999,64.936 L29.4519999,68.2 L29.6919999,73.432 L33.5799999,73.432 L36.1239999,70.744 L38.3799999,73.576 L38.8119999,73.336 L38.4279999,75.16 L29.8359999,75.16 L29.8359999,82.504 L35.2119999,82.504 L38.1399999,80.008 L41.3079999,83.368 L40.9239999,84.424 L28.1079999,84.424 L28.0119999,84.712 L30.9399999,86.056 L30.0279999,87.976 L30.0279999,91.768 L32.9079999,91.768 L34.8759999,89.896 L38.0919999,92.2 C37.9639992,93.0960045 37.4200047,93.544 36.4599999,93.544 C35.7239962,93.544 34.9080044,93.5599998 34.0119999,93.592 L31.3719999,93.64 L30.2199999,93.832 L30.2199999,100.648 L35.0679999,100.648 L38.5719999,97.576 L42.1239999,101.56 C42.3160008,101.496 42.4599994,101.464 42.5559999,101.464 L41.8839999,102.904 Z M81.268,63.112 C81.4920011,63.2720008 81.7799982,63.4159994 82.132,63.544 L83.092,63.88 C83.9560043,64.1680014 84.5959979,64.5679974 85.012,65.08 C84.8519992,65.3680014 84.6600011,65.6719984 84.436,65.992 L83.764,66.904 L83.572,69.208 L84.964,69.112 C85.1240008,69.112 85.2679994,69.0960002 85.396,69.064 C86.1000035,69.0319998 86.6919976,68.9680005 87.172,68.872 C87.3320008,68.8399998 87.507999,68.728001 87.7,68.536 C87.7640003,68.5039998 87.8599994,68.4240006 87.988,68.296 L88.228,68.056 L88.996,66.856 L92.5,69.448 C92.6280006,70.3440045 92.196005,70.792 91.204,70.792 L88.132,70.792 C86.9799942,70.792 85.9400046,70.8079998 85.012,70.84 L83.524,70.984 L83.524,74.104 L88.612,73.864 L89.524,72.808 C89.8760018,72.4239981 90.1639989,72.0880014 90.388,71.8 L91.156,72.28 L92.308,73.288 L94.18,75.064 C94.8520034,75.672003 95.0280016,76.3919958 94.708,77.224 L91.732,77.656 C90.6439946,77.8160008 89.6520045,77.9439995 88.756,78.04 L89.092,75.496 L83.044,75.496 L82.756,75.976 C82.8200003,76.0080002 82.9319992,76.0399998 83.092,76.072 C83.2520008,76.1040002 83.3639997,76.1519997 83.428,76.216 C83.4920003,76.2480002 83.5399998,76.3119995 83.572,76.408 L83.716,76.6 C83.4919989,77.4640043 83.2360014,78.5839931 82.948,79.96 L87.364,79.96 L89.284,78.616 C90.276005,79.224003 91.1239965,79.7679976 91.828,80.248 L91.828,81.4 L83.092,81.4 L83.092,82.504 L83.188,83.272 C84.8520083,83.7520024 86.8359885,83.5760042 89.14,82.744 L91.3,85.048 L90.868,86.296 L84.676,86.296 L84.58,86.584 L88.036,88.456 L86.884,90.136 C86.0519958,92.8880138 85.9559968,95.7039856 86.596,98.584 C88.8360112,98.8400013 90.8359912,98.3440062 92.596,97.096 C93.0760024,96.5199971 93.3799994,95.7840045 93.508,94.888 C93.5720003,94.5999986 93.6199998,94.2160024 93.652,93.736 L93.7,93.112 C93.7,92.8879989 93.7159998,92.6960008 93.748,92.536 C93.8120003,92.536 93.9079994,92.5040003 94.036,92.44 L94.324,92.824 C94.4200005,92.9840008 94.4520002,93.1119995 94.42,93.208 C94.1959989,94.3600058 94.2439984,95.5439939 94.564,96.76 C94.8200013,97.752005 95.2839966,98.8559939 95.956,100.072 L96.052,100.312 C96.0840002,100.344 96.1,100.392 96.1,100.456 L96.148,100.552 C96.1800002,100.648 96.196,100.823999 96.196,101.08 C95.9399987,101.496002 95.5240029,101.783999 94.948,101.944 C94.755999,102.008 94.5000016,102.056 94.18,102.088 C94.1159997,102.12 94.0520003,102.136 93.988,102.136 L93.412,102.232 C92.7079965,102.360001 91.8440051,102.44 90.82,102.472 L88.228,102.52 C86.7559926,102.552 85.2520077,101.864007 83.716,100.456 L83.668,98.056 C83.6359998,97.063995 83.6679995,96.2320034 83.764,95.56 C83.8600005,94.7919962 83.908,93.8160059 83.908,92.632 L83.908,91.144 C83.908,90.5999973 83.9239998,90.1200021 83.956,89.704 C83.9880002,89.2879979 83.9880002,88.7600032 83.956,88.12 L83.956,86.728 L80.644,85.384 L80.308,81.256 L76.228,81.784 L75.892,84.712 C75.7639994,85.8000054 75.6360006,86.7279962 75.508,87.496 C75.315999,89.0640078 75.0760014,90.647992 74.788,92.248 C74.179997,95.1920147 72.7560112,97.7839888 70.516,100.024 C69.3319941,101.208006 68.0040074,102.407994 66.532,103.624 C66.339999,103.784001 66.0680018,103.975999 65.716,104.2 L64.9,104.68 L64.66,104.392 L66.292,102.856 C70.1320192,99.6879842 72.3399971,95.608025 72.916,90.616 L73.444,85.432 C73.6040008,83.5119904 73.6680002,81.7840077 73.636,80.248 C73.636,79.5119963 73.6040003,78.7120043 73.54,77.848 L73.348,75.448 L71.908,73.816 L74.74,73.048 L77.284,74.488 C77.8600029,74.4559998 78.6919946,74.3760006 79.78,74.248 L79.78,65.8 C78.9479958,65.2559973 78.3560018,64.888001 78.004,64.696 L81.268,63.112 Z M71.764,86.248 L70.564,88.072 L68.356,96.04 C68.1959992,96.7440035 67.8760024,97.4479965 67.396,98.152 C67.1079986,98.6000022 66.6280034,99.223996 65.956,100.024 C65.5399979,100.472002 64.8520048,101.079996 63.892,101.848 C63.1239962,102.488003 62.2760046,102.440004 61.348,101.704 C61.5080008,101.031997 61.4120018,100.344004 61.06,99.64 C60.9319994,99.3839987 60.7560011,99.0960016 60.532,98.776 L60.196,98.296 C60.1639998,98.2319997 60.1160003,98.1680003 60.052,98.104 L59.86,97.864 C60.3400024,97.5439984 60.979996,97.4959989 61.78,97.72 L62.692,97.96 C63.0760019,98.0240003 63.4119986,98.0240003 63.7,97.96 C64.7560053,96.551993 65.587997,94.8720098 66.196,92.92 C66.7080026,91.319992 67.0919987,89.4000112 67.348,87.16 C66.8039973,86.9999992 66.1960034,86.9519997 65.524,87.016 C65.2359986,87.0480002 64.9320016,87.1119995 64.612,87.208 L63.7,87.448 C63.1559973,88.8880072 62.3720051,89.6559995 61.348,89.752 C60.8359974,89.4319984 60.6919989,88.872004 60.916,88.072 C61.108001,87.3679965 61.299999,86.5360048 61.492,85.576 L62.02,83.128 C62.0520002,82.9999994 62.068,82.8240011 62.068,82.6 L62.068,81.976 C61.4279968,81.8799995 60.7240038,81.8799995 59.956,81.976 C59.6359984,82.0080002 59.2840019,82.0719995 58.9,82.168 L56.884,82.552 C56.4999981,82.6480005 56.1640014,82.7119998 55.876,82.744 C55.1399963,82.8400005 54.468003,82.8400005 53.86,82.744 L52.756,80.488 L56.452,80.392 L59.044,80.392 C60.0040048,80.392 60.8519963,80.3760002 61.588,80.344 C62.5160046,80.344 63.379996,80.3280002 64.18,80.296 C64.5960021,80.296 65.1559965,80.2640003 65.86,80.2 L66.676,80.152 C66.9960016,80.1199998 67.2679989,80.104 67.492,80.104 C68.6440058,80.0399997 69.4279979,79.5920042 69.844,78.76 L70.228,77.992 L72.82,80.44 L72.484,81.4 C72.0039976,81.4320002 71.3800038,81.4320002 70.612,81.4 L68.788,81.352 C67.3159926,81.3840002 66.084005,81.5759982 65.092,81.928 L64.084,85.768 L67.06,85.48 C67.860004,84.5519954 68.5799968,83.7520034 69.22,83.08 L71.764,86.248 Z M70.132,66.184 L72.916,69.592 C72.115996,70.2320032 71.620001,71.1759938 71.428,72.424 C71.3639997,72.6480011 71.3160002,72.9199984 71.284,73.24 L71.236,74.056 C71.1719997,74.7600035 71.1080003,75.3199979 71.044,75.736 L63.364,75.736 C63.2359994,76.6640046 63.0600011,77.3359979 62.836,77.752 C62.5159984,78.3920032 61.956004,78.8239989 61.156,79.048 L60.964,78.328 C60.8679995,78.0399986 60.82,77.800001 60.82,77.608 C60.7879998,76.4239941 60.772,75.0960074 60.772,73.624 L60.772,69.736 L59.284,68.392 C60.3720054,67.9439978 61.2359968,67.6080011 61.876,67.384 C62.9000051,67.9600029 63.8599955,68.3599989 64.756,68.584 C65.8440054,68.8720014 66.9479944,68.920001 68.068,68.728 L70.132,66.184 Z M78.388,87.736 C78.5160006,87.7039998 78.7399984,87.6560003 79.06,87.592 L79.876,87.448 L82.132,88.744 L81.556,90.856 C81.3319989,91.6240038 81.1720005,92.2319978 81.076,92.68 C80.7239982,94.4400088 80.0680048,96.1359918 79.108,97.768 C78.2439957,99.2080072 77.108007,100.647993 75.7,102.088 C74.9319962,102.856004 73.9720058,103.607996 72.82,104.344 C72.4039979,104.632001 71.892003,104.951998 71.284,105.304 C71.1879995,105.4 71.0600008,105.48 70.9,105.544 L69.748,106.264 C69.6519995,106.328 69.5240008,106.376 69.364,106.408 L68.932,106.456 C68.8999998,106.295999 68.8360005,106.184 68.74,106.12 C68.8680006,106.056 68.9959994,105.976 69.124,105.88 L69.844,105.304 C69.9720006,105.208 70.0999994,105.128 70.228,105.064 C72.6920123,103.527992 74.6439928,101.688011 76.084,99.544 C77.876009,96.9839872 78.772,94.1840152 78.772,91.144 C78.772,90.6959978 78.7240005,90.1360034 78.628,89.464 L78.388,87.736 Z M63.748,70.312 C63.748,70.4720008 63.7320002,70.647999 63.7,70.84 L63.556,72.328 C63.4599995,73.0640037 63.3960002,73.6879974 63.364,74.2 L67.972,74.2 L68.212,70.024 L63.748,70.312 Z M80.26,79.912 L80.26,75.64 L76.708,75.88 C76.5799994,77.0000056 76.4680005,78.3439922 76.372,79.912 L80.26,79.912 Z" id="今日-挂号2" fill="#111111"></path>
    </g>
</svg>