<?xml version="1.0" encoding="UTF-8"?>
<svg width="30px" height="34px" viewBox="0 0 30 34" version="1.1" xmlns="http://www.w3.org/2000/svg" xmlns:xlink="http://www.w3.org/1999/xlink">
    <!-- Generator: Sketch 52.2 (67145) - http://www.bohemiancoding.com/sketch -->
    <title>Overrides/home/icon1 Copy 2</title>
    <desc>Created with Sketch.</desc>
    <g id="Page-1" stroke="none" stroke-width="1" fill="none" fill-rule="evenodd">
        <g id="切图-copy" transform="translate(-817.000000, -659.000000)" fill="#B79153" fill-rule="nonzero">
            <g id="Overrides/hospital/icon4" transform="translate(813.000000, 657.000000)">
                <path d="M10.1643246,7.75710885 C8.80881974,6.49067723 8.06743567,4.58250954 8.33158849,2.58673638 C9.0829555,3.20394243 9.99553292,3.63519232 11.0131558,3.80097298 C12.1616271,3.9880701 13.2844353,3.81106209 14.2704576,3.35299123 C14.4341454,3.26068016 14.6006596,3.17301197 14.7698329,3.09015896 C14.7744244,3.0874446 14.7790122,3.08472381 14.7835962,3.08199661 L14.7835962,3.08343182 C16.0618092,2.45992814 17.4913008,2.11111111 19,2.11111111 C24.4410275,2.11111111 28.8518519,6.64795898 28.8518519,12.2444444 C28.8518519,17.8409299 24.4410275,22.3777778 19,22.3777778 C13.5589725,22.3777778 9.14814815,17.8409299 9.14814815,12.2444444 C9.14814815,10.63317 9.51376652,9.10973025 10.1643246,7.75710885 Z M15.7160494,13.9333333 C15.7160494,15.7988285 17.1863242,17.3111111 19,17.3111111 C20.8136758,17.3111111 22.2839506,15.7988285 22.2839506,13.9333333 L15.7160494,13.9333333 Z M8.22222222,24.0666667 L29.7777778,24.0666667 C31.9869168,24.0666667 33.7777778,25.8575277 33.7777778,28.0666667 L33.7777778,35.8888889 L4.22222222,35.8888889 L4.22222222,28.0666667 C4.22222222,25.8575277 6.01308322,24.0666667 8.22222222,24.0666667 Z" id="Combined-Shape"></path>
            </g>
        </g>
    </g>
</svg>