<?xml version="1.0" encoding="UTF-8"?>
<svg width="30px" height="34px" viewBox="0 0 30 34" version="1.1" xmlns="http://www.w3.org/2000/svg" xmlns:xlink="http://www.w3.org/1999/xlink">
    <!-- Generator: Sketch 52.2 (67145) - http://www.bohemiancoding.com/sketch -->
    <title>Overrides/home/icon1 Copy 3</title>
    <desc>Created with Sketch.</desc>
    <g id="Page-1" stroke="none" stroke-width="1" fill="none" fill-rule="evenodd">
        <g id="切图-copy" transform="translate(-818.000000, -727.000000)" fill="#B79153">
            <g id="Overrides/hospital/icon3" transform="translate(814.000000, 725.000000)">
                <path d="M16.8888889,23.2222222 L14.6666667,23.2222222 C13.5620972,23.2222222 12.6666667,24.1176527 12.6666667,25.2222222 L12.6666667,25.4444444 C12.6666667,26.5490139 13.5620972,27.4444444 14.6666667,27.4444444 L16.8888889,27.4444444 L16.8888889,29.6666667 C16.8888889,30.7712362 17.7843194,31.6666667 18.8888889,31.6666667 L19.1111111,31.6666667 C20.2156806,31.6666667 21.1111111,30.7712362 21.1111111,29.6666667 L21.1111111,27.4444444 L23.3333333,27.4444444 C24.4379028,27.4444444 25.3333333,26.5490139 25.3333333,25.4444444 L25.3333333,25.2222222 C25.3333333,24.1176527 24.4379028,23.2222222 23.3333333,23.2222222 L21.1111111,23.2222222 L21.1111111,21 C21.1111111,19.8954305 20.2156806,19 19.1111111,19 L18.8888889,19 C17.7843194,19 16.8888889,19.8954305 16.8888889,21 L16.8888889,23.2222222 Z M8.22222222,2.1108807 L29.7777778,2.1108807 C31.9869168,2.1108807 33.7777778,3.9017417 33.7777778,6.1108807 L33.7777778,31.8888889 C33.7777778,34.0980279 31.9869168,35.8888889 29.7777778,35.8888889 L8.22222222,35.8888889 C6.01308322,35.8888889 4.22222222,34.0980279 4.22222222,31.8888889 L4.22222222,6.1108807 C4.22222222,3.9017417 6.01308322,2.1108807 8.22222222,2.1108807 Z M10.4444444,6.33333333 C9.33987494,6.33333333 8.44444444,7.22876383 8.44444444,8.33333333 L8.44444444,12.7777778 C8.44444444,13.8823473 9.33987494,14.7777778 10.4444444,14.7777778 L27.5555556,14.7777778 C28.6601251,14.7777778 29.5555556,13.8823473 29.5555556,12.7777778 L29.5555556,8.33333333 C29.5555556,7.22876383 28.6601251,6.33333333 27.5555556,6.33333333 L10.4444444,6.33333333 Z" id="Combined-Shape"></path>
            </g>
        </g>
    </g>
</svg>