<?xml version="1.0" encoding="UTF-8"?>
<svg width="60px" height="60px" viewBox="0 0 60 60" version="1.1" xmlns="http://www.w3.org/2000/svg" xmlns:xlink="http://www.w3.org/1999/xlink">
    <!-- Generator: Sketch 52.2 (67145) - http://www.bohemiancoding.com/sketch -->
    <title>Group 13</title>
    <desc>Created with Sketch.</desc>
    <defs>
        <linearGradient x1="50%" y1="0%" x2="50%" y2="100%" id="linearGradient-1">
            <stop stop-color="#E0BB7F" offset="0%"></stop>
            <stop stop-color="#B79153" offset="100%"></stop>
        </linearGradient>
        <path d="M26.8567246,44.3613266 L19.591202,36.5502649 C14.527492,31.1063411 14.8588814,22.6096557 20.3313809,17.5723868 C22.8264669,15.2757362 26.1006894,14 29.5000389,14 C36.9558615,14 43,20.0125779 43,27.4294685 C43,30.8110677 41.7175659,34.068193 39.4088581,36.5502486 L32.1433071,44.3613287 C30.7854146,45.8211776 28.5011839,45.9038296 27.041335,44.5459372 C26.9775924,44.4866464 26.9160153,44.4250693 26.8567246,44.3613266 Z M29.5791798,33.7646103 C32.9458928,33.7646103 35.6751529,30.9993236 35.6751529,27.5881696 C35.6751529,24.1770156 32.9458928,21.4117289 29.5791798,21.4117289 C26.2124669,21.4117289 23.4832068,24.1770156 23.4832068,27.5881696 C23.4832068,30.9993236 26.2124669,33.7646103 29.5791798,33.7646103 Z" id="path-2"></path>
    </defs>
    <g id="Page-1" stroke="none" stroke-width="1" fill="none" fill-rule="evenodd">
        <g id="走进医院" transform="translate(-446.000000, -507.000000)">
            <g id="Group-13" transform="translate(446.000000, 507.000000)">
                <circle id="Oval-9-Copy-2" fill="url(#linearGradient-1)" cx="30" cy="30" r="30"></circle>
                <mask id="mask-3" fill="white">
                    <use xlink:href="#path-2"></use>
                </mask>
                <use id="Combined-Shape" fill="#FFFFFF" xlink:href="#path-2"></use>
            </g>
        </g>
    </g>
</svg>